<svg xmlns="http://www.w3.org/2000/svg" xmlns:xlink="http://www.w3.org/1999/xlink" viewBox="0 0 976.35 2111"><defs><style>.cls-1{isolation:isolate;}.cls-2{fill:#2952ff;}.cls-100,.cls-103,.cls-104,.cls-105,.cls-106,.cls-107,.cls-3,.cls-75,.cls-76,.cls-77,.cls-78,.cls-79,.cls-82,.cls-83,.cls-84,.cls-85,.cls-86,.cls-89,.cls-90,.cls-91,.cls-92,.cls-93,.cls-96,.cls-97,.cls-98,.cls-99{mix-blend-mode:multiply;}.cls-4{fill:#fff;opacity:0;}.cls-5{fill:#fcfcfc;}.cls-40,.cls-5{opacity:0.03;}.cls-6{fill:#faf9f9;}.cls-41,.cls-6{opacity:0.06;}.cls-7{fill:#f7f6f6;}.cls-42,.cls-7{opacity:0.09;}.cls-8{fill:#f4f3f3;}.cls-43,.cls-8{opacity:0.12;}.cls-9{fill:#f1f0f0;}.cls-44,.cls-9{opacity:0.15;}.cls-10{fill:#efeded;}.cls-10,.cls-45{opacity:0.18;}.cls-11{fill:#eceaea;}.cls-11,.cls-46{opacity:0.21;}.cls-12{fill:#e9e7e7;}.cls-12,.cls-47{opacity:0.24;}.cls-13{fill:#e7e4e4;}.cls-13,.cls-48{opacity:0.26;}.cls-14{fill:#e4e1e1;}.cls-14,.cls-49{opacity:0.29;}.cls-15{fill:#e1dede;}.cls-15,.cls-50{opacity:0.32;}.cls-16{fill:#dfdbdb;}.cls-16,.cls-51{opacity:0.35;}.cls-17{fill:#dcd8d8;}.cls-17,.cls-52{opacity:0.38;}.cls-18{fill:#d9d5d5;}.cls-18,.cls-53{opacity:0.41;}.cls-19{fill:#d6d2d2;}.cls-19,.cls-54{opacity:0.44;}.cls-20{fill:#d4cfcf;}.cls-20,.cls-55{opacity:0.47;}.cls-21{fill:#d1cccc;}.cls-21,.cls-56{opacity:0.5;}.cls-22{fill:#cec8c8;}.cls-22,.cls-57{opacity:0.53;}.cls-23{fill:#ccc5c5;}.cls-23,.cls-58{opacity:0.56;}.cls-24{fill:#c9c2c2;}.cls-24,.cls-59{opacity:0.59;}.cls-25{fill:#c6bfbf;}.cls-25,.cls-60{opacity:0.62;}.cls-26{fill:#c3bcbc;}.cls-26,.cls-61{opacity:0.65;}.cls-27{fill:#c1b9b9;}.cls-27,.cls-62{opacity:0.68;}.cls-28{fill:#beb6b6;}.cls-28,.cls-63{opacity:0.71;}.cls-29{fill:#bbb3b3;}.cls-29,.cls-64{opacity:0.74;}.cls-30{fill:#b9b0b0;}.cls-30,.cls-65{opacity:0.76;}.cls-31{fill:#b6adad;}.cls-31,.cls-66{opacity:0.79;}.cls-32{fill:#b3aaaa;}.cls-32,.cls-67{opacity:0.82;}.cls-33{fill:#b1a7a7;}.cls-33,.cls-68{opacity:0.85;}.cls-34{fill:#aea4a4;}.cls-34,.cls-69{opacity:0.88;}.cls-35{fill:#aba1a1;}.cls-35,.cls-70{opacity:0.91;}.cls-36{fill:#a89e9e;}.cls-36,.cls-71{opacity:0.94;}.cls-37{fill:#a69b9b;}.cls-37,.cls-72{opacity:0.97;}.cls-38{fill:#a39898;}.cls-39{fill:#007ab7;}.cls-40{fill:#fdfcfc;}.cls-41{fill:#fafafa;}.cls-42{fill:#f8f7f7;}.cls-43{fill:#f6f4f4;}.cls-44{fill:#f3f1f1;}.cls-45{fill:#f1efef;}.cls-46{fill:#efecec;}.cls-47{fill:#ece9e9;}.cls-48{fill:#eae7e7;}.cls-49{fill:#e8e4e4;}.cls-50{fill:#e5e1e1;}.cls-51{fill:#e3dfdf;}.cls-52{fill:#e1dcdc;}.cls-53{fill:#ded9d9;}.cls-54{fill:#dcd6d6;}.cls-55{fill:#dad4d4;}.cls-56{fill:#d8d1d1;}.cls-57{fill:#d5cece;}.cls-58{fill:#d3cccc;}.cls-59{fill:#d1c9c9;}.cls-60{fill:#cec6c6;}.cls-61{fill:#ccc3c3;}.cls-62{fill:#cac1c1;}.cls-63{fill:#c7bebe;}.cls-64{fill:#c5bbbb;}.cls-65{fill:#c3b9b9;}.cls-66{fill:#c0b6b6;}.cls-67{fill:#beb3b3;}.cls-68{fill:#bcb1b1;}.cls-69{fill:#b9aeae;}.cls-70{fill:#b7abab;}.cls-71{fill:#b5a8a8;}.cls-72{fill:#b2a6a6;}.cls-73{fill:#b0a3a3;}.cls-74{opacity:0.61;}.cls-75{fill:url(#radial-gradient);}.cls-76{fill:url(#radial-gradient-2);}.cls-77{fill:url(#radial-gradient-3);}.cls-78{fill:url(#radial-gradient-4);}.cls-79{fill:url(#radial-gradient-5);}.cls-80{fill:url(#radial-gradient-6);}.cls-81{fill:url(#linear-gradient);}.cls-82{fill:url(#radial-gradient-7);}.cls-83{fill:url(#radial-gradient-8);}.cls-84{fill:url(#radial-gradient-9);}.cls-85{fill:url(#radial-gradient-10);}.cls-86{fill:url(#radial-gradient-11);}.cls-87{fill:url(#radial-gradient-12);}.cls-88{fill:url(#linear-gradient-2);}.cls-89{fill:url(#radial-gradient-13);}.cls-90{fill:url(#radial-gradient-14);}.cls-91{fill:url(#radial-gradient-15);}.cls-92{fill:url(#radial-gradient-16);}.cls-93{fill:url(#radial-gradient-17);}.cls-94{fill:url(#radial-gradient-18);}.cls-95{fill:url(#linear-gradient-3);}.cls-96{fill:url(#radial-gradient-19);}.cls-97{fill:url(#radial-gradient-20);}.cls-98{fill:url(#radial-gradient-21);}.cls-99{fill:url(#radial-gradient-22);}.cls-100{fill:url(#radial-gradient-23);}.cls-101{fill:url(#radial-gradient-24);}.cls-102{fill:url(#linear-gradient-4);}.cls-103{fill:url(#radial-gradient-25);}.cls-104{fill:url(#radial-gradient-26);}.cls-105{fill:url(#radial-gradient-27);}.cls-106{fill:url(#radial-gradient-28);}.cls-107{fill:url(#radial-gradient-29);}.cls-108{fill:url(#radial-gradient-30);}.cls-109{fill:url(#linear-gradient-5);}</style><radialGradient id="radial-gradient" cx="-1060.52" cy="472.75" r="201.68" gradientTransform="translate(1159.52 451.53) rotate(-45)" gradientUnits="userSpaceOnUse"><stop offset="0" stop-color="#a59595"/><stop offset="0" stop-color="#a59696"/><stop offset="0.32" stop-color="#ccc3c3"/><stop offset="0.61" stop-color="#e8e4e4"/><stop offset="0.84" stop-color="#f9f8f8"/><stop offset="1" stop-color="#fff"/></radialGradient><radialGradient id="radial-gradient-2" cx="-1012.5" cy="424.73" r="201.68" gradientTransform="translate(271.16 475.2) rotate(-90)" xlink:href="#radial-gradient"/><radialGradient id="radial-gradient-3" cx="-1043.06" cy="364.75" r="201.68" gradientTransform="translate(1115.54 522.78) rotate(-45)" xlink:href="#radial-gradient"/><radialGradient id="radial-gradient-4" cx="-1084.2" cy="482.6" r="201.68" gradientTransform="translate(1179.15 451.5) rotate(-45)" xlink:href="#radial-gradient"/><radialGradient id="radial-gradient-5" cx="-1135.12" cy="482.6" r="201.68" gradientTransform="translate(1215.16 466.41) rotate(-45)" xlink:href="#radial-gradient"/><radialGradient id="radial-gradient-6" cx="-1149.25" cy="296.39" r="393.1" gradientTransform="translate(271.16 475.2) rotate(-90)" gradientUnits="userSpaceOnUse"><stop offset="0" stop-color="#fff"/><stop offset="1" stop-color="#c4bbbb"/></radialGradient><linearGradient id="linear-gradient" x1="-1280.2" y1="393.87" x2="-963.01" y2="393.87" gradientTransform="translate(1179.62 525.2) rotate(-45)" gradientUnits="userSpaceOnUse"><stop offset="0" stop-color="#c4bbbb"/><stop offset="1" stop-color="#fff"/></linearGradient><radialGradient id="radial-gradient-7" cx="-1359.52" cy="64.75" r="201.68" gradientTransform="translate(1251.45 827.61) rotate(-45)" xlink:href="#radial-gradient"/><radialGradient id="radial-gradient-8" cx="-1311.5" cy="16.73" r="201.68" gradientTransform="translate(271.16 475.2) rotate(-90)" xlink:href="#radial-gradient"/><radialGradient id="radial-gradient-9" cx="-1342.06" cy="-43.25" r="201.68" gradientTransform="translate(1207.47 898.86) rotate(-45)" xlink:href="#radial-gradient"/><radialGradient id="radial-gradient-10" cx="-1383.2" cy="74.6" r="201.68" gradientTransform="translate(1271.08 827.57) rotate(-45)" xlink:href="#radial-gradient"/><radialGradient id="radial-gradient-11" cx="-1434.12" cy="74.6" r="201.68" gradientTransform="translate(1307.09 842.49) rotate(-45)" xlink:href="#radial-gradient"/><radialGradient id="radial-gradient-12" cx="-1448.25" cy="-111.61" r="393.1" xlink:href="#radial-gradient-6"/><linearGradient id="linear-gradient-2" x1="-1579.2" y1="-14.13" x2="-1262.01" y2="-14.13" gradientTransform="translate(1271.54 901.27) rotate(-45)" xlink:href="#linear-gradient"/><radialGradient id="radial-gradient-13" cx="-656.65" cy="38.52" r="201.68" gradientTransform="translate(746.76 640.29) rotate(-45)" xlink:href="#radial-gradient"/><radialGradient id="radial-gradient-14" cx="-608.63" cy="-9.5" r="201.68" gradientTransform="translate(698.75 660.18) rotate(-45)" xlink:href="#radial-gradient"/><radialGradient id="radial-gradient-15" cx="-639.19" cy="-69.48" r="201.68" gradientTransform="translate(702.78 711.54) rotate(-45)" xlink:href="#radial-gradient"/><radialGradient id="radial-gradient-16" cx="-680.33" cy="48.38" r="201.68" gradientTransform="translate(766.39 640.25) rotate(-45)" xlink:href="#radial-gradient"/><radialGradient id="radial-gradient-17" cx="-731.25" cy="48.38" r="201.68" gradientTransform="translate(802.4 655.17) rotate(-45)" xlink:href="#radial-gradient"/><radialGradient id="radial-gradient-18" cx="-718.57" cy="-138.17" r="442.38" xlink:href="#radial-gradient-6"/><linearGradient id="linear-gradient-3" x1="-853.16" y1="-33.17" x2="-535.97" y2="-33.17" gradientTransform="translate(752.58 702.09) rotate(-45)" xlink:href="#linear-gradient"/><radialGradient id="radial-gradient-19" cx="-217.13" cy="480.2" r="201.68" gradientTransform="translate(271.16 475.2) rotate(-90)" xlink:href="#radial-gradient"/><radialGradient id="radial-gradient-20" cx="-169.11" cy="432.18" r="201.68" gradientTransform="translate(271.16 475.2) rotate(-90)" xlink:href="#radial-gradient"/><radialGradient id="radial-gradient-21" cx="-199.67" cy="372.2" r="201.68" gradientTransform="translate(521.36 270.49) rotate(-45)" xlink:href="#radial-gradient"/><radialGradient id="radial-gradient-22" cx="-240.81" cy="490.06" r="201.68" gradientTransform="translate(584.97 199.21) rotate(-45)" xlink:href="#radial-gradient"/><radialGradient id="radial-gradient-23" cx="-291.73" cy="490.06" r="201.68" gradientTransform="translate(620.98 214.12) rotate(-45)" xlink:href="#radial-gradient"/><radialGradient id="radial-gradient-24" cx="-311.18" cy="265.35" r="410.22" gradientTransform="translate(271.16 475.2) rotate(-90)" gradientUnits="userSpaceOnUse"><stop offset="0" stop-color="#fff"/><stop offset="1" stop-color="#e3d8d8"/></radialGradient><linearGradient id="linear-gradient-4" x1="-421.76" y1="393.87" x2="-104.57" y2="393.87" gradientTransform="translate(572.61 273.77) rotate(-45)" xlink:href="#linear-gradient"/><radialGradient id="radial-gradient-25" cx="196.65" cy="45.56" r="201.68" gradientTransform="translate(145.45 385.38) rotate(-45)" xlink:href="#radial-gradient"/><radialGradient id="radial-gradient-26" cx="244.66" cy="-2.45" r="201.68" gradientTransform="translate(271.16 475.2) rotate(-90)" xlink:href="#radial-gradient"/><radialGradient id="radial-gradient-27" cx="214.11" cy="-62.43" r="201.68" gradientTransform="translate(101.48 456.63) rotate(-45)" xlink:href="#radial-gradient"/><radialGradient id="radial-gradient-28" cx="172.97" cy="55.42" r="201.68" gradientTransform="translate(165.08 385.35) rotate(-45)" xlink:href="#radial-gradient"/><radialGradient id="radial-gradient-29" cx="122.05" cy="55.42" r="201.68" gradientTransform="translate(201.09 400.26) rotate(-45)" xlink:href="#radial-gradient"/><radialGradient id="radial-gradient-30" cx="129.2" cy="-140.11" r="465.6" xlink:href="#radial-gradient-24"/><linearGradient id="linear-gradient-5" x1="5.28" y1="-33.17" x2="322.47" y2="-33.17" gradientTransform="translate(145.57 450.65) rotate(-45)" xlink:href="#linear-gradient"/></defs><g class="cls-1"><g id="Layer_2" data-name="Layer 2"><g id="home_service" data-name="home service"><g id="Layer_8" data-name="Layer 8"><circle class="cls-2" cx="258.41" cy="1896" r="193"/><path class="cls-2" d="M626.72,1777.65s-17.68-.61-44.65-6.56c-1.51-.1-118.81-10.07-142.18,93.33,0,0-2,8.25.28,22.13l-30.69,28.62-38.24-24.26-36.71-80.51-6.4-28.58s150.05,18.49,162.54-97.29c0,0-1.43-14.5-3.26-19.67C487.53,1665.2,652.3,1696.15,626.72,1777.65Z"/><g class="cls-3"><path class="cls-4" d="M158.08,124.21c-67.38,74-66.59,189,1.73,262.11a193.26,193.26,0,0,0,172.67,58.89c55.59-9,112,10.51,151.84,50.33l4,4c40,40,57.31,96.74,48.84,152.67a195.07,195.07,0,0,0,.48,61.34c9.28,55.54-7.54,112.22-47.35,152l-6,5.95c-39.82,39.83-96.26,59.35-151.86,50.34a193.27,193.27,0,0,0-177,63.73c-63,72.05-63.37,181-.76,253.45a193.21,193.21,0,0,0,174.74,65.06c53.93-7.87,108.52,9,147.06,47.53l13,13c38.54,38.54,55.4,93.12,47.53,147a193.2,193.2,0,0,0,60.25,170.46c73.23,67.55,187.54,67.95,261.21.89,82.1-74.74,84.34-202.45,6.72-280.07a193.41,193.41,0,0,0-169.88-53.77c-55.32,9.52-111.71-9.79-151.41-49.48l-1.36-1.37c-40.24-40.23-59.85-97.32-50.49-153.45a195.09,195.09,0,0,0,.58-60.44c-8.11-55.14,9.07-111,48.48-150.37l13.38-13.38c38.47-38.47,92.87-55.43,146.75-47.85A193.23,193.23,0,0,0,871,812.16c67.79-73.78,67.48-188.9-.69-262.34a193.22,193.22,0,0,0-171.46-59.58c-55.5,8.52-111.62-11.15-151.32-50.85l-5.22-5.22c-39.21-39.21-58.62-94.71-50-149.48a193.27,193.27,0,0,0-54.16-167.2C360.53,39.87,232.82,42.11,158.08,124.21Z"/><path class="cls-5" d="M156.22,125.88c-67.38,74-66.6,189,1.73,262.12a193.31,193.31,0,0,0,172.67,58.89c55.59-9,112,10.51,151.84,50.33l4,4c40,40,57.31,96.73,48.84,152.66a195.13,195.13,0,0,0,.47,61.35c9.29,55.53-7.53,112.22-47.34,152l-6,6c-39.83,39.83-96.26,59.35-151.86,50.34a193.3,193.3,0,0,0-177,63.72c-63,72.06-63.36,181-.76,253.46a193.27,193.27,0,0,0,174.74,65.06c53.94-7.88,108.52,9,147.07,47.52l13,13c38.54,38.54,55.39,93.12,47.52,147.05a193.26,193.26,0,0,0,60.26,170.46c73.22,67.55,187.54,68,261.21.89,82.1-74.74,84.34-202.45,6.71-280.08a193.41,193.41,0,0,0-169.88-53.76c-55.31,9.51-111.71-9.79-151.4-49.49l-1.36-1.36c-40.24-40.24-59.86-97.33-50.49-153.45a195.39,195.39,0,0,0,.58-60.44c-8.11-55.14,9.07-111,48.48-150.38l13.37-13.37c38.47-38.47,92.88-55.43,146.76-47.86a193.23,193.23,0,0,0,169.73-60.7c67.79-73.78,67.48-188.9-.69-262.34A193.27,193.27,0,0,0,697,491.91c-55.49,8.53-111.61-11.14-151.31-50.84l-5.22-5.22c-39.21-39.22-58.62-94.71-50-149.49a193.26,193.26,0,0,0-54.17-167.19C358.67,41.54,231,43.78,156.22,125.88Z"/><path class="cls-6" d="M154.36,127.56c-67.38,74-66.6,189,1.73,262.12a193.29,193.29,0,0,0,172.66,58.89c55.59-9,112,10.51,151.85,50.33l4,4c40,40,57.31,96.73,48.84,152.66a195.13,195.13,0,0,0,.47,61.35c9.29,55.53-7.53,112.22-47.35,152l-5.95,5.95c-39.83,39.83-96.27,59.36-151.87,50.35a193.29,193.29,0,0,0-177,63.72c-63,72-63.36,181-.76,253.46a193.24,193.24,0,0,0,174.74,65c53.94-7.87,108.52,9,147.06,47.53l13,13c38.54,38.54,55.39,93.12,47.52,147a193.23,193.23,0,0,0,60.25,170.46c73.23,67.55,187.55,68,261.22.89,82.1-74.74,84.34-202.45,6.71-280.07a193.37,193.37,0,0,0-169.88-53.76c-55.32,9.51-111.71-9.8-151.4-49.49l-1.37-1.37c-40.23-40.23-59.85-97.32-50.49-153.45a194.78,194.78,0,0,0,.58-60.44c-8.1-55.14,9.08-111,48.49-150.37l13.37-13.37c38.47-38.47,92.88-55.44,146.75-47.86a193.26,193.26,0,0,0,169.74-60.7c67.79-73.79,67.47-188.91-.69-262.34A193.24,193.24,0,0,0,695.1,493.59c-55.49,8.52-111.61-11.15-151.31-50.85l-5.22-5.22C499.35,398.31,480,342.81,488.6,288a193.29,193.29,0,0,0-54.17-167.19C356.81,43.22,229.1,45.46,154.36,127.56Z"/><path class="cls-7" d="M152.49,129.23c-67.38,74-66.59,189,1.73,262.12a193.27,193.27,0,0,0,172.67,58.89c55.59-9,112,10.51,151.84,50.33l4,4c40,40,57.31,96.73,48.85,152.67a195.07,195.07,0,0,0,.47,61.34c9.29,55.54-7.54,112.22-47.35,152l-5.95,6c-39.83,39.83-96.27,59.35-151.87,50.34a193.28,193.28,0,0,0-177,63.72c-63,72.06-63.37,181-.76,253.46a193.22,193.22,0,0,0,174.74,65.06c53.93-7.87,108.52,9,147.06,47.53l13,13c38.54,38.54,55.4,93.12,47.53,147a193.2,193.2,0,0,0,60.25,170.46c73.23,67.55,187.54,68,261.21.89,82.11-74.74,84.34-202.45,6.72-280.08a193.43,193.43,0,0,0-169.88-53.76c-55.32,9.52-111.71-9.79-151.4-49.48l-1.37-1.37c-40.23-40.23-59.85-97.32-50.49-153.45a195.09,195.09,0,0,0,.58-60.44c-8.11-55.14,9.08-111,48.48-150.37l13.38-13.38c38.47-38.47,92.88-55.43,146.75-47.85a193.23,193.23,0,0,0,169.73-60.71c67.79-73.78,67.48-188.9-.68-262.34a193.24,193.24,0,0,0-171.47-59.58c-55.49,8.52-111.62-11.15-151.31-50.85l-5.23-5.22c-39.21-39.21-58.62-94.71-50-149.49a193.3,193.3,0,0,0-54.17-167.19C354.94,44.9,227.23,47.13,152.49,129.23Z"/><path class="cls-8" d="M150.63,130.91c-67.38,74-66.59,189,1.73,262.12A193.31,193.31,0,0,0,325,451.92c55.59-9,112,10.51,151.84,50.33l4,4c40,40,57.31,96.73,48.84,152.66a195.13,195.13,0,0,0,.48,61.35c9.28,55.53-7.54,112.22-47.35,152l-6,6C437.06,918.07,380.62,937.6,325,928.59a193.31,193.31,0,0,0-177,63.72c-63,72.06-63.36,181-.75,253.46a193.23,193.23,0,0,0,174.74,65c53.93-7.87,108.52,9,147.06,47.53l13,13c38.54,38.54,55.4,93.11,47.52,147.05a193.26,193.26,0,0,0,60.26,170.46c73.23,67.55,187.54,68,261.21.89,82.1-74.74,84.34-202.45,6.72-280.08a193.43,193.43,0,0,0-169.88-53.76c-55.32,9.51-111.72-9.8-151.41-49.49l-1.36-1.36c-40.24-40.24-59.85-97.33-50.49-153.45a195.4,195.4,0,0,0,.58-60.44c-8.11-55.14,9.07-111,48.48-150.38l13.38-13.37C585.52,889,639.92,872,693.8,879.57a193.23,193.23,0,0,0,169.73-60.7C931.32,745.09,931,630,862.84,556.53a193.26,193.26,0,0,0-171.47-59.59c-55.49,8.53-111.61-11.14-151.31-50.84l-5.22-5.22c-39.21-39.22-58.62-94.71-50-149.49A193.25,193.25,0,0,0,430.71,124.2C353.08,46.57,225.37,48.81,150.63,130.91Z"/><path class="cls-9" d="M148.77,132.59c-67.38,74-66.6,189,1.73,262.12A193.3,193.3,0,0,0,323.16,453.6c55.6-9,112,10.5,151.85,50.33l4,4c40,40,57.31,96.73,48.84,152.66a195.13,195.13,0,0,0,.47,61.35c9.29,55.53-7.53,112.21-47.34,152l-6,5.95c-39.83,39.83-96.27,59.35-151.86,50.34a193.33,193.33,0,0,0-177,63.73c-63,72-63.36,181-.76,253.46a193.24,193.24,0,0,0,174.74,65c53.94-7.87,108.52,9,147.07,47.53l13,13c38.54,38.54,55.39,93.12,47.52,147A193.21,193.21,0,0,0,588,1690.54c73.22,67.55,187.54,68,261.21.89,82.1-74.74,84.34-202.45,6.71-280.07A193.39,193.39,0,0,0,686,1357.59c-55.32,9.52-111.71-9.79-151.4-49.48l-1.37-1.37c-40.23-40.23-59.85-97.32-50.48-153.45a195.39,195.39,0,0,0,.58-60.44c-8.11-55.14,9.07-111,48.48-150.37l13.37-13.37c38.47-38.47,92.88-55.44,146.76-47.86a193.25,193.25,0,0,0,169.73-60.7c67.79-73.79,67.48-188.91-.69-262.35a193.24,193.24,0,0,0-171.47-59.58C634,507.14,577.9,487.47,538.2,447.77L533,442.55c-39.21-39.21-58.62-94.71-50-149.48a193.28,193.28,0,0,0-54.17-167.2C351.22,48.25,223.51,50.49,148.77,132.59Z"/><path class="cls-10" d="M146.91,134.26c-67.38,74-66.6,189,1.73,262.12A193.29,193.29,0,0,0,321.3,455.27c55.59-9,112,10.51,151.84,50.33l4,4c40,40,57.31,96.73,48.84,152.67a195.07,195.07,0,0,0,.47,61.34c9.29,55.54-7.53,112.22-47.35,152l-5.95,6c-39.83,39.83-96.27,59.35-151.87,50.34a193.29,193.29,0,0,0-177,63.72c-63,72.06-63.37,181-.76,253.46a193.25,193.25,0,0,0,174.74,65.06c53.94-7.88,108.52,9,147.06,47.52l13,13c38.54,38.54,55.39,93.12,47.52,147a193.21,193.21,0,0,0,60.25,170.46c73.23,67.55,187.54,68,261.22.89,82.1-74.74,84.34-202.45,6.71-280.08a193.42,193.42,0,0,0-169.88-53.76c-55.32,9.52-111.71-9.79-151.4-49.48l-1.37-1.37c-40.23-40.24-59.85-97.33-50.49-153.45a194.78,194.78,0,0,0,.58-60.44c-8.1-55.14,9.08-111,48.49-150.37l13.37-13.38c38.47-38.47,92.88-55.43,146.75-47.86a193.24,193.24,0,0,0,169.74-60.7c67.79-73.78,67.47-188.9-.69-262.34A193.24,193.24,0,0,0,687.65,500.3c-55.49,8.52-111.61-11.15-151.31-50.85l-5.22-5.22c-39.22-39.21-58.63-94.71-50-149.49A193.3,193.3,0,0,0,427,127.55C349.35,49.92,221.64,52.16,146.91,134.26Z"/><path class="cls-11" d="M145,135.94c-67.38,74-66.59,189,1.73,262.12A193.31,193.31,0,0,0,319.44,457c55.59-9,112,10.51,151.84,50.33l4,4c40,40,57.31,96.73,48.85,152.66a194.84,194.84,0,0,0,.47,61.35c9.28,55.53-7.54,112.22-47.35,152l-5.95,6C431.47,923.1,375,942.63,319.43,933.62a193.28,193.28,0,0,0-177,63.72c-63,72.06-63.37,181-.76,253.46a193.24,193.24,0,0,0,174.74,65c53.93-7.87,108.52,9,147.06,47.53l13,13c38.54,38.53,55.4,93.11,47.53,147a193.23,193.23,0,0,0,60.25,170.47c73.23,67.54,187.54,67.95,261.21.88,82.11-74.73,84.34-202.44,6.72-280.07A193.43,193.43,0,0,0,682.28,1361c-55.32,9.51-111.71-9.8-151.4-49.49l-1.37-1.36c-40.24-40.24-59.85-97.33-50.49-153.45a195.15,195.15,0,0,0,.58-60.45c-8.11-55.13,9.08-111,48.48-150.37l13.38-13.37C579.93,894,634.33,877,688.21,884.6a193.23,193.23,0,0,0,169.73-60.7c67.79-73.78,67.48-188.91-.69-262.34A193.22,193.22,0,0,0,685.79,502c-55.5,8.52-111.62-11.15-151.32-50.84l-5.22-5.22c-39.21-39.22-58.62-94.71-50-149.49a193.25,193.25,0,0,0-54.16-167.19C347.49,51.6,219.78,53.84,145,135.94Z"/><path class="cls-12" d="M143.18,137.62c-67.38,74-66.59,189,1.73,262.11a193.26,193.26,0,0,0,172.67,58.89c55.59-9,112,10.51,151.84,50.33l4,4c40,40,57.31,96.74,48.84,152.67a195.07,195.07,0,0,0,.47,61.34c9.29,55.54-7.53,112.22-47.34,152l-6,6c-39.82,39.83-96.26,59.35-151.86,50.34a193.28,193.28,0,0,0-177,63.73c-63,72-63.36,181-.76,253.45a193.23,193.23,0,0,0,174.75,65.06c53.93-7.87,108.51,9,147.06,47.53l13,13c38.54,38.54,55.4,93.12,47.52,147a193.24,193.24,0,0,0,60.26,170.46c73.22,67.55,187.54,68,261.21.89,82.1-74.74,84.34-202.45,6.71-280.07a193.38,193.38,0,0,0-169.87-53.77c-55.32,9.52-111.72-9.79-151.41-49.48l-1.36-1.37c-40.24-40.23-59.85-97.32-50.49-153.45a195.39,195.39,0,0,0,.58-60.44c-8.11-55.14,9.07-111,48.48-150.37l13.37-13.38c38.47-38.47,92.88-55.43,146.76-47.85a193.23,193.23,0,0,0,169.73-60.71c67.79-73.78,67.48-188.9-.69-262.34a193.23,193.23,0,0,0-171.47-59.58c-55.49,8.52-111.61-11.15-151.31-50.85l-5.22-5.22c-39.21-39.21-58.62-94.71-50-149.48a193.27,193.27,0,0,0-54.16-167.2C345.63,53.28,217.92,55.52,143.18,137.62Z"/><path class="cls-13" d="M141.32,139.29c-67.38,74-66.6,189,1.73,262.12A193.29,193.29,0,0,0,315.71,460.3c55.59-9,112,10.51,151.85,50.33l4,4c40,40,57.31,96.73,48.84,152.66a195.13,195.13,0,0,0,.47,61.35c9.29,55.53-7.53,112.22-47.35,152l-5.95,6C427.74,926.46,371.3,946,315.7,937a193.29,193.29,0,0,0-177,63.72c-63,72.06-63.36,181-.76,253.46a193.27,193.27,0,0,0,174.74,65.06c53.94-7.88,108.52,9,147.06,47.52l13,13c38.54,38.54,55.39,93.12,47.52,147a193.23,193.23,0,0,0,60.26,170.46c73.22,67.55,187.54,68,261.21.89,82.1-74.74,84.34-202.45,6.71-280.08a193.41,193.41,0,0,0-169.88-53.76c-55.32,9.51-111.71-9.79-151.4-49.49l-1.37-1.36c-40.23-40.24-59.85-97.33-50.49-153.45a194.78,194.78,0,0,0,.58-60.44c-8.1-55.14,9.08-111,48.49-150.37l13.37-13.38c38.47-38.47,92.88-55.43,146.75-47.86a193.24,193.24,0,0,0,169.74-60.7c67.79-73.78,67.47-188.9-.69-262.34a193.27,193.27,0,0,0-171.47-59.59c-55.49,8.53-111.61-11.14-151.31-50.84l-5.22-5.22c-39.21-39.22-58.62-94.71-50-149.49a193.26,193.26,0,0,0-54.17-167.19C343.77,55,216.06,57.19,141.32,139.29Z"/><path class="cls-14" d="M139.46,141c-67.38,74-66.6,189,1.72,262.12A193.32,193.32,0,0,0,313.85,462c55.59-9,112,10.51,151.84,50.33l4,4c40,40,57.31,96.73,48.85,152.66a195.13,195.13,0,0,0,.47,61.35c9.29,55.53-7.53,112.22-47.35,152l-6,5.95c-39.83,39.83-96.27,59.36-151.87,50.35a193.28,193.28,0,0,0-177,63.72c-63,72.05-63.37,181-.76,253.46a193.24,193.24,0,0,0,174.74,65.05c53.94-7.87,108.52,9,147.06,47.53l13,13c38.53,38.54,55.39,93.12,47.52,147a193.2,193.2,0,0,0,60.25,170.46c73.23,67.55,187.54,68,261.22.89,82.1-74.74,84.33-202.45,6.71-280.07A193.37,193.37,0,0,0,676.69,1366c-55.32,9.51-111.71-9.8-151.4-49.49l-1.37-1.37c-40.23-40.23-59.85-97.32-50.49-153.45a194.78,194.78,0,0,0,.58-60.44c-8.11-55.13,9.08-111,48.48-150.37l13.38-13.37c38.47-38.47,92.88-55.44,146.75-47.86a193.28,193.28,0,0,0,169.74-60.7c67.78-73.79,67.47-188.91-.69-262.34A193.24,193.24,0,0,0,680.2,507c-55.49,8.52-111.62-11.15-151.31-50.85l-5.22-5.22c-39.22-39.21-58.63-94.71-50-149.48a193.29,193.29,0,0,0-54.17-167.19C341.9,56.63,214.19,58.87,139.46,141Z"/><path class="cls-15" d="M137.59,142.64c-67.38,74-66.59,189,1.73,262.12A193.26,193.26,0,0,0,312,463.65c55.59-9,112,10.51,151.84,50.33l4,4c40,40,57.31,96.73,48.84,152.67a195.07,195.07,0,0,0,.48,61.34c9.28,55.54-7.54,112.22-47.35,152l-6,6C424,929.81,367.58,949.33,312,940.32A193.28,193.28,0,0,0,135,1004c-63,72.06-63.37,181-.76,253.46a193.21,193.21,0,0,0,174.74,65.06c53.93-7.87,108.52,9,147.06,47.53l13,13c38.54,38.54,55.4,93.12,47.53,147.05a193.2,193.2,0,0,0,60.25,170.46c73.23,67.55,187.54,68,261.21.89,82.11-74.74,84.34-202.45,6.72-280.07a193.41,193.41,0,0,0-169.88-53.77c-55.32,9.52-111.71-9.79-151.41-49.48l-1.36-1.37c-40.24-40.23-59.85-97.32-50.49-153.45a195.09,195.09,0,0,0,.58-60.44c-8.11-55.14,9.07-111,48.48-150.37L534,939.16c38.47-38.47,92.87-55.43,146.75-47.85A193.23,193.23,0,0,0,850.49,830.6c67.79-73.78,67.48-188.9-.69-262.34a193.22,193.22,0,0,0-171.46-59.58c-55.5,8.52-111.62-11.15-151.32-50.85l-5.22-5.22c-39.21-39.21-58.62-94.71-50-149.49a193.26,193.26,0,0,0-54.16-167.19C340,58.31,212.33,60.54,137.59,142.64Z"/><path class="cls-16" d="M135.73,144.32c-67.38,74-66.6,189,1.73,262.12a193.31,193.31,0,0,0,172.67,58.89c55.59-9,112,10.51,151.84,50.33l4,4c40,40,57.31,96.73,48.84,152.66a195.13,195.13,0,0,0,.47,61.35c9.29,55.53-7.53,112.22-47.34,152l-6,6C422.15,931.48,365.72,951,310.12,942a193.3,193.3,0,0,0-177,63.72c-63,72.06-63.36,181-.76,253.46a193.24,193.24,0,0,0,174.74,65c53.94-7.87,108.52,9,147.07,47.53l13,13c38.54,38.54,55.39,93.11,47.52,147a193.26,193.26,0,0,0,60.26,170.46c73.22,67.55,187.54,68,261.21.89,82.1-74.74,84.34-202.45,6.71-280.08A193.41,193.41,0,0,0,673,1369.33c-55.31,9.51-111.71-9.8-151.4-49.49l-1.36-1.36c-40.24-40.24-59.86-97.33-50.49-153.45a195.4,195.4,0,0,0,.58-60.44c-8.11-55.14,9.07-111,48.48-150.38l13.37-13.37C570.61,902.37,625,885.41,678.9,893a193.23,193.23,0,0,0,169.73-60.7c67.79-73.78,67.48-188.91-.69-262.34a193.27,193.27,0,0,0-171.47-59.59c-55.49,8.53-111.61-11.14-151.31-50.84l-5.22-5.22c-39.21-39.22-58.62-94.71-50-149.49A193.26,193.26,0,0,0,415.8,137.61C338.18,60,210.47,62.22,135.73,144.32Z"/><path class="cls-17" d="M133.87,146c-67.38,74-66.6,189,1.73,262.12A193.29,193.29,0,0,0,308.26,467c55.59-9,112,10.5,151.85,50.33l4,4c40,40,57.31,96.73,48.84,152.66a195.13,195.13,0,0,0,.47,61.35c9.29,55.53-7.53,112.22-47.35,152l-5.95,6c-39.83,39.83-96.27,59.36-151.87,50.34a193.32,193.32,0,0,0-177,63.73c-63,72.05-63.36,181-.76,253.46a193.24,193.24,0,0,0,174.74,65.05c53.94-7.87,108.52,9,147.06,47.53l13,13c38.54,38.54,55.39,93.12,47.52,147A193.23,193.23,0,0,0,573.05,1704c73.23,67.55,187.55,68,261.22.89,82.1-74.74,84.34-202.45,6.71-280.07A193.4,193.4,0,0,0,671.1,1371c-55.32,9.52-111.71-9.79-151.4-49.48l-1.37-1.37c-40.23-40.23-59.85-97.32-50.49-153.45a194.78,194.78,0,0,0,.58-60.44c-8.1-55.14,9.08-111,48.49-150.37l13.37-13.37c38.47-38.47,92.88-55.44,146.75-47.86A193.26,193.26,0,0,0,846.77,834c67.79-73.79,67.47-188.91-.69-262.34A193.22,193.22,0,0,0,674.61,512C619.12,520.55,563,500.88,523.3,461.18L518.08,456c-39.22-39.21-58.62-94.71-50-149.48a193.31,193.31,0,0,0-54.17-167.2C336.32,61.66,208.61,63.9,133.87,146Z"/><path class="cls-18" d="M132,147.67c-67.38,74-66.59,189,1.73,262.12A193.32,193.32,0,0,0,306.4,468.68c55.59-9,112,10.51,151.84,50.33l4,4c40,40,57.31,96.73,48.85,152.67a195.07,195.07,0,0,0,.47,61.34c9.29,55.54-7.54,112.22-47.35,152l-5.95,6c-39.83,39.83-96.27,59.35-151.87,50.34a193.28,193.28,0,0,0-177,63.72c-63,72.06-63.37,181-.76,253.46a193.25,193.25,0,0,0,174.74,65.06c53.93-7.88,108.52,9,147.06,47.52l13,13c38.54,38.54,55.4,93.12,47.53,147.05a193.21,193.21,0,0,0,60.25,170.46c73.23,67.55,187.54,67.95,261.21.89,82.11-74.74,84.34-202.45,6.72-280.08a193.43,193.43,0,0,0-169.88-53.76c-55.32,9.52-111.71-9.79-151.4-49.48l-1.37-1.37c-40.23-40.24-59.85-97.32-50.49-153.45a195.09,195.09,0,0,0,.58-60.44c-8.11-55.14,9.08-111,48.48-150.37l13.38-13.38c38.47-38.47,92.88-55.43,146.75-47.86a193.23,193.23,0,0,0,169.73-60.7c67.79-73.78,67.48-188.9-.68-262.34a193.24,193.24,0,0,0-171.47-59.58c-55.49,8.52-111.62-11.15-151.31-50.85l-5.23-5.22c-39.21-39.21-58.62-94.71-50-149.49A193.3,193.3,0,0,0,412.08,141C334.45,63.33,206.74,65.57,132,147.67Z"/><path class="cls-19" d="M130.14,149.35c-67.38,74-66.59,189,1.73,262.12a193.31,193.31,0,0,0,172.67,58.89c55.59-9,112,10.51,151.84,50.33l4,4c40,40,57.31,96.73,48.84,152.66a195.13,195.13,0,0,0,.48,61.35c9.28,55.53-7.54,112.22-47.35,152l-6,6C416.57,936.51,360.13,956,304.53,947a193.31,193.31,0,0,0-177,63.72c-63,72.06-63.36,181-.75,253.46a193.23,193.23,0,0,0,174.74,65c53.93-7.87,108.52,9,147.06,47.53l13,13c38.54,38.53,55.4,93.11,47.52,147a193.27,193.27,0,0,0,60.26,170.47c73.23,67.54,187.54,68,261.21.88,82.1-74.73,84.34-202.44,6.72-280.07a193.43,193.43,0,0,0-169.88-53.76c-55.32,9.51-111.72-9.8-151.41-49.49l-1.36-1.36c-40.24-40.24-59.85-97.33-50.49-153.45a195.46,195.46,0,0,0,.58-60.45c-8.11-55.13,9.07-111,48.48-150.37l13.38-13.37C565,907.4,619.43,890.44,673.31,898A193.23,193.23,0,0,0,843,837.31c67.79-73.78,67.48-188.91-.69-262.34a193.26,193.26,0,0,0-171.47-59.59c-55.49,8.52-111.61-11.15-151.31-50.84l-5.22-5.22c-39.21-39.22-58.62-94.71-50-149.49a193.25,193.25,0,0,0-54.16-167.19C332.59,65,204.88,67.25,130.14,149.35Z"/><path class="cls-20" d="M128.28,151C60.9,225,61.68,340,130,413.14A193.25,193.25,0,0,0,302.67,472c55.6-9,112,10.51,151.85,50.33l4,4c40,40,57.31,96.74,48.84,152.67a195.07,195.07,0,0,0,.47,61.34c9.29,55.54-7.53,112.22-47.34,152l-6,6c-39.83,39.83-96.26,59.35-151.86,50.34a193.28,193.28,0,0,0-177,63.73c-63,72.05-63.36,181-.76,253.45a193.22,193.22,0,0,0,174.74,65.06c53.94-7.87,108.52,9,147.07,47.53l13,13c38.54,38.54,55.39,93.12,47.52,147A193.21,193.21,0,0,0,567.47,1709c73.22,67.55,187.54,68,261.21.89,82.1-74.74,84.34-202.45,6.71-280.07A193.39,193.39,0,0,0,665.51,1376c-55.32,9.52-111.71-9.79-151.4-49.48l-1.37-1.37c-40.23-40.23-59.85-97.32-50.48-153.45a195.39,195.39,0,0,0,.58-60.44c-8.11-55.14,9.07-111,48.48-150.37l13.37-13.38c38.47-38.46,92.88-55.43,146.76-47.85A193.25,193.25,0,0,0,841.18,839c67.79-73.79,67.48-188.91-.69-262.35A193.24,193.24,0,0,0,669,517.06c-55.49,8.52-111.61-11.15-151.31-50.85L512.49,461c-39.21-39.21-58.62-94.71-50-149.48a193.28,193.28,0,0,0-54.17-167.2C330.73,66.69,203,68.93,128.28,151Z"/><path class="cls-21" d="M126.42,152.7c-67.38,74-66.6,189,1.73,262.12a193.29,193.29,0,0,0,172.66,58.89c55.59-9,112,10.51,151.84,50.33l4,4c40,40,57.31,96.73,48.84,152.67a195.07,195.07,0,0,0,.47,61.34c9.29,55.54-7.53,112.22-47.35,152l-5.95,6c-39.83,39.83-96.27,59.35-151.87,50.34a193.29,193.29,0,0,0-177,63.72c-63,72.06-63.37,181-.76,253.46a193.27,193.27,0,0,0,174.74,65.06c53.94-7.88,108.52,9,147.06,47.52l13,13c38.54,38.54,55.39,93.12,47.52,147a193.22,193.22,0,0,0,60.25,170.46c73.23,67.55,187.54,67.95,261.22.89,82.1-74.74,84.34-202.45,6.71-280.08a193.42,193.42,0,0,0-169.88-53.76c-55.32,9.51-111.71-9.79-151.4-49.49l-1.37-1.36c-40.23-40.24-59.85-97.33-50.49-153.45A194.78,194.78,0,0,0,461,1113c-8.1-55.14,9.08-111,48.49-150.37l13.37-13.38c38.47-38.47,92.88-55.43,146.75-47.86a193.24,193.24,0,0,0,169.74-60.7c67.79-73.78,67.47-188.9-.69-262.34a193.27,193.27,0,0,0-171.47-59.59c-55.49,8.53-111.61-11.14-151.31-50.84l-5.22-5.22c-39.22-39.22-58.62-94.71-50-149.49A193.29,193.29,0,0,0,406.49,146C328.86,68.36,201.15,70.6,126.42,152.7Z"/><path class="cls-22" d="M124.55,154.38c-67.38,74-66.59,189,1.73,262.12A193.31,193.31,0,0,0,299,475.39c55.59-9,112,10.51,151.84,50.33l4,4c40,40,57.31,96.73,48.85,152.66a194.84,194.84,0,0,0,.47,61.35c9.28,55.53-7.54,112.22-47.35,152l-5.95,6c-39.83,39.83-96.27,59.36-151.87,50.35a193.28,193.28,0,0,0-177,63.72c-63,72-63.37,181-.76,253.46a193.24,193.24,0,0,0,174.74,65c53.93-7.87,108.52,9,147.06,47.53l13,13c38.54,38.54,55.4,93.12,47.53,147a193.2,193.2,0,0,0,60.25,170.46c73.23,67.55,187.54,68,261.21.89,82.11-74.74,84.34-202.45,6.72-280.07a193.4,193.4,0,0,0-169.88-53.76c-55.32,9.51-111.71-9.8-151.4-49.49l-1.37-1.37c-40.24-40.23-59.85-97.32-50.49-153.45a195.08,195.08,0,0,0,.58-60.44c-8.11-55.13,9.08-111,48.48-150.37L521,950.9c38.47-38.47,92.88-55.44,146.75-47.86a193.25,193.25,0,0,0,169.73-60.7c67.79-73.79,67.48-188.91-.69-262.34A193.22,193.22,0,0,0,665.3,520.41c-55.49,8.52-111.62-11.15-151.32-50.85l-5.22-5.22c-39.21-39.21-58.62-94.71-50-149.48a193.25,193.25,0,0,0-54.16-167.19C327,70,199.29,72.28,124.55,154.38Z"/><path class="cls-23" d="M122.69,156.05c-67.38,74-66.59,189,1.73,262.12a193.26,193.26,0,0,0,172.67,58.89c55.59-9,112,10.51,151.84,50.33l4,4c40,40,57.31,96.73,48.84,152.67a195.07,195.07,0,0,0,.47,61.34c9.29,55.54-7.53,112.22-47.34,152l-6,5.95c-39.82,39.83-96.26,59.35-151.86,50.34a193.3,193.3,0,0,0-177,63.72c-63,72.06-63.36,181-.76,253.46A193.23,193.23,0,0,0,294,1336c53.93-7.87,108.51,9,147.06,47.53l13,13c38.54,38.54,55.4,93.12,47.52,147A193.24,193.24,0,0,0,561.88,1714c73.22,67.55,187.54,68,261.21.89,82.1-74.74,84.34-202.45,6.71-280.07a193.38,193.38,0,0,0-169.87-53.77c-55.32,9.52-111.72-9.79-151.41-49.48l-1.36-1.37c-40.24-40.23-59.85-97.32-50.49-153.45a195.39,195.39,0,0,0,.58-60.44c-8.11-55.14,9.07-111,48.48-150.37l13.37-13.38c38.47-38.47,92.88-55.43,146.76-47.85A193.23,193.23,0,0,0,835.59,844c67.79-73.78,67.48-188.9-.69-262.34a193.23,193.23,0,0,0-171.47-59.58c-55.49,8.52-111.61-11.15-151.31-50.85L506.9,466c-39.21-39.21-58.62-94.71-50-149.49a193.26,193.26,0,0,0-54.16-167.19C325.14,71.72,197.43,74,122.69,156.05Z"/><path class="cls-24" d="M120.83,157.73c-67.38,74-66.6,189,1.73,262.12a193.29,193.29,0,0,0,172.66,58.89c55.59-9,112,10.51,151.85,50.33l4,4c40,40,57.31,96.73,48.84,152.66a195.13,195.13,0,0,0,.47,61.35c9.29,55.53-7.53,112.22-47.35,152l-5.95,6c-39.83,39.82-96.27,59.35-151.87,50.34a193.29,193.29,0,0,0-177,63.72c-63,72.06-63.36,181-.76,253.46a193.24,193.24,0,0,0,174.74,65.05c53.94-7.87,108.52,9,147.06,47.53l13,13c38.54,38.54,55.39,93.12,47.52,147A193.23,193.23,0,0,0,560,1715.69c73.22,67.55,187.54,68,261.21.89,82.1-74.74,84.34-202.45,6.71-280.08a193.41,193.41,0,0,0-169.88-53.76c-55.32,9.51-111.71-9.79-151.4-49.49l-1.37-1.36c-40.23-40.24-59.85-97.33-50.49-153.45a194.78,194.78,0,0,0,.58-60.44c-8.1-55.14,9.08-111,48.49-150.38l13.37-13.37c38.47-38.47,92.88-55.43,146.75-47.86a193.24,193.24,0,0,0,169.74-60.7c67.79-73.78,67.47-188.91-.69-262.34a193.27,193.27,0,0,0-171.47-59.59c-55.49,8.53-111.61-11.14-151.31-50.84L505,467.7c-39.21-39.22-58.62-94.71-50-149.49A193.26,193.26,0,0,0,400.9,151C323.28,73.39,195.57,75.63,120.83,157.73Z"/><path class="cls-25" d="M119,159.41c-67.38,74-66.6,189,1.72,262.12a193.32,193.32,0,0,0,172.67,58.89c55.59-9,112,10.5,151.84,50.33l4,4c40,40,57.31,96.73,48.85,152.66a195.13,195.13,0,0,0,.47,61.35c9.29,55.53-7.53,112.22-47.35,152l-5.95,6C405.39,946.57,349,966.1,293.35,957.08a193.32,193.32,0,0,0-177,63.73c-63,72-63.37,181-.76,253.46a193.24,193.24,0,0,0,174.74,65c53.94-7.87,108.52,9,147.06,47.53l13,13c38.53,38.54,55.39,93.12,47.52,147.05a193.2,193.2,0,0,0,60.25,170.46c73.23,67.55,187.54,68,261.22.89,82.1-74.74,84.33-202.45,6.71-280.07a193.41,193.41,0,0,0-169.88-53.77c-55.32,9.52-111.71-9.79-151.4-49.48l-1.37-1.37c-40.23-40.23-59.85-97.32-50.49-153.45a194.78,194.78,0,0,0,.58-60.44c-8.11-55.14,9.08-111,48.48-150.37l13.38-13.37c38.47-38.47,92.88-55.44,146.75-47.86a193.28,193.28,0,0,0,169.74-60.7c67.78-73.79,67.47-188.91-.69-262.34a193.22,193.22,0,0,0-171.47-59.59C604.22,534,548.09,514.29,508.4,474.59l-5.22-5.22c-39.22-39.21-58.63-94.71-50-149.48A193.31,193.31,0,0,0,399,152.69C321.41,75.07,193.7,77.31,119,159.41Z"/><path class="cls-26" d="M117.1,161.08c-67.38,74-66.59,189,1.73,262.12A193.29,193.29,0,0,0,291.5,482.09c55.59-9,112,10.51,151.84,50.33l4,4c40,40,57.31,96.73,48.84,152.67a195.07,195.07,0,0,0,.48,61.34c9.28,55.54-7.54,112.22-47.35,152l-6,5.95c-39.82,39.83-96.26,59.35-151.86,50.34a193.28,193.28,0,0,0-177,63.72c-63,72.06-63.37,181-.76,253.46A193.24,193.24,0,0,0,288.45,1341c53.93-7.87,108.52,9,147.06,47.53l13,13c38.54,38.54,55.4,93.12,47.53,147A193.21,193.21,0,0,0,556.29,1719c73.23,67.55,187.54,68,261.21.89,82.11-74.74,84.34-202.45,6.72-280.08a193.43,193.43,0,0,0-169.88-53.76c-55.32,9.52-111.71-9.79-151.41-49.48l-1.36-1.37c-40.24-40.23-59.85-97.32-50.49-153.45a195.09,195.09,0,0,0,.58-60.44c-8.11-55.14,9.07-111,48.48-150.37l13.38-13.38c38.47-38.47,92.87-55.43,146.75-47.86A193.23,193.23,0,0,0,830,849c67.79-73.78,67.48-188.9-.69-262.34a193.21,193.21,0,0,0-171.46-59.58c-55.5,8.52-111.62-11.15-151.32-50.85l-5.22-5.22c-39.21-39.21-58.62-94.71-50-149.49a193.26,193.26,0,0,0-54.16-167.19C319.55,76.74,191.84,79,117.1,161.08Z"/><path class="cls-27" d="M115.24,162.76c-67.38,74-66.6,189,1.73,262.12a193.31,193.31,0,0,0,172.67,58.89c55.59-9,112,10.51,151.84,50.33l4,4c40,40,57.31,96.73,48.84,152.66a195.13,195.13,0,0,0,.47,61.35c9.29,55.53-7.53,112.22-47.34,152l-6,6c-39.83,39.82-96.26,59.35-151.86,50.34a193.3,193.3,0,0,0-177,63.72c-63,72.06-63.36,181-.76,253.46a193.24,193.24,0,0,0,174.74,65.05c53.94-7.87,108.52,9,147.07,47.53l13,13c38.54,38.53,55.39,93.11,47.52,147a193.27,193.27,0,0,0,60.26,170.47c73.22,67.55,187.54,68,261.21.89,82.1-74.74,84.34-202.45,6.71-280.08a193.4,193.4,0,0,0-169.87-53.76c-55.32,9.51-111.72-9.8-151.41-49.49l-1.36-1.36c-40.24-40.24-59.86-97.33-50.49-153.45a195.46,195.46,0,0,0,.58-60.45c-8.11-55.13,9.07-111,48.48-150.37l13.37-13.37c38.47-38.47,92.88-55.43,146.76-47.86a193.23,193.23,0,0,0,169.73-60.7c67.79-73.78,67.48-188.91-.69-262.34A193.27,193.27,0,0,0,656,528.79c-55.49,8.52-111.61-11.15-151.31-50.84l-5.22-5.22c-39.21-39.22-58.62-94.71-50-149.49a193.26,193.26,0,0,0-54.17-167.19C317.69,78.42,190,80.66,115.24,162.76Z"/><path class="cls-28" d="M113.38,164.44c-67.38,74-66.6,189,1.73,262.11a193.24,193.24,0,0,0,172.66,58.89c55.59-9,112,10.51,151.85,50.33l4,4c40,40,57.31,96.73,48.84,152.66a195.07,195.07,0,0,0,.47,61.34c9.29,55.54-7.53,112.22-47.35,152l-5.95,5.95c-39.83,39.83-96.27,59.35-151.87,50.34a193.28,193.28,0,0,0-177,63.73c-63,72.05-63.36,181-.76,253.45a193.22,193.22,0,0,0,174.74,65.06c53.94-7.87,108.52,9,147.06,47.53l13,13c38.54,38.54,55.39,93.12,47.52,147a193.23,193.23,0,0,0,60.25,170.46c73.23,67.55,187.55,67.95,261.22.89,82.1-74.74,84.34-202.45,6.71-280.07a193.4,193.4,0,0,0-169.88-53.77c-55.32,9.52-111.71-9.79-151.4-49.48l-1.37-1.37c-40.23-40.23-59.85-97.32-50.49-153.45a194.78,194.78,0,0,0,.58-60.44c-8.1-55.14,9.08-111,48.49-150.37L509.79,961c38.47-38.46,92.88-55.43,146.75-47.85a193.26,193.26,0,0,0,169.74-60.7c67.79-73.79,67.47-188.91-.69-262.35a193.24,193.24,0,0,0-171.47-59.58c-55.49,8.52-111.61-11.15-151.31-50.85l-5.22-5.22c-39.22-39.21-58.62-94.71-50-149.48a193.31,193.31,0,0,0-54.17-167.2C315.83,80.1,188.12,82.34,113.38,164.44Z"/><path class="cls-29" d="M111.51,166.11c-67.38,74-66.59,189,1.73,262.12a193.32,193.32,0,0,0,172.67,58.89c55.59-9,112,10.51,151.84,50.33l4,4c40,40,57.31,96.73,48.85,152.67a195.07,195.07,0,0,0,.47,61.34c9.29,55.54-7.54,112.22-47.35,152l-6,6c-39.83,39.83-96.27,59.35-151.87,50.34a193.28,193.28,0,0,0-177,63.72c-63,72.06-63.37,181-.76,253.46A193.27,193.27,0,0,0,282.86,1346c53.93-7.88,108.52,9,147.06,47.52l13,13c38.54,38.54,55.4,93.12,47.53,147a193.22,193.22,0,0,0,60.25,170.46c73.23,67.55,187.54,68,261.21.89,82.11-74.74,84.34-202.45,6.72-280.08a193.43,193.43,0,0,0-169.88-53.76c-55.32,9.51-111.71-9.79-151.4-49.48l-1.37-1.37c-40.23-40.24-59.85-97.33-50.49-153.45a195.09,195.09,0,0,0,.58-60.44c-8.11-55.14,9.08-111,48.48-150.37l13.38-13.38c38.47-38.47,92.88-55.43,146.75-47.86a193.23,193.23,0,0,0,169.73-60.7c67.79-73.78,67.48-188.9-.68-262.34a193.27,193.27,0,0,0-171.47-59.59C596.77,540.67,540.64,521,501,481.3l-5.23-5.22c-39.21-39.22-58.62-94.71-50-149.49A193.29,193.29,0,0,0,391.59,159.4C314,81.77,186.25,84,111.51,166.11Z"/><path class="cls-30" d="M109.65,167.79c-67.38,74-66.59,189,1.73,262.12A193.31,193.31,0,0,0,284.05,488.8c55.59-9,112,10.51,151.84,50.33l4,4c40,40,57.31,96.73,48.84,152.66a195.13,195.13,0,0,0,.48,61.35c9.28,55.53-7.54,112.22-47.35,152l-6,6C396.08,955,339.64,974.48,284,965.47a193.31,193.31,0,0,0-177,63.72c-63,72-63.36,181-.75,253.46a193.23,193.23,0,0,0,174.74,65c53.93-7.87,108.52,9,147.06,47.53l13,13c38.54,38.54,55.4,93.12,47.52,147a193.24,193.24,0,0,0,60.26,170.46c73.23,67.55,187.54,68,261.21.89,82.1-74.73,84.34-202.45,6.72-280.07a193.4,193.4,0,0,0-169.88-53.76c-55.32,9.51-111.72-9.8-151.41-49.49l-1.36-1.37c-40.24-40.23-59.85-97.32-50.49-153.44a195.46,195.46,0,0,0,.58-60.45c-8.11-55.13,9.07-111,48.48-150.37l13.38-13.37c38.47-38.47,92.87-55.43,146.75-47.86a193.25,193.25,0,0,0,169.73-60.7C890.34,782,890,666.84,821.86,593.41a193.23,193.23,0,0,0-171.47-59.59C594.9,542.34,538.78,522.67,499.08,483l-5.22-5.22c-39.21-39.21-58.62-94.71-50-149.48a193.25,193.25,0,0,0-54.16-167.19C312.1,83.45,184.39,85.69,109.65,167.79Z"/><path class="cls-31" d="M107.79,169.47c-67.38,74-66.6,189,1.73,262.11a193.25,193.25,0,0,0,172.66,58.89c55.6-9,112,10.51,151.85,50.33l4,4c40,40,57.31,96.74,48.84,152.67a195.07,195.07,0,0,0,.47,61.34c9.29,55.54-7.53,112.22-47.34,152l-6,5.95c-39.83,39.83-96.26,59.35-151.86,50.34a193.3,193.3,0,0,0-177,63.72c-63,72.06-63.36,181-.76,253.46a193.22,193.22,0,0,0,174.74,65.06c53.94-7.87,108.52,9,147.07,47.53l13,13c38.54,38.54,55.39,93.12,47.52,147A193.24,193.24,0,0,0,547,1727.42c73.22,67.55,187.54,67.95,261.21.89,82.1-74.74,84.34-202.45,6.71-280.07A193.39,193.39,0,0,0,645,1394.47c-55.32,9.52-111.71-9.79-151.4-49.48l-1.37-1.37c-40.23-40.23-59.85-97.32-50.48-153.45a195.39,195.39,0,0,0,.58-60.44c-8.11-55.14,9.07-111,48.48-150.37L504.2,966c38.47-38.47,92.88-55.43,146.76-47.85a193.23,193.23,0,0,0,169.73-60.71c67.79-73.78,67.48-188.9-.69-262.34A193.24,193.24,0,0,0,648.53,535.5C593,544,536.92,524.35,497.22,484.65L492,479.43c-39.21-39.21-58.62-94.71-50-149.49a193.27,193.27,0,0,0-54.17-167.19C310.24,85.13,182.53,87.36,107.79,169.47Z"/><path class="cls-32" d="M105.93,171.14c-67.38,74-66.6,189,1.73,262.12a193.29,193.29,0,0,0,172.66,58.89c55.59-9,112,10.51,151.84,50.33l4,4c40,40,57.31,96.73,48.84,152.66a195.13,195.13,0,0,0,.47,61.35c9.29,55.53-7.53,112.22-47.35,152l-5.95,6c-39.83,39.82-96.27,59.35-151.87,50.34a193.29,193.29,0,0,0-177,63.72c-63,72.06-63.36,181-.76,253.46a193.24,193.24,0,0,0,174.74,65c53.94-7.87,108.52,9,147.06,47.53l13,13c38.54,38.54,55.39,93.12,47.52,147.05a193.22,193.22,0,0,0,60.25,170.46c73.23,67.55,187.55,68,261.22.89,82.1-74.74,84.34-202.45,6.71-280.08a193.42,193.42,0,0,0-169.88-53.76c-55.32,9.51-111.71-9.79-151.4-49.49l-1.37-1.36c-40.23-40.24-59.85-97.33-50.49-153.45a194.78,194.78,0,0,0,.58-60.44c-8.1-55.14,9.08-111,48.49-150.38l13.37-13.37c38.47-38.47,92.88-55.43,146.75-47.86a193.24,193.24,0,0,0,169.74-60.7c67.79-73.78,67.47-188.91-.69-262.34a193.27,193.27,0,0,0-171.47-59.59C591.18,545.7,535.06,526,495.36,486.33l-5.22-5.22c-39.22-39.22-58.62-94.71-50-149.49A193.29,193.29,0,0,0,386,164.43C308.37,86.8,180.66,89,105.93,171.14Z"/><path class="cls-33" d="M104.06,172.82c-67.38,74-66.59,189,1.73,262.12a193.31,193.31,0,0,0,172.67,58.89c55.59-9,112,10.5,151.84,50.33l4,4c40,40,57.31,96.73,48.85,152.66a194.84,194.84,0,0,0,.47,61.35c9.28,55.53-7.54,112.22-47.35,152l-5.95,5.95c-39.83,39.83-96.27,59.36-151.87,50.34a193.32,193.32,0,0,0-177,63.73c-63,72-63.37,181-.76,253.46a193.24,193.24,0,0,0,174.74,65c53.93-7.87,108.52,9,147.06,47.53l13,13c38.54,38.54,55.4,93.12,47.53,147a193.2,193.2,0,0,0,60.25,170.46c73.23,67.55,187.54,68,261.21.89,82.11-74.74,84.34-202.45,6.72-280.07a193.41,193.41,0,0,0-169.88-53.77c-55.32,9.52-111.71-9.79-151.4-49.48l-1.37-1.37c-40.24-40.23-59.85-97.32-50.49-153.45a195.08,195.08,0,0,0,.58-60.44c-8.11-55.14,9.08-111,48.48-150.37l13.38-13.37c38.47-38.47,92.88-55.44,146.75-47.86A193.25,193.25,0,0,0,817,860.78c67.79-73.79,67.48-188.91-.69-262.34a193.22,193.22,0,0,0-171.46-59.59C589.32,547.37,533.19,527.7,493.49,488l-5.22-5.22c-39.21-39.21-58.62-94.71-50-149.48a193.27,193.27,0,0,0-54.16-167.2C306.51,88.48,178.8,90.72,104.06,172.82Z"/><path class="cls-34" d="M102.2,174.49c-67.38,74-66.59,189,1.73,262.12A193.29,193.29,0,0,0,276.6,495.5c55.59-9,112,10.51,151.84,50.33l4,4c40,40,57.31,96.73,48.84,152.67a195.37,195.37,0,0,0,.47,61.34c9.29,55.54-7.53,112.22-47.34,152l-6,6c-39.82,39.83-96.26,59.35-151.86,50.34a193.31,193.31,0,0,0-177,63.72c-63,72.06-63.36,181-.76,253.46a193.26,193.26,0,0,0,174.75,65.06c53.93-7.87,108.51,9,147.06,47.53l13,13c38.54,38.54,55.4,93.12,47.52,147a193.25,193.25,0,0,0,60.26,170.46c73.22,67.55,187.54,68,261.21.89,82.1-74.74,84.34-202.45,6.71-280.08a193.4,193.4,0,0,0-169.87-53.76C584.12,1409,527.72,1389.71,488,1350l-1.36-1.37c-40.24-40.23-59.85-97.32-50.49-153.45a195.39,195.39,0,0,0,.58-60.44c-8.11-55.14,9.07-111,48.48-150.37L498.61,971c38.47-38.47,92.88-55.43,146.76-47.86a193.2,193.2,0,0,0,169.73-60.7c67.79-73.78,67.48-188.9-.69-262.34a193.23,193.23,0,0,0-171.47-59.58c-55.49,8.52-111.61-11.15-151.31-50.85l-5.22-5.22c-39.21-39.21-58.62-94.71-50-149.49a193.26,193.26,0,0,0-54.16-167.19C304.65,90.15,176.94,92.39,102.2,174.49Z"/><path class="cls-35" d="M100.34,176.17c-67.38,74-66.6,189,1.73,262.12a193.29,193.29,0,0,0,172.66,58.89c55.59-9,112,10.51,151.85,50.33l4,4c40,40,57.31,96.73,48.84,152.66a195.13,195.13,0,0,0,.47,61.35c9.29,55.53-7.53,112.22-47.35,152l-6,6c-39.83,39.82-96.27,59.35-151.87,50.34a193.29,193.29,0,0,0-177,63.72c-63,72.06-63.36,181-.76,253.46a193.24,193.24,0,0,0,174.74,65c53.94-7.87,108.52,9,147.06,47.53l13,13c38.54,38.53,55.39,93.11,47.52,147a193.24,193.24,0,0,0,60.26,170.47c73.22,67.55,187.54,67.95,261.21.89,82.1-74.74,84.34-202.45,6.71-280.08a193.41,193.41,0,0,0-169.88-53.76c-55.32,9.51-111.71-9.8-151.4-49.49l-1.37-1.36c-40.23-40.24-59.85-97.33-50.49-153.45a194.84,194.84,0,0,0,.58-60.45c-8.1-55.13,9.08-111,48.49-150.37l13.37-13.37c38.47-38.47,92.88-55.43,146.75-47.86a193.24,193.24,0,0,0,169.74-60.7c67.79-73.78,67.47-188.91-.69-262.34A193.27,193.27,0,0,0,641.08,542.2c-55.49,8.52-111.61-11.15-151.31-50.84l-5.22-5.22c-39.21-39.22-58.62-94.71-50-149.49a193.26,193.26,0,0,0-54.17-167.19C302.79,91.83,175.08,94.07,100.34,176.17Z"/><path class="cls-36" d="M98.48,177.85c-67.38,74-66.6,189,1.72,262.12a193.29,193.29,0,0,0,172.67,58.88c55.59-9,112,10.51,151.84,50.33l4,4c40,40,57.31,96.73,48.85,152.66A195.13,195.13,0,0,0,478,767.2c9.29,55.53-7.53,112.21-47.35,152l-5.95,5.95C384.9,965,328.46,984.53,272.86,975.52a193.29,193.29,0,0,0-177,63.73c-63,72-63.37,181-.76,253.45a193.22,193.22,0,0,0,174.74,65.06c53.94-7.87,108.52,9,147.06,47.53l13,13c38.53,38.54,55.39,93.12,47.52,147a193.2,193.2,0,0,0,60.25,170.46c73.23,67.55,187.54,68,261.22.89,82.1-74.74,84.33-202.45,6.71-280.07a193.41,193.41,0,0,0-169.88-53.77c-55.32,9.52-111.71-9.79-151.4-49.48l-1.37-1.37c-40.23-40.23-59.85-97.32-50.49-153.45a194.78,194.78,0,0,0,.58-60.44c-8.11-55.14,9.08-111,48.48-150.37l13.38-13.37c38.47-38.47,92.88-55.44,146.75-47.86a193.28,193.28,0,0,0,169.74-60.7c67.78-73.79,67.47-188.91-.69-262.35a193.24,193.24,0,0,0-171.47-59.58C583.73,552.4,527.6,532.73,487.91,493l-5.22-5.22c-39.22-39.21-58.63-94.71-50-149.48a193.31,193.31,0,0,0-54.17-167.2C300.92,93.51,173.21,95.75,98.48,177.85Z"/><path class="cls-37" d="M96.61,179.52c-67.38,74-66.59,189,1.73,262.12A193.31,193.31,0,0,0,271,500.53c55.59-9,112,10.51,151.84,50.33l4,4c40,40,57.31,96.73,48.84,152.67a195.07,195.07,0,0,0,.48,61.34c9.28,55.54-7.54,112.22-47.35,152l-6,6C383,966.69,326.6,986.21,271,977.2a193.28,193.28,0,0,0-177,63.72c-63,72.06-63.37,181-.76,253.46A193.26,193.26,0,0,0,268,1359.44c53.93-7.88,108.52,9,147.06,47.52l13,13c38.54,38.54,55.4,93.12,47.53,147a193.22,193.22,0,0,0,60.25,170.46c73.23,67.55,187.54,68,261.21.89,82.11-74.74,84.34-202.45,6.72-280.08a193.43,193.43,0,0,0-169.88-53.76c-55.32,9.51-111.71-9.79-151.41-49.48l-1.36-1.37c-40.24-40.24-59.85-97.33-50.49-153.45a195.09,195.09,0,0,0,.58-60.44c-8.11-55.14,9.07-111,48.48-150.37L493,976c38.47-38.47,92.87-55.43,146.75-47.86a193.23,193.23,0,0,0,169.73-60.7c67.79-73.78,67.48-188.9-.69-262.34a193.21,193.21,0,0,0-171.46-59.58c-55.5,8.52-111.62-11.15-151.32-50.85l-5.22-5.22c-39.21-39.21-58.62-94.71-50-149.49a193.25,193.25,0,0,0-54.16-167.19C299.06,95.18,171.35,97.42,96.61,179.52Z"/><path class="cls-38" d="M94.75,181.2c-67.38,74-66.59,189,1.73,262.12a193.31,193.31,0,0,0,172.67,58.89c55.59-9,112,10.51,151.84,50.33l4,4c40,40,57.31,96.73,48.84,152.66a195.13,195.13,0,0,0,.47,61.35c9.29,55.53-7.53,112.22-47.34,152l-6,5.95c-39.83,39.83-96.26,59.36-151.86,50.35a193.3,193.3,0,0,0-177,63.72c-63,72.05-63.36,181-.76,253.46a193.24,193.24,0,0,0,174.74,65c53.94-7.87,108.52,9,147.07,47.53l13,13c38.54,38.54,55.4,93.12,47.52,147a193.24,193.24,0,0,0,60.26,170.46c73.22,67.55,187.54,68,261.21.89,82.1-74.73,84.34-202.45,6.71-280.07A193.37,193.37,0,0,0,632,1406.21c-55.32,9.51-111.72-9.8-151.41-49.49l-1.36-1.36c-40.24-40.24-59.86-97.33-50.49-153.45a195.46,195.46,0,0,0,.58-60.45c-8.11-55.13,9.07-111,48.48-150.37l13.37-13.37c38.47-38.47,92.88-55.43,146.76-47.86a193.25,193.25,0,0,0,169.73-60.7c67.79-73.78,67.48-188.91-.69-262.34a193.24,193.24,0,0,0-171.47-59.59c-55.49,8.52-111.61-11.15-151.31-50.84L479,491.16c-39.21-39.21-58.62-94.7-50-149.48a193.26,193.26,0,0,0-54.17-167.19C297.2,96.86,169.49,99.1,94.75,181.2Z"/></g><path class="cls-39" d="M101.76,181.2c-67.38,74-66.59,189,1.73,262.12a193.31,193.31,0,0,0,172.67,58.89c55.59-9,112,10.51,151.84,50.33l4,4c40,40,57.31,96.73,48.84,152.66a195.13,195.13,0,0,0,.48,61.35c9.28,55.53-7.54,112.22-47.35,152l-6,5.95c-39.82,39.83-96.26,59.36-151.86,50.35a193.28,193.28,0,0,0-177,63.72c-63,72.05-63.37,181-.76,253.46a193.23,193.23,0,0,0,174.74,65c53.93-7.87,108.52,9,147.06,47.53l13,13c38.54,38.54,55.4,93.12,47.53,147A193.2,193.2,0,0,0,541,1739.15c73.23,67.55,187.54,68,261.21.89,82.11-74.73,84.34-202.45,6.72-280.07A193.4,193.4,0,0,0,639,1406.21c-55.32,9.51-111.71-9.8-151.41-49.49l-1.36-1.36c-40.24-40.24-59.85-97.33-50.49-153.45a195.15,195.15,0,0,0,.58-60.45c-8.11-55.13,9.07-111,48.48-150.37l13.38-13.37c38.47-38.47,92.87-55.43,146.75-47.86a193.25,193.25,0,0,0,169.73-60.7c67.79-73.78,67.48-188.91-.69-262.34a193.22,193.22,0,0,0-171.46-59.59c-55.5,8.52-111.62-11.15-151.32-50.84L486,491.16c-39.21-39.21-58.62-94.7-50-149.48a193.25,193.25,0,0,0-54.16-167.19C304.21,96.86,176.5,99.1,101.76,181.2Z"/><path class="cls-2" d="M94.75,181.2c-67.38,74-66.59,189,1.73,262.12a193.31,193.31,0,0,0,172.67,58.89c55.59-9,112,10.51,151.84,50.33l4,4c40,40,57.31,96.73,48.84,152.66a195.13,195.13,0,0,0,.47,61.35c9.29,55.53-7.53,112.22-47.34,152l-6,5.95c-39.83,39.83-96.26,59.36-151.86,50.35a193.3,193.3,0,0,0-177,63.72c-63,72.05-63.36,181-.76,253.46a193.24,193.24,0,0,0,174.74,65c53.94-7.87,108.52,9,147.07,47.53l13,13c38.54,38.54,55.4,93.12,47.52,147a193.24,193.24,0,0,0,60.26,170.46c73.22,67.55,187.54,68,261.21.89,82.1-74.73,84.34-202.45,6.71-280.07A193.37,193.37,0,0,0,632,1406.21c-55.32,9.51-111.72-9.8-151.41-49.49l-1.36-1.36c-40.24-40.24-59.86-97.33-50.49-153.45a195.46,195.46,0,0,0,.58-60.45c-8.11-55.13,9.07-111,48.48-150.37l13.37-13.37c38.47-38.47,92.88-55.43,146.76-47.86a193.25,193.25,0,0,0,169.73-60.7c67.79-73.78,67.48-188.91-.69-262.34a193.24,193.24,0,0,0-171.47-59.59c-55.49,8.52-111.61-11.15-151.31-50.84L479,491.16c-39.21-39.21-58.62-94.7-50-149.48a193.26,193.26,0,0,0-54.17-167.19C297.2,96.86,169.49,99.1,94.75,181.2Z"/><g class="cls-3"><circle class="cls-4" cx="806.12" cy="1455.72" r="170.23"/><circle class="cls-40" cx="801.97" cy="1459.87" r="170.23"/><circle class="cls-41" cx="797.82" cy="1464.02" r="170.23"/><circle class="cls-42" cx="793.67" cy="1468.17" r="170.23"/><circle class="cls-43" cx="789.52" cy="1472.32" r="170.23"/><circle class="cls-44" cx="785.37" cy="1476.46" r="170.23"/><circle class="cls-45" cx="781.22" cy="1480.61" r="170.23"/><circle class="cls-46" cx="777.07" cy="1484.76" r="170.23"/><circle class="cls-47" cx="772.92" cy="1488.91" r="170.23"/><circle class="cls-48" cx="768.77" cy="1493.06" r="170.23"/><circle class="cls-49" cx="764.62" cy="1497.21" r="170.23"/><circle class="cls-50" cx="760.47" cy="1501.36" r="170.23"/><circle class="cls-51" cx="756.32" cy="1505.51" r="170.23"/><circle class="cls-52" cx="752.17" cy="1509.66" r="170.23"/><circle class="cls-53" cx="748.02" cy="1513.81" r="170.23"/><circle class="cls-54" cx="743.87" cy="1517.96" r="170.23"/><circle class="cls-55" cx="739.72" cy="1522.11" r="170.23"/><circle class="cls-56" cx="735.57" cy="1526.26" r="170.23"/><circle class="cls-57" cx="731.42" cy="1530.41" r="170.23"/><circle class="cls-58" cx="727.27" cy="1534.56" r="170.23"/><circle class="cls-59" cx="723.12" cy="1538.71" r="170.23"/><circle class="cls-60" cx="718.97" cy="1542.86" r="170.23"/><circle class="cls-61" cx="714.82" cy="1547.01" r="170.23"/><circle class="cls-62" cx="710.67" cy="1551.16" r="170.23"/><circle class="cls-63" cx="706.53" cy="1555.31" r="170.23"/><circle class="cls-64" cx="702.38" cy="1559.46" r="170.23"/><circle class="cls-65" cx="698.23" cy="1563.61" r="170.23"/><circle class="cls-66" cx="694.08" cy="1567.76" r="170.23"/><circle class="cls-67" cx="689.93" cy="1571.91" r="170.23"/><circle class="cls-68" cx="685.78" cy="1576.06" r="170.23"/><circle class="cls-69" cx="681.63" cy="1580.21" r="170.23"/><circle class="cls-70" cx="677.48" cy="1584.35" r="170.23"/><circle class="cls-71" cx="673.33" cy="1588.5" r="170.23"/><circle class="cls-72" cx="669.18" cy="1592.65" r="170.23"/><circle class="cls-73" cx="665.03" cy="1596.8" r="170.23"/></g><g class="cls-74"><circle class="cls-75" cx="743.91" cy="1535.71" r="201.68" transform="translate(-868.03 975.82) rotate(-45)"/><circle class="cls-76" cx="695.89" cy="1487.7" r="201.68"/><circle class="cls-77" cx="635.91" cy="1518.25" r="201.68" transform="translate(-887.31 894.34) rotate(-45)"/><circle class="cls-78" cx="753.76" cy="1559.39" r="201.68" transform="translate(-881.88 989.73) rotate(-45)"/><circle class="cls-79" cx="753.76" cy="1610.32" r="201.68" transform="translate(-917.89 1004.64) rotate(-45)"/></g><circle class="cls-80" cx="665.03" cy="1596.8" r="170.23"/><circle class="cls-81" cx="665.03" cy="1596.8" r="158.59" transform="translate(-934.33 937.94) rotate(-45)"/><g class="cls-3"><circle class="cls-4" cx="398.12" cy="1754.72" r="170.23"/><circle class="cls-40" cx="393.97" cy="1758.87" r="170.23"/><circle class="cls-41" cx="389.82" cy="1763.02" r="170.23"/><circle class="cls-42" cx="385.67" cy="1767.17" r="170.23"/><circle class="cls-43" cx="381.52" cy="1771.32" r="170.23"/><circle class="cls-44" cx="377.37" cy="1775.46" r="170.23"/><circle class="cls-45" cx="373.22" cy="1779.61" r="170.23"/><circle class="cls-46" cx="369.07" cy="1783.76" r="170.23"/><circle class="cls-47" cx="364.92" cy="1787.91" r="170.23"/><circle class="cls-48" cx="360.77" cy="1792.06" r="170.23"/><circle class="cls-49" cx="356.62" cy="1796.21" r="170.23"/><circle class="cls-50" cx="352.47" cy="1800.36" r="170.23"/><circle class="cls-51" cx="348.32" cy="1804.51" r="170.23"/><circle class="cls-52" cx="344.17" cy="1808.66" r="170.23"/><circle class="cls-53" cx="340.02" cy="1812.81" r="170.23"/><circle class="cls-54" cx="335.87" cy="1816.96" r="170.23"/><circle class="cls-55" cx="331.72" cy="1821.11" r="170.23"/><circle class="cls-56" cx="327.57" cy="1825.26" r="170.23"/><circle class="cls-57" cx="323.42" cy="1829.41" r="170.23"/><circle class="cls-58" cx="319.27" cy="1833.56" r="170.23"/><circle class="cls-59" cx="315.12" cy="1837.71" r="170.23"/><circle class="cls-60" cx="310.97" cy="1841.86" r="170.23"/><circle class="cls-61" cx="306.82" cy="1846.01" r="170.23"/><circle class="cls-62" cx="302.67" cy="1850.16" r="170.23"/><circle class="cls-63" cx="298.53" cy="1854.31" r="170.23"/><circle class="cls-64" cx="294.38" cy="1858.46" r="170.23"/><circle class="cls-65" cx="290.23" cy="1862.61" r="170.23"/><circle class="cls-66" cx="286.08" cy="1866.76" r="170.23"/><circle class="cls-67" cx="281.93" cy="1870.91" r="170.23"/><circle class="cls-68" cx="277.78" cy="1875.06" r="170.23"/><circle class="cls-69" cx="273.63" cy="1879.21" r="170.23"/><circle class="cls-70" cx="269.48" cy="1883.35" r="170.23"/><circle class="cls-71" cx="265.33" cy="1887.5" r="170.23"/><circle class="cls-72" cx="261.18" cy="1891.65" r="170.23"/><circle class="cls-73" cx="257.03" cy="1895.8" r="170.23"/></g><g class="cls-74"><circle class="cls-82" cx="335.91" cy="1834.71" r="201.68" transform="translate(-1198.95 774.9) rotate(-45)"/><circle class="cls-83" cx="287.89" cy="1786.7" r="201.68"/><circle class="cls-84" cx="227.91" cy="1817.25" r="201.68" transform="translate(-1218.24 693.42) rotate(-45)"/><circle class="cls-85" cx="345.76" cy="1858.39" r="201.68" transform="translate(-1212.81 788.8) rotate(-45)"/><circle class="cls-86" cx="345.76" cy="1909.32" r="201.68" transform="translate(-1248.82 803.72) rotate(-45)"/></g><circle class="cls-87" cx="257.03" cy="1895.8" r="170.23"/><circle class="cls-88" cx="257.03" cy="1895.8" r="158.59" transform="translate(-1265.25 737.02) rotate(-45)"/><g class="cls-3"><circle class="cls-4" cx="378.35" cy="1028.68" r="170.23"/><circle class="cls-40" cx="374.2" cy="1032.83" r="170.23"/><circle class="cls-41" cx="370.05" cy="1036.98" r="170.23"/><circle class="cls-42" cx="365.9" cy="1041.13" r="170.23"/><circle class="cls-43" cx="361.75" cy="1045.28" r="170.23"/><circle class="cls-44" cx="357.6" cy="1049.43" r="170.23"/><circle class="cls-45" cx="353.45" cy="1053.58" r="170.23"/><circle class="cls-46" cx="349.3" cy="1057.72" r="170.23"/><circle class="cls-47" cx="345.15" cy="1061.87" r="170.23"/><circle class="cls-48" cx="341" cy="1066.02" r="170.23"/><circle class="cls-49" cx="336.85" cy="1070.17" r="170.23"/><circle class="cls-50" cx="332.7" cy="1074.32" r="170.23"/><circle class="cls-51" cx="328.55" cy="1078.47" r="170.23"/><circle class="cls-52" cx="324.4" cy="1082.62" r="170.23"/><circle class="cls-53" cx="320.25" cy="1086.77" r="170.23"/><circle class="cls-54" cx="316.11" cy="1090.92" r="170.23"/><circle class="cls-55" cx="311.96" cy="1095.07" r="170.23"/><circle class="cls-56" cx="307.81" cy="1099.22" r="170.23"/><circle class="cls-57" cx="303.66" cy="1103.37" r="170.23"/><circle class="cls-58" cx="299.51" cy="1107.52" r="170.23"/><circle class="cls-59" cx="295.36" cy="1111.67" r="170.23"/><circle class="cls-60" cx="291.21" cy="1115.82" r="170.23"/><circle class="cls-61" cx="287.06" cy="1119.97" r="170.23"/><circle class="cls-62" cx="282.91" cy="1124.12" r="170.23"/><circle class="cls-63" cx="278.76" cy="1128.27" r="170.23"/><circle class="cls-64" cx="274.61" cy="1132.42" r="170.23"/><circle class="cls-65" cx="270.46" cy="1136.57" r="170.23"/><circle class="cls-66" cx="266.31" cy="1140.72" r="170.23"/><circle class="cls-67" cx="262.16" cy="1144.87" r="170.23"/><circle class="cls-68" cx="258.01" cy="1149.02" r="170.23"/><circle class="cls-69" cx="253.86" cy="1153.17" r="170.23"/><circle class="cls-70" cx="249.71" cy="1157.32" r="170.23"/><circle class="cls-71" cx="245.56" cy="1161.47" r="170.23"/><circle class="cls-72" cx="241.41" cy="1165.61" r="170.23"/><circle class="cls-73" cx="237.26" cy="1169.76" r="170.23"/></g><g class="cls-74"><circle class="cls-89" cx="309.68" cy="1131.85" r="201.68" transform="translate(-709.63 550.48) rotate(-45)"/><circle class="cls-90" cx="261.66" cy="1083.83" r="201.68" transform="translate(-689.74 502.47) rotate(-45)"/><circle class="cls-91" cx="201.68" cy="1114.39" r="201.68" transform="translate(-728.92 469.01) rotate(-45)"/><circle class="cls-92" cx="319.53" cy="1155.52" r="201.68" transform="translate(-723.49 564.39) rotate(-45)"/><circle class="cls-93" cx="319.53" cy="1206.45" r="201.68" transform="translate(-759.5 579.31) rotate(-45)"/></g><circle class="cls-94" cx="237.99" cy="1169.76" r="170.23"/><circle class="cls-95" cx="237.99" cy="1169.76" r="158.59" transform="translate(-757.44 510.9) rotate(-45)"/><g class="cls-3"><circle class="cls-4" cx="806.01" cy="596.8" r="170.23"/><circle class="cls-40" cx="801.86" cy="600.95" r="170.23"/><circle class="cls-41" cx="797.71" cy="605.1" r="170.23"/><circle class="cls-42" cx="793.56" cy="609.25" r="170.23"/><circle class="cls-43" cx="789.41" cy="613.4" r="170.23"/><circle class="cls-44" cx="785.26" cy="617.55" r="170.23"/><circle class="cls-45" cx="781.11" cy="621.7" r="170.23"/><circle class="cls-46" cx="776.96" cy="625.85" r="170.23"/><circle class="cls-47" cx="772.81" cy="630" r="170.23"/><circle class="cls-48" cx="768.66" cy="634.15" r="170.23"/><circle class="cls-49" cx="764.51" cy="638.3" r="170.23"/><circle class="cls-50" cx="760.36" cy="642.45" r="170.23"/><circle class="cls-51" cx="756.21" cy="646.6" r="170.23"/><circle class="cls-52" cx="752.06" cy="650.75" r="170.23"/><circle class="cls-53" cx="747.91" cy="654.89" r="170.23"/><circle class="cls-54" cx="743.76" cy="659.04" r="170.23"/><circle class="cls-55" cx="739.61" cy="663.19" r="170.23"/><circle class="cls-56" cx="735.46" cy="667.34" r="170.23"/><circle class="cls-57" cx="731.31" cy="671.49" r="170.23"/><circle class="cls-58" cx="727.16" cy="675.64" r="170.23"/><circle class="cls-59" cx="723.01" cy="679.79" r="170.23"/><circle class="cls-60" cx="718.86" cy="683.94" r="170.23"/><circle class="cls-61" cx="714.71" cy="688.09" r="170.23"/><circle class="cls-62" cx="710.57" cy="692.24" r="170.23"/><circle class="cls-63" cx="706.42" cy="696.39" r="170.23"/><circle class="cls-64" cx="702.27" cy="700.54" r="170.23"/><circle class="cls-65" cx="698.12" cy="704.69" r="170.23"/><circle class="cls-66" cx="693.97" cy="708.84" r="170.23"/><circle class="cls-67" cx="689.82" cy="712.99" r="170.23"/><circle class="cls-68" cx="685.67" cy="717.14" r="170.23"/><circle class="cls-69" cx="681.52" cy="721.29" r="170.23"/><circle class="cls-70" cx="677.37" cy="725.44" r="170.23"/><circle class="cls-71" cx="673.22" cy="729.59" r="170.23"/><circle class="cls-72" cx="669.07" cy="733.74" r="170.23"/><circle class="cls-73" cx="664.92" cy="737.89" r="170.23"/></g><g class="cls-74"><circle class="cls-96" cx="751.36" cy="692.32" r="201.68"/><circle class="cls-97" cx="703.34" cy="644.31" r="201.68"/><circle class="cls-98" cx="643.36" cy="674.86" r="201.68" transform="translate(-288.76 652.59) rotate(-45)"/><circle class="cls-99" cx="761.21" cy="716" r="201.68" transform="translate(-283.34 747.97) rotate(-45)"/><circle class="cls-100" cx="761.21" cy="766.93" r="201.68" transform="translate(-319.34 762.89) rotate(-45)"/></g><circle class="cls-101" cx="665.03" cy="738.36" r="170.23"/><circle class="cls-102" cx="665.03" cy="738.36" r="158.59" transform="translate(-327.32 686.51) rotate(-45)"/><g class="cls-3"><circle class="cls-4" cx="379.08" cy="170.23" r="170.23"/><circle class="cls-40" cx="374.93" cy="174.38" r="170.23"/><circle class="cls-41" cx="370.78" cy="178.53" r="170.23"/><circle class="cls-42" cx="366.63" cy="182.68" r="170.23"/><circle class="cls-43" cx="362.48" cy="186.83" r="170.23"/><circle class="cls-44" cx="358.33" cy="190.98" r="170.23"/><circle class="cls-45" cx="354.18" cy="195.13" r="170.23"/><circle class="cls-46" cx="350.03" cy="199.28" r="170.23"/><circle class="cls-47" cx="345.88" cy="203.43" r="170.23"/><circle class="cls-48" cx="341.73" cy="207.58" r="170.23"/><circle class="cls-49" cx="337.58" cy="211.73" r="170.23"/><circle class="cls-50" cx="333.43" cy="215.88" r="170.23"/><circle class="cls-51" cx="329.28" cy="220.03" r="170.23"/><circle class="cls-52" cx="325.13" cy="224.18" r="170.23"/><circle class="cls-53" cx="320.98" cy="228.33" r="170.23"/><circle class="cls-54" cx="316.83" cy="232.48" r="170.23"/><circle class="cls-55" cx="312.68" cy="236.63" r="170.23"/><circle class="cls-56" cx="308.53" cy="240.78" r="170.23"/><circle class="cls-57" cx="304.38" cy="244.93" r="170.23"/><circle class="cls-58" cx="300.23" cy="249.08" r="170.23"/><circle class="cls-59" cx="296.08" cy="253.23" r="170.23"/><circle class="cls-60" cx="291.93" cy="257.38" r="170.23"/><circle class="cls-61" cx="287.79" cy="261.53" r="170.23"/><circle class="cls-62" cx="283.64" cy="265.68" r="170.23"/><circle class="cls-63" cx="279.49" cy="269.82" r="170.23"/><circle class="cls-64" cx="275.34" cy="273.97" r="170.23"/><circle class="cls-65" cx="271.19" cy="278.12" r="170.23"/><circle class="cls-66" cx="267.04" cy="282.27" r="170.23"/><circle class="cls-67" cx="262.89" cy="286.42" r="170.23"/><circle class="cls-68" cx="258.74" cy="290.57" r="170.23"/><circle class="cls-69" cx="254.59" cy="294.72" r="170.23"/><circle class="cls-70" cx="250.44" cy="298.87" r="170.23"/><circle class="cls-71" cx="246.29" cy="303.02" r="170.23"/><circle class="cls-72" cx="242.14" cy="307.17" r="170.23"/><circle class="cls-73" cx="237.99" cy="311.32" r="170.23"/></g><g class="cls-74"><circle class="cls-103" cx="316.72" cy="278.55" r="201.68" transform="translate(-104.2 305.54) rotate(-45)"/><circle class="cls-104" cx="268.71" cy="230.53" r="201.68"/><circle class="cls-105" cx="208.73" cy="261.09" r="201.68" transform="translate(-123.48 224.06) rotate(-45)"/><circle class="cls-106" cx="326.58" cy="302.23" r="201.68" transform="translate(-118.05 319.45) rotate(-45)"/><circle class="cls-107" cx="326.58" cy="353.15" r="201.68" transform="translate(-154.06 334.36) rotate(-45)"/></g><circle class="cls-108" cx="237.99" cy="311.32" r="170.23"/><circle class="cls-109" cx="237.99" cy="311.32" r="158.59" transform="translate(-150.43 259.47) rotate(-45)"/></g></g></g></g></svg>