<svg xmlns="http://www.w3.org/2000/svg" viewBox="0 0 1027.44 425.55"><defs><style>.cls-1{opacity:0.5;}.cls-2{fill:#fd8857;}.cls-3{fill:#efecea;}.cls-4{fill:#f24b46;}</style></defs><g id="Layer_2" data-name="Layer 2"><g id="home_page" data-name="home page"><g id="ddddd"><g class="cls-1"><path class="cls-2" d="M669.41,111.49v-2.3h2.38v2.3Z"/><path class="cls-2" d="M669.41,106.83v-2.3h2.38v2.3Z"/><path class="cls-2" d="M669.41,102.18V99.87h2.38v2.31Z"/><path class="cls-2" d="M669.41,97.52v-2.3h2.38v2.3Z"/><path class="cls-2" d="M669.41,92.86v-2.3h2.38v2.3Z"/><path class="cls-2" d="M669.41,88.2V85.9h2.38v2.3Z"/><path class="cls-2" d="M669.41,83.55V81.24h2.38v2.31Z"/><path class="cls-2" d="M669.41,78.89v-2.3h2.38v2.3Z"/><path class="cls-2" d="M669.41,74.23v-2.3h2.38v2.3Z"/><path class="cls-2" d="M669.41,69.57v-2.3h2.38v2.3Z"/><path class="cls-2" d="M669.41,64.92V62.61h2.38v2.31Z"/><path class="cls-2" d="M669.41,60.26V58h2.38v2.3Z"/><path class="cls-2" d="M669.41,55.6V53.3h2.38v2.3Z"/><path class="cls-2" d="M669.41,50.94v-2.3h2.38v2.3Z"/><path class="cls-2" d="M669.41,46.29V44h2.38v2.31Z"/><path class="cls-2" d="M669.41,41.63V39.32h2.38v2.31Z"/><path class="cls-2" d="M669.41,37v-2.3h2.38V37Z"/><path class="cls-2" d="M669.41,32.31V30h2.38v2.3Z"/></g><g class="cls-1"><path class="cls-2" d="M662.16,83.55V81.24h2.37v2.31Z"/><path class="cls-2" d="M662.16,78.89v-2.3h2.37v2.3Z"/><path class="cls-2" d="M662.16,74.23v-2.3h2.37v2.3Z"/><path class="cls-2" d="M662.16,69.57v-2.3h2.37v2.3Z"/><path class="cls-2" d="M662.16,64.92V62.61h2.37v2.31Z"/><path class="cls-2" d="M662.16,60.26V58h2.37v2.3Z"/><path class="cls-2" d="M662.16,55.6V53.3h2.37v2.3Z"/><path class="cls-2" d="M662.16,50.94v-2.3h2.37v2.3Z"/><path class="cls-2" d="M662.16,46.29V44h2.37v2.31Z"/><path class="cls-2" d="M662.16,41.63V39.32h2.37v2.31Z"/><path class="cls-2" d="M662.16,37v-2.3h2.37V37Z"/><path class="cls-2" d="M662.16,32.31V30h2.37v2.3Z"/></g><g class="cls-1"><path class="cls-2" d="M654.77,111.49v-2.3h2.38v2.3Z"/><path class="cls-2" d="M654.77,106.83v-2.3h2.38v2.3Z"/><path class="cls-2" d="M654.77,102.18V99.87h2.38v2.31Z"/><path class="cls-2" d="M654.77,97.52v-2.3h2.38v2.3Z"/><path class="cls-2" d="M654.77,92.86v-2.3h2.38v2.3Z"/><path class="cls-2" d="M654.77,88.2V85.9h2.38v2.3Z"/><path class="cls-2" d="M654.77,83.55V81.24h2.38v2.31Z"/><path class="cls-2" d="M654.77,78.89v-2.3h2.38v2.3Z"/><path class="cls-2" d="M654.77,74.23v-2.3h2.38v2.3Z"/><path class="cls-2" d="M654.77,69.57v-2.3h2.38v2.3Z"/><path class="cls-2" d="M654.77,64.92V62.61h2.38v2.31Z"/><path class="cls-2" d="M654.77,60.26V58h2.38v2.3Z"/><path class="cls-2" d="M654.77,55.6V53.3h2.38v2.3Z"/><path class="cls-2" d="M654.77,50.94v-2.3h2.38v2.3Z"/><path class="cls-2" d="M654.77,46.29V44h2.38v2.31Z"/><path class="cls-2" d="M654.77,41.63V39.32h2.38v2.31Z"/><path class="cls-2" d="M654.77,37v-2.3h2.38V37Z"/><path class="cls-2" d="M654.77,32.31V30h2.38v2.3Z"/></g><g class="cls-1"><path class="cls-2" d="M648.55,120.81V118.5h2.37v2.31Z"/><path class="cls-2" d="M648.55,116.15v-2.3h2.37v2.3Z"/><path class="cls-2" d="M648.55,111.49v-2.3h2.37v2.3Z"/><path class="cls-2" d="M648.55,106.83v-2.3h2.37v2.3Z"/><path class="cls-2" d="M648.55,102.18V99.87h2.37v2.31Z"/><path class="cls-2" d="M648.55,97.52v-2.3h2.37v2.3Z"/><path class="cls-2" d="M648.55,92.86v-2.3h2.37v2.3Z"/><path class="cls-2" d="M648.55,88.2V85.9h2.37v2.3Z"/><path class="cls-2" d="M648.55,83.55V81.24h2.37v2.31Z"/><path class="cls-2" d="M648.55,78.89v-2.3h2.37v2.3Z"/><path class="cls-2" d="M648.55,74.23v-2.3h2.37v2.3Z"/><path class="cls-2" d="M648.55,69.57v-2.3h2.37v2.3Z"/><path class="cls-2" d="M648.55,64.92V62.61h2.37v2.31Z"/><path class="cls-2" d="M648.55,60.26V58h2.37v2.3Z"/><path class="cls-2" d="M648.55,55.6V53.3h2.37v2.3Z"/><path class="cls-2" d="M648.55,50.94v-2.3h2.37v2.3Z"/><path class="cls-2" d="M648.55,46.29V44h2.37v2.31Z"/><path class="cls-2" d="M648.55,41.63V39.32h2.37v2.31Z"/><path class="cls-2" d="M648.55,37v-2.3h2.37V37Z"/><path class="cls-2" d="M648.55,32.31V30h2.37v2.3Z"/></g><g class="cls-1"><path class="cls-2" d="M640.34,78.89v-2.3h2.37v2.3Z"/><path class="cls-2" d="M640.34,74.23v-2.3h2.37v2.3Z"/><path class="cls-2" d="M640.34,69.57v-2.3h2.37v2.3Z"/><path class="cls-2" d="M640.34,64.92V62.61h2.37v2.31Z"/><path class="cls-2" d="M640.34,60.26V58h2.37v2.3Z"/><path class="cls-2" d="M640.34,55.6V53.3h2.37v2.3Z"/><path class="cls-2" d="M640.34,50.94v-2.3h2.37v2.3Z"/><path class="cls-2" d="M640.34,46.29V44h2.37v2.31Z"/><path class="cls-2" d="M640.34,41.63V39.32h2.37v2.31Z"/><path class="cls-2" d="M640.34,37v-2.3h2.37V37Z"/><path class="cls-2" d="M640.34,32.31V30h2.37v2.3Z"/></g><g class="cls-1"><path class="cls-2" d="M170.7,364.81h-4.82v-5h4.83Z"/><path class="cls-2" d="M161,364.79h-4.83v-5H161Z"/><path class="cls-2" d="M151.19,364.77h-4.82v-5h4.82Z"/><path class="cls-2" d="M141.44,364.76h-4.82v-5h4.82Z"/><path class="cls-2" d="M131.69,364.74h-4.82v-5h4.82Z"/><path class="cls-2" d="M121.94,364.72h-4.82v-5H122Z"/><path class="cls-2" d="M112.19,364.71h-4.82v-5h4.82Z"/><path class="cls-2" d="M102.44,364.69H97.62v-5h4.82Z"/><path class="cls-2" d="M92.69,364.67H87.87v-5H92.7Z"/><path class="cls-2" d="M82.94,364.65H78.12v-5H83Z"/><path class="cls-2" d="M73.19,364.64H68.36v-5h4.82Z"/><path class="cls-2" d="M63.44,364.62H58.61v-5h4.82Z"/><path class="cls-2" d="M53.68,364.6H48.86v-5h4.82Z"/><path class="cls-2" d="M43.93,364.59H39.11v-5h4.82Z"/><path class="cls-2" d="M34.18,364.57H29.36v-5h4.82Z"/><path class="cls-2" d="M24.43,364.55H19.61v-5h4.82Z"/><path class="cls-2" d="M14.68,364.53H9.86v-5h4.82Z"/><path class="cls-2" d="M4.93,364.52H.11v-5H4.94Z"/></g><g class="cls-1"><path class="cls-2" d="M112.16,379.89h-4.82v-5h4.82Z"/><path class="cls-2" d="M102.41,379.87H97.59v-5h4.82Z"/><path class="cls-2" d="M92.66,379.85H87.84v-5h4.82Z"/><path class="cls-2" d="M82.91,379.84H78.09v-5h4.82Z"/><path class="cls-2" d="M73.16,379.82H68.34v-5h4.82Z"/><path class="cls-2" d="M63.41,379.8H58.59v-5h4.82Z"/><path class="cls-2" d="M53.66,379.79H48.84v-5h4.83Z"/><path class="cls-2" d="M43.91,379.77H39.08v-5h4.82Z"/><path class="cls-2" d="M34.16,379.75H29.33v-5h4.82Z"/><path class="cls-2" d="M24.4,379.73H19.58v-5h4.82Z"/><path class="cls-2" d="M14.65,379.72H9.83v-5h4.82Z"/><path class="cls-2" d="M4.9,379.7H.08v-5H4.91Z"/></g><g class="cls-1"><path class="cls-2" d="M170.64,395.46h-4.82v-5h4.82Z"/><path class="cls-2" d="M160.89,395.44h-4.82v-5h4.82Z"/><path class="cls-2" d="M151.14,395.43h-4.82v-5h4.82Z"/><path class="cls-2" d="M141.39,395.41h-4.82v-5h4.82Z"/><path class="cls-2" d="M131.64,395.39h-4.82v-5h4.82Z"/><path class="cls-2" d="M121.89,395.37h-4.82v-5h4.83Z"/><path class="cls-2" d="M112.14,395.36h-4.83v-5h4.83Z"/><path class="cls-2" d="M102.39,395.34H97.56v-5h4.82Z"/><path class="cls-2" d="M92.63,395.32H87.81v-5h4.82Z"/><path class="cls-2" d="M82.88,395.31H78.06v-5h4.82Z"/><path class="cls-2" d="M73.13,395.29H68.31v-5h4.82Z"/><path class="cls-2" d="M63.38,395.27H58.56v-5h4.82Z"/><path class="cls-2" d="M53.63,395.25H48.81v-5h4.82Z"/><path class="cls-2" d="M43.88,395.24H39.06v-5h4.82Z"/><path class="cls-2" d="M34.13,395.22H29.31v-5h4.83Z"/><path class="cls-2" d="M24.38,395.2H19.56v-5h4.83Z"/><path class="cls-2" d="M14.63,395.19H9.8v-5h4.82Z"/><path class="cls-2" d="M4.87,395.17H.05v-5H4.88Z"/></g><g class="cls-1"><path class="cls-2" d="M190.12,408.52H185.3v-5h4.82Z"/><path class="cls-2" d="M180.37,408.5h-4.82v-5h4.82Z"/><path class="cls-2" d="M170.62,408.49H165.8v-5h4.82Z"/><path class="cls-2" d="M160.87,408.47h-4.82v-5h4.82Z"/><path class="cls-2" d="M151.12,408.45H146.3v-5h4.82Z"/><path class="cls-2" d="M141.37,408.43h-4.82v-5h4.83Z"/><path class="cls-2" d="M131.62,408.42h-4.83v-5h4.82Z"/><path class="cls-2" d="M121.87,408.4H117v-5h4.82Z"/><path class="cls-2" d="M112.11,408.38h-4.82v-5h4.82Z"/><path class="cls-2" d="M102.36,408.37H97.54v-5h4.82Z"/><path class="cls-2" d="M92.61,408.35H87.79v-5h4.82Z"/><path class="cls-2" d="M82.86,408.33H78v-5h4.82Z"/><path class="cls-2" d="M73.11,408.31H68.29v-5h4.82Z"/><path class="cls-2" d="M63.36,408.3H58.54v-5h4.82Z"/><path class="cls-2" d="M53.61,408.28H48.79v-5h4.83Z"/><path class="cls-2" d="M43.86,408.26H39v-5h4.82Z"/><path class="cls-2" d="M34.11,408.25H29.28v-5h4.82Z"/><path class="cls-2" d="M24.35,408.23H19.53v-5h4.82Z"/><path class="cls-2" d="M14.6,408.21H9.78v-5h4.82Z"/><path class="cls-2" d="M4.85,408.19H0v-5H4.86Z"/></g><g class="cls-1"><path class="cls-2" d="M102.33,425.55H97.51v-5h4.82Z"/><path class="cls-2" d="M92.58,425.54H87.76v-5h4.82Z"/><path class="cls-2" d="M82.83,425.52H78v-5h4.82Z"/><path class="cls-2" d="M73.08,425.5H68.26v-5h4.82Z"/><path class="cls-2" d="M63.33,425.48H58.51v-5h4.82Z"/><path class="cls-2" d="M53.58,425.47H48.76v-5h4.83Z"/><path class="cls-2" d="M43.83,425.45H39v-5h4.82Z"/><path class="cls-2" d="M34.08,425.43H29.25v-5h4.82Z"/><path class="cls-2" d="M24.32,425.42H19.5v-5h4.82Z"/><path class="cls-2" d="M14.57,425.4H9.75v-5h4.82Z"/><path class="cls-2" d="M4.82,425.38H0v-5H4.83Z"/></g><g class="cls-1"><path class="cls-3" d="M925.86,3.61h-3.73V0h3.73Z"/><path class="cls-3" d="M918.31,3.61h-3.73V0h3.73Z"/><path class="cls-3" d="M910.77,3.61H907V0h3.74Z"/><path class="cls-3" d="M903.22,3.61h-3.73V0h3.73Z"/><path class="cls-3" d="M895.68,3.61h-3.74V0h3.74Z"/><path class="cls-3" d="M888.13,3.61H884.4V0h3.73Z"/><path class="cls-3" d="M880.58,3.61h-3.73V0h3.73Z"/><path class="cls-3" d="M873,3.61h-3.73V0H873Z"/><path class="cls-3" d="M865.49,3.61h-3.73V0h3.73Z"/><path class="cls-3" d="M858,3.61h-3.73V0H858Z"/><path class="cls-3" d="M850.4,3.61h-3.73V0h3.73Z"/><path class="cls-3" d="M842.86,3.61h-3.73V0h3.73Z"/><path class="cls-3" d="M835.31,3.61h-3.73V0h3.73Z"/><path class="cls-3" d="M827.77,3.61H824V0h3.74Z"/><path class="cls-3" d="M820.22,3.61h-3.73V0h3.73Z"/><path class="cls-3" d="M812.68,3.61h-3.74V0h3.74Z"/><path class="cls-3" d="M805.13,3.61H801.4V0h3.73Z"/><path class="cls-3" d="M797.58,3.61h-3.73V0h3.73Z"/></g><g class="cls-1"><path class="cls-3" d="M880.58,14.63h-3.73V11h3.73Z"/><path class="cls-3" d="M873,14.63h-3.73V11H873Z"/><path class="cls-3" d="M865.49,14.63h-3.73V11h3.73Z"/><path class="cls-3" d="M858,14.63h-3.73V11H858Z"/><path class="cls-3" d="M850.4,14.63h-3.73V11h3.73Z"/><path class="cls-3" d="M842.86,14.63h-3.73V11h3.73Z"/><path class="cls-3" d="M835.31,14.63h-3.73V11h3.73Z"/><path class="cls-3" d="M827.77,14.63H824V11h3.74Z"/><path class="cls-3" d="M820.22,14.63h-3.73V11h3.73Z"/><path class="cls-3" d="M812.68,14.63h-3.74V11h3.74Z"/><path class="cls-3" d="M805.13,14.63H801.4V11h3.73Z"/><path class="cls-3" d="M797.58,14.63h-3.73V11h3.73Z"/></g><g class="cls-1"><path class="cls-3" d="M925.86,25.85h-3.73v-3.6h3.73Z"/><path class="cls-3" d="M918.31,25.85h-3.73v-3.6h3.73Z"/><path class="cls-3" d="M910.77,25.85H907v-3.6h3.74Z"/><path class="cls-3" d="M903.22,25.85h-3.73v-3.6h3.73Z"/><path class="cls-3" d="M895.68,25.85h-3.74v-3.6h3.74Z"/><path class="cls-3" d="M888.13,25.85H884.4v-3.6h3.73Z"/><path class="cls-3" d="M880.58,25.85h-3.73v-3.6h3.73Z"/><path class="cls-3" d="M873,25.85h-3.73v-3.6H873Z"/><path class="cls-3" d="M865.49,25.85h-3.73v-3.6h3.73Z"/><path class="cls-3" d="M858,25.85h-3.73v-3.6H858Z"/><path class="cls-3" d="M850.4,25.85h-3.73v-3.6h3.73Z"/><path class="cls-3" d="M842.86,25.85h-3.73v-3.6h3.73Z"/><path class="cls-3" d="M835.31,25.85h-3.73v-3.6h3.73Z"/><path class="cls-3" d="M827.77,25.85H824v-3.6h3.74Z"/><path class="cls-3" d="M820.22,25.85h-3.73v-3.6h3.73Z"/><path class="cls-3" d="M812.68,25.85h-3.74v-3.6h3.74Z"/><path class="cls-3" d="M805.13,25.85H801.4v-3.6h3.73Z"/><path class="cls-3" d="M797.58,25.85h-3.73v-3.6h3.73Z"/></g><g class="cls-1"><path class="cls-3" d="M941,35.31h-3.73V31.7H941Z"/><path class="cls-3" d="M933.4,35.31h-3.73V31.7h3.73Z"/><path class="cls-3" d="M925.86,35.31h-3.73V31.7h3.73Z"/><path class="cls-3" d="M918.31,35.31h-3.73V31.7h3.73Z"/><path class="cls-3" d="M910.77,35.31H907V31.7h3.74Z"/><path class="cls-3" d="M903.22,35.31h-3.73V31.7h3.73Z"/><path class="cls-3" d="M895.68,35.31h-3.74V31.7h3.74Z"/><path class="cls-3" d="M888.13,35.31H884.4V31.7h3.73Z"/><path class="cls-3" d="M880.58,35.31h-3.73V31.7h3.73Z"/><path class="cls-3" d="M873,35.31h-3.73V31.7H873Z"/><path class="cls-3" d="M865.49,35.31h-3.73V31.7h3.73Z"/><path class="cls-3" d="M858,35.31h-3.73V31.7H858Z"/><path class="cls-3" d="M850.4,35.31h-3.73V31.7h3.73Z"/><path class="cls-3" d="M842.86,35.31h-3.73V31.7h3.73Z"/><path class="cls-3" d="M835.31,35.31h-3.73V31.7h3.73Z"/><path class="cls-3" d="M827.77,35.31H824V31.7h3.74Z"/><path class="cls-3" d="M820.22,35.31h-3.73V31.7h3.73Z"/><path class="cls-3" d="M812.68,35.31h-3.74V31.7h3.74Z"/><path class="cls-3" d="M805.13,35.31H801.4V31.7h3.73Z"/><path class="cls-3" d="M797.58,35.31h-3.73V31.7h3.73Z"/></g><g class="cls-1"><path class="cls-3" d="M873,47.79h-3.73V44.18H873Z"/><path class="cls-3" d="M865.49,47.79h-3.73V44.18h3.73Z"/><path class="cls-3" d="M858,47.79h-3.73V44.18H858Z"/><path class="cls-3" d="M850.4,47.79h-3.73V44.18h3.73Z"/><path class="cls-3" d="M842.86,47.79h-3.73V44.18h3.73Z"/><path class="cls-3" d="M835.31,47.79h-3.73V44.18h3.73Z"/><path class="cls-3" d="M827.77,47.79H824V44.18h3.74Z"/><path class="cls-3" d="M820.22,47.79h-3.73V44.18h3.73Z"/><path class="cls-3" d="M812.68,47.79h-3.74V44.18h3.74Z"/><path class="cls-3" d="M805.13,47.79H801.4V44.18h3.73Z"/><path class="cls-3" d="M797.58,47.79h-3.73V44.18h3.73Z"/></g><g class="cls-1"><path class="cls-4" d="M998.36,197.76v2.3H996v-2.3Z"/><path class="cls-4" d="M998.36,202.41v2.31H996v-2.31Z"/><path class="cls-4" d="M998.36,207.07v2.3H996v-2.3Z"/><path class="cls-4" d="M998.36,211.73V214H996v-2.3Z"/><path class="cls-4" d="M998.36,216.39v2.3H996v-2.3Z"/><path class="cls-4" d="M998.36,221v2.31H996V221Z"/><path class="cls-4" d="M998.36,225.7V228H996v-2.3Z"/><path class="cls-4" d="M998.36,230.36v2.3H996v-2.3Z"/><path class="cls-4" d="M998.36,235v2.3H996V235Z"/><path class="cls-4" d="M998.36,239.67V242H996v-2.31Z"/><path class="cls-4" d="M998.36,244.33v2.3H996v-2.3Z"/><path class="cls-4" d="M998.36,249v2.3H996V249Z"/><path class="cls-4" d="M998.36,253.65V256H996v-2.3Z"/><path class="cls-4" d="M998.36,258.3v2.31H996V258.3Z"/><path class="cls-4" d="M998.36,263v2.31H996V263Z"/><path class="cls-4" d="M998.36,267.62v2.3H996v-2.3Z"/><path class="cls-4" d="M998.36,272.28v2.3H996v-2.3Z"/><path class="cls-4" d="M998.36,276.94v2.3H996v-2.3Z"/></g><g class="cls-1"><path class="cls-4" d="M1005.62,225.7V228h-2.38v-2.3Z"/><path class="cls-4" d="M1005.62,230.36v2.3h-2.38v-2.3Z"/><path class="cls-4" d="M1005.62,235v2.3h-2.38V235Z"/><path class="cls-4" d="M1005.62,239.67V242h-2.38v-2.31Z"/><path class="cls-4" d="M1005.62,244.33v2.3h-2.38v-2.3Z"/><path class="cls-4" d="M1005.62,249v2.3h-2.38V249Z"/><path class="cls-4" d="M1005.62,253.65V256h-2.38v-2.3Z"/><path class="cls-4" d="M1005.62,258.3v2.31h-2.38V258.3Z"/><path class="cls-4" d="M1005.62,263v2.31h-2.38V263Z"/><path class="cls-4" d="M1005.62,267.62v2.3h-2.38v-2.3Z"/><path class="cls-4" d="M1005.62,272.28v2.3h-2.38v-2.3Z"/><path class="cls-4" d="M1005.62,276.94v2.3h-2.38v-2.3Z"/></g><g class="cls-1"><path class="cls-4" d="M1013,197.76v2.3h-2.38v-2.3Z"/><path class="cls-4" d="M1013,202.41v2.31h-2.38v-2.31Z"/><path class="cls-4" d="M1013,207.07v2.3h-2.38v-2.3Z"/><path class="cls-4" d="M1013,211.73V214h-2.38v-2.3Z"/><path class="cls-4" d="M1013,216.39v2.3h-2.38v-2.3Z"/><path class="cls-4" d="M1013,221v2.31h-2.38V221Z"/><path class="cls-4" d="M1013,225.7V228h-2.38v-2.3Z"/><path class="cls-4" d="M1013,230.36v2.3h-2.38v-2.3Z"/><path class="cls-4" d="M1013,235v2.3h-2.38V235Z"/><path class="cls-4" d="M1013,239.67V242h-2.38v-2.31Z"/><path class="cls-4" d="M1013,244.33v2.3h-2.38v-2.3Z"/><path class="cls-4" d="M1013,249v2.3h-2.38V249Z"/><path class="cls-4" d="M1013,253.65V256h-2.38v-2.3Z"/><path class="cls-4" d="M1013,258.3v2.31h-2.38V258.3Z"/><path class="cls-4" d="M1013,263v2.31h-2.38V263Z"/><path class="cls-4" d="M1013,267.62v2.3h-2.38v-2.3Z"/><path class="cls-4" d="M1013,272.28v2.3h-2.38v-2.3Z"/><path class="cls-4" d="M1013,276.94v2.3h-2.38v-2.3Z"/></g><g class="cls-1"><path class="cls-4" d="M1019.23,188.44v2.3h-2.38v-2.3Z"/><path class="cls-4" d="M1019.23,193.1v2.3h-2.38v-2.3Z"/><path class="cls-4" d="M1019.23,197.76v2.3h-2.38v-2.3Z"/><path class="cls-4" d="M1019.23,202.41v2.31h-2.38v-2.31Z"/><path class="cls-4" d="M1019.23,207.07v2.3h-2.38v-2.3Z"/><path class="cls-4" d="M1019.23,211.73V214h-2.38v-2.3Z"/><path class="cls-4" d="M1019.23,216.39v2.3h-2.38v-2.3Z"/><path class="cls-4" d="M1019.23,221v2.31h-2.38V221Z"/><path class="cls-4" d="M1019.23,225.7V228h-2.38v-2.3Z"/><path class="cls-4" d="M1019.23,230.36v2.3h-2.38v-2.3Z"/><path class="cls-4" d="M1019.23,235v2.3h-2.38V235Z"/><path class="cls-4" d="M1019.23,239.67V242h-2.38v-2.31Z"/><path class="cls-4" d="M1019.23,244.33v2.3h-2.38v-2.3Z"/><path class="cls-4" d="M1019.23,249v2.3h-2.38V249Z"/><path class="cls-4" d="M1019.23,253.65V256h-2.38v-2.3Z"/><path class="cls-4" d="M1019.23,258.3v2.31h-2.38V258.3Z"/><path class="cls-4" d="M1019.23,263v2.31h-2.38V263Z"/><path class="cls-4" d="M1019.23,267.62v2.3h-2.38v-2.3Z"/><path class="cls-4" d="M1019.23,272.28v2.3h-2.38v-2.3Z"/><path class="cls-4" d="M1019.23,276.94v2.3h-2.38v-2.3Z"/></g><g class="cls-1"><path class="cls-4" d="M1027.44,230.36v2.3h-2.38v-2.3Z"/><path class="cls-4" d="M1027.44,235v2.3h-2.38V235Z"/><path class="cls-4" d="M1027.44,239.67V242h-2.38v-2.31Z"/><path class="cls-4" d="M1027.44,244.33v2.3h-2.38v-2.3Z"/><path class="cls-4" d="M1027.44,249v2.3h-2.38V249Z"/><path class="cls-4" d="M1027.44,253.65V256h-2.38v-2.3Z"/><path class="cls-4" d="M1027.44,258.3v2.31h-2.38V258.3Z"/><path class="cls-4" d="M1027.44,263v2.31h-2.38V263Z"/><path class="cls-4" d="M1027.44,267.62v2.3h-2.38v-2.3Z"/><path class="cls-4" d="M1027.44,272.28v2.3h-2.38v-2.3Z"/><path class="cls-4" d="M1027.44,276.94v2.3h-2.38v-2.3Z"/></g></g></g></g></svg>