<svg xmlns="http://www.w3.org/2000/svg" viewBox="0 0 229.79 208.02"><defs><style>.cls-1{fill:#0098d1;}.cls-2{fill:#ffb400;}.cls-3{fill:#003d74;}.cls-4{fill:#9ec8cc;}.cls-5{fill:#fff;}.cls-6{fill:#0095e2;}.cls-7{fill:#dae0e2;}.cls-8{fill:#b7e2f2;}.cls-9{fill:#ff621f;}.cls-10{fill:#ffbd21;}.cls-11{fill:#ff5a47;}.cls-12{fill:#57cccc;}.cls-13{fill:#ffba00;}.cls-14{fill:#ffc531;}.cls-15{fill:#455159;}.cls-16{fill:#e4edf2;}.cls-17{fill:#efedee;}.cls-18{fill:#c1cfd1;}.cls-19{fill:#fcfdff;}.cls-20{fill:#ff9100;}</style></defs><g id="Layer_2" data-name="Layer 2"><g id="home_service" data-name="home service"><g id="Layer_18" data-name="Layer 18"><path class="cls-1" d="M59.46,136.69l-9.55-10.38-4.82,3.62a22.39,22.39,0,0,0-2.41-1.3l-.45-7.9-14.09-.59L28,121.37l-.61,0-.87,6.15a20.31,20.31,0,0,0-2.22.8l-5-4.43L8.92,133.42l4,5.31c-.35.66-.65,1.33-.93,2l-7.38.42L4,155.25l7.42,1.05c.05.18.11.36.17.54l-5,5.58,9.55,10.38,5.25-4q.43.26.87.48l-.38,7.18,13.95,2.11,1.79-7a21.85,21.85,0,0,0,3.14-.87l5,4.47,10.38-9.55L52.66,161c.32-.54.61-1.08.88-1.64l7.4-.42.58-14.09-6.3-.89q-.22-.94-.54-1.86Zm-14.23,1.43a16.49,16.49,0,1,1-23.3-1A16.51,16.51,0,0,1,45.23,138.12Z"/><path class="cls-1" d="M28.82,99.42l-5-5.4-2.51,1.89a11.6,11.6,0,0,0-1.25-.68l-.24-4.1-7.32-.31-.09.64h-.32l-.45,3.19c-.39.12-.78.26-1.16.42l-2.58-2.3-5.39,5,2.07,2.76c-.17.35-.33.69-.48,1l-3.83.22L0,109.07l3.86.55c0,.09.05.18.09.28l-2.59,2.9,5,5.39,2.73-2,.45.25-.19,3.73,7.25,1.1.93-3.65a10.72,10.72,0,0,0,1.63-.46l2.6,2.33,5.4-5L25.28,112a8.68,8.68,0,0,0,.46-.85l3.85-.22.3-7.32-3.27-.46c-.08-.33-.18-.65-.28-1Zm-7.39.75a8.57,8.57,0,1,1-12.12-.51A8.58,8.58,0,0,1,21.43,100.17Z"/><path class="cls-2" d="M41.4.08V93.86H56.67V.08ZM49,7.31a2.85,2.85,0,1,1,2.85-2.84A2.84,2.84,0,0,1,49,7.31Z"/><rect class="cls-3" x="51.95" y="11.83" width="4.71" height="1.57"/><rect class="cls-3" x="51.95" y="31.47" width="4.71" height="1.57"/><rect class="cls-3" x="54.31" y="15.76" width="2.36" height="1.57"/><rect class="cls-3" x="54.31" y="19.69" width="2.36" height="1.57"/><rect class="cls-3" x="54.31" y="23.62" width="2.36" height="1.57"/><rect class="cls-3" x="54.31" y="27.55" width="2.36" height="1.57"/><rect class="cls-3" x="54.31" y="35.4" width="2.36" height="1.57"/><rect class="cls-3" x="54.31" y="39.33" width="2.36" height="1.57"/><rect class="cls-3" x="54.31" y="43.26" width="2.36" height="1.57"/><rect class="cls-3" x="54.31" y="47.19" width="2.36" height="1.57"/><rect class="cls-3" x="51.95" y="51.12" width="4.71" height="1.57"/><rect class="cls-3" x="54.31" y="55.05" width="2.36" height="1.57"/><rect class="cls-3" x="54.31" y="58.98" width="2.36" height="1.57"/><rect class="cls-3" x="54.31" y="62.9" width="2.36" height="1.57"/><rect class="cls-3" x="54.31" y="66.83" width="2.36" height="1.57"/><rect class="cls-3" x="51.95" y="70.76" width="4.71" height="1.57"/><rect class="cls-3" x="54.31" y="74.69" width="2.36" height="1.57"/><rect class="cls-3" x="54.31" y="78.62" width="2.36" height="1.57"/><rect class="cls-3" x="54.31" y="82.55" width="2.36" height="1.57"/><rect class="cls-3" x="54.31" y="86.48" width="2.36" height="1.57"/><rect class="cls-3" x="51.95" y="90.4" width="4.71" height="1.57"/><polygon class="cls-4" points="137.73 204.6 95.19 204.6 97.63 186.51 135.29 186.51 137.73 204.6"/><rect class="cls-3" x="36.25" y="69.63" width="160.01" height="117.85" rx="3.45"/><path class="cls-5" d="M36.25,170.86v13.79a2.84,2.84,0,0,0,2.84,2.83H193.42a2.84,2.84,0,0,0,2.84-2.83V170.86Z"/><rect class="cls-6" x="41.4" y="75.01" width="149.15" height="90.47"/><path class="cls-7" d="M120.13,180.39a3.67,3.67,0,1,1-3.67-3.66A3.67,3.67,0,0,1,120.13,180.39Z"/><path class="cls-5" d="M141.64,208H89.81v-.51a4.38,4.38,0,0,1,4.38-4.38h43.08a4.38,4.38,0,0,1,4.37,4.38Z"/><rect class="cls-8" x="58.42" y="27.36" width="114.62" height="138.12"/><rect class="cls-5" x="58.42" y="93.98" width="114.62" height="47.67"/><rect class="cls-9" x="58.42" y="76.75" width="114.62" height="17.22"/><rect class="cls-10" x="58.42" y="34.1" width="114.62" height="42.65"/><rect class="cls-5" x="58.42" y="20.36" width="114.95" height="144.46"/><rect class="cls-3" x="58.42" y="20.36" width="114.95" height="12.96"/><rect class="cls-11" x="58.42" y="33.33" width="114.95" height="11.18"/><rect class="cls-2" x="67.49" y="49.78" width="96.8" height="5.59"/><rect class="cls-11" x="76.57" y="61.8" width="18.44" height="18.44"/><rect class="cls-11" x="105.38" y="61.8" width="18.44" height="18.44"/><rect class="cls-11" x="134.19" y="61.8" width="18.44" height="18.44"/><rect class="cls-2" x="58.42" y="93.49" width="114.95" height="40.34"/><path class="cls-5" d="M153.68,26.84a2.78,2.78,0,1,1-2.78-2.77A2.78,2.78,0,0,1,153.68,26.84Z"/><path class="cls-5" d="M162.32,26.84a2.77,2.77,0,1,1-2.77-2.77A2.77,2.77,0,0,1,162.32,26.84Z"/><path class="cls-5" d="M171,26.84a2.77,2.77,0,1,1-2.77-2.77A2.77,2.77,0,0,1,171,26.84Z"/><rect class="cls-5" x="64.47" y="98.39" width="30.54" height="30.54"/><rect class="cls-3" x="76.57" y="82.83" width="18.44" height="2.02"/><rect class="cls-3" x="76.57" y="85.71" width="8.01" height="2.02"/><rect class="cls-3" x="87" y="85.71" width="8.01" height="2.02"/><rect class="cls-3" x="76.57" y="88.59" width="5.99" height="2.02"/><rect class="cls-3" x="84.06" y="88.59" width="9.31" height="2.02"/><rect class="cls-3" x="105.38" y="82.83" width="18.44" height="2.02"/><rect class="cls-3" x="105.38" y="85.71" width="8.01" height="2.02"/><rect class="cls-3" x="115.81" y="85.71" width="8.01" height="2.02"/><rect class="cls-3" x="105.38" y="88.59" width="5.99" height="2.02"/><rect class="cls-3" x="112.87" y="88.59" width="9.31" height="2.02"/><rect class="cls-3" x="134.19" y="82.83" width="18.44" height="2.02"/><rect class="cls-3" x="134.19" y="85.71" width="8.01" height="2.02"/><rect class="cls-3" x="144.62" y="85.71" width="8.01" height="2.02"/><rect class="cls-3" x="134.19" y="88.59" width="5.99" height="2.02"/><rect class="cls-3" x="141.68" y="88.59" width="9.31" height="2.02"/><rect class="cls-3" x="101.58" y="98.39" width="43.04" height="3.75"/><rect class="cls-5" x="101.58" y="106.02" width="17.29" height="1.87"/><rect class="cls-5" x="125.49" y="106.02" width="31.12" height="1.87"/><rect class="cls-5" x="101.58" y="109.48" width="31.69" height="1.87"/><rect class="cls-5" x="137.19" y="109.48" width="19.42" height="1.87"/><rect class="cls-5" x="101.58" y="112.94" width="10.23" height="1.87"/><rect class="cls-5" x="114.6" y="112.94" width="42.01" height="1.87"/><rect class="cls-5" x="101.58" y="116.39" width="7.81" height="1.87"/><rect class="cls-5" x="111.86" y="116.39" width="26.22" height="1.87"/><rect class="cls-5" x="141.02" y="116.39" width="15.21" height="1.87"/><rect class="cls-5" x="101.58" y="119.85" width="10.28" height="1.87"/><rect class="cls-5" x="114.11" y="119.85" width="42.5" height="1.87"/><rect class="cls-5" x="101.58" y="123.31" width="6.05" height="1.87"/><rect class="cls-5" x="109.07" y="123.31" width="26.22" height="1.87"/><rect class="cls-5" x="137.19" y="123.31" width="19.42" height="1.87"/><rect class="cls-5" x="101.58" y="126.77" width="9.8" height="1.87"/><rect class="cls-5" x="113.78" y="126.77" width="14.45" height="2.16"/><rect class="cls-5" x="130.39" y="126.77" width="19.74" height="1.87"/><rect class="cls-12" x="64.47" y="139.01" width="105.01" height="20.74"/><rect class="cls-3" x="67.78" y="141.53" width="57.19" height="3.24"/><rect class="cls-5" x="67.78" y="147.29" width="21.7" height="1.87"/><rect class="cls-5" x="88.04" y="147.29" width="34.77" height="1.87"/><rect class="cls-5" x="125.41" y="147.29" width="17.29" height="1.87"/><rect class="cls-5" x="144.62" y="147.29" width="21.35" height="1.87"/><rect class="cls-5" x="67.78" y="151.33" width="21.7" height="1.87"/><rect class="cls-5" x="91.7" y="151.33" width="31.12" height="1.87"/><rect class="cls-5" x="119.73" y="151.33" width="28.09" height="1.87"/><rect class="cls-5" x="150.13" y="151.33" width="15.85" height="1.87"/><rect class="cls-5" x="67.78" y="155.36" width="21.7" height="1.87"/><rect class="cls-5" x="86.31" y="155.36" width="31.12" height="1.87"/><rect class="cls-5" x="119.73" y="155.15" width="15.87" height="2.09"/><rect class="cls-5" x="138.08" y="155.36" width="27.89" height="1.87"/><rect class="cls-13" x="41.68" width="73.54" height="7.26"/><rect class="cls-14" x="41.68" width="73.54" height="3.63"/><polygon class="cls-5" points="115.22 0 123.23 3.63 115.22 7.26 113.7 6.36 115.04 5.2 113.7 4.04 115.22 3.05 113.61 2.42 114.95 1.48 113.7 0.64 115.22 0"/><polygon class="cls-15" points="123.23 3.63 120.2 5 120.2 2.26 123.23 3.63"/><path class="cls-15" d="M83.5,32.18l-.57-.77,38.5-28.16a.48.48,0,0,1,.62,0l22.86,22-.66.68L121.67,4.25Z"/><path class="cls-16" d="M171.51,44H171a.24.24,0,0,1,0-.48h.24v-.24a.24.24,0,1,1,.47,0v.48A.23.23,0,0,1,171.51,44Z"/><path class="cls-16" d="M168.11,44h-1a.24.24,0,0,1,0-.48h1a.24.24,0,0,1,0,.48Zm-3.9,0h-1a.24.24,0,0,1,0-.48h1a.24.24,0,0,1,0,.48Zm-3.9,0h-1a.24.24,0,0,1,0-.48h1a.24.24,0,1,1,0,.48Zm-3.89,0h-1a.24.24,0,0,1,0-.48h1a.24.24,0,1,1,0,.48Zm-3.9,0h-1a.24.24,0,0,1,0-.48h1a.24.24,0,0,1,0,.48Zm-3.89,0h-1a.24.24,0,0,1,0-.48h1a.24.24,0,1,1,0,.48Zm-3.9,0h-1a.24.24,0,1,1,0-.48h1a.24.24,0,1,1,0,.48Zm-3.89,0h-1a.24.24,0,0,1,0-.48h1a.24.24,0,1,1,0,.48Zm-3.9,0h-1a.24.24,0,0,1,0-.48h1a.24.24,0,1,1,0,.48ZM133,44h-1a.24.24,0,1,1,0-.48h1a.24.24,0,1,1,0,.48Zm-3.89,0h-1a.24.24,0,0,1,0-.48h1a.24.24,0,0,1,0,.48Zm-3.9,0h-1a.24.24,0,1,1,0-.48h1a.24.24,0,0,1,0,.48Zm-3.89,0h-1a.24.24,0,0,1,0-.48h1a.24.24,0,0,1,0,.48Zm-3.9,0h-1a.24.24,0,1,1,0-.48h1a.24.24,0,1,1,0,.48Zm-3.89,0h-1a.24.24,0,0,1,0-.48h1a.24.24,0,1,1,0,.48Z"/><path class="cls-16" d="M109.67,44h-.48a.23.23,0,0,1-.23-.24v-.48a.24.24,0,1,1,.47,0v.24h.24a.24.24,0,0,1,0,.48Z"/><path class="cls-16" d="M109.19,41.19A.23.23,0,0,1,109,41v-.77a.24.24,0,1,1,.47,0V41A.24.24,0,0,1,109.19,41.19Zm0-3.08a.23.23,0,0,1-.23-.24V37.1a.24.24,0,1,1,.47,0v.77A.24.24,0,0,1,109.19,38.11Z"/><path class="cls-16" d="M109.19,35a.23.23,0,0,1-.23-.24v-.47a.23.23,0,0,1,.23-.24h.48a.24.24,0,0,1,0,.48h-.24v.23A.23.23,0,0,1,109.19,35Z"/><path class="cls-16" d="M168.11,34.55h-1a.24.24,0,0,1,0-.48h1a.24.24,0,0,1,0,.48Zm-3.9,0h-1a.24.24,0,0,1,0-.48h1a.24.24,0,0,1,0,.48Zm-3.9,0h-1a.24.24,0,0,1,0-.48h1a.24.24,0,1,1,0,.48Zm-3.89,0h-1a.24.24,0,0,1,0-.48h1a.24.24,0,1,1,0,.48Zm-3.9,0h-1a.24.24,0,0,1,0-.48h1a.24.24,0,0,1,0,.48Zm-3.89,0h-1a.24.24,0,0,1,0-.48h1a.24.24,0,1,1,0,.48Zm-3.9,0h-1a.24.24,0,1,1,0-.48h1a.24.24,0,1,1,0,.48Zm-3.89,0h-1a.24.24,0,0,1,0-.48h1a.24.24,0,1,1,0,.48Zm-3.9,0h-1a.24.24,0,0,1,0-.48h1a.24.24,0,1,1,0,.48Zm-3.9,0h-1a.24.24,0,1,1,0-.48h1a.24.24,0,1,1,0,.48Zm-3.89,0h-1a.24.24,0,0,1,0-.48h1a.24.24,0,0,1,0,.48Zm-3.9,0h-1a.24.24,0,1,1,0-.48h1a.24.24,0,0,1,0,.48Zm-3.89,0h-1a.24.24,0,0,1,0-.48h1a.24.24,0,0,1,0,.48Zm-3.9,0h-1a.24.24,0,1,1,0-.48h1a.24.24,0,1,1,0,.48Zm-3.89,0h-1a.24.24,0,0,1,0-.48h1a.24.24,0,1,1,0,.48Z"/><path class="cls-16" d="M171.51,35a.23.23,0,0,1-.24-.24v-.23H171a.24.24,0,0,1,0-.48h.48a.23.23,0,0,1,.23.24v.47A.23.23,0,0,1,171.51,35Z"/><path class="cls-16" d="M171.51,41.19a.24.24,0,0,1-.24-.24v-.77a.24.24,0,1,1,.47,0V41A.23.23,0,0,1,171.51,41.19Zm0-3.08a.24.24,0,0,1-.24-.24V37.1a.24.24,0,1,1,.47,0v.77A.23.23,0,0,1,171.51,38.11Z"/><rect class="cls-12" x="82.86" y="27.79" width="63.49" height="11.06" transform="translate(-2.86 12.19) rotate(-6.01)"/><rect class="cls-5" x="84.72" y="29.5" width="51.21" height="8.55" transform="translate(-2.93 11.74) rotate(-6.01)"/><path class="cls-17" d="M140.45,27.24a2.43,2.43,0,1,0,.11,3.69l4.1,3.31.5-.62-4.11-3.32A2.43,2.43,0,0,0,140.45,27.24Zm0,3.14a2,2,0,1,1-.3-2.79A2,2,0,0,1,140.46,30.38Z"/><rect class="cls-18" x="86.08" y="32.89" width="0.75" height="6.74" transform="matrix(0.99, -0.1, 0.1, 0.99, -3.32, 9.25)"/><path class="cls-3" d="M225.85,198.84H223a.48.48,0,1,1,0-1h2.86a.48.48,0,1,1,0,1Zm-5.72,0h-2.87a.48.48,0,0,1,0-1h2.87a.48.48,0,0,1,0,1Zm-5.73,0h-2.86a.48.48,0,1,1,0-1h2.86a.48.48,0,1,1,0,1Zm-5.73,0h-2.86a.48.48,0,1,1,0-1h2.86a.48.48,0,1,1,0,1Zm-5.73,0h-2.86a.48.48,0,1,1,0-1h2.86a.48.48,0,1,1,0,1Zm-5.72,0h-2.87a.48.48,0,0,1,0-1h2.87a.48.48,0,0,1,0,1Zm-5.73,0h-2.86a.48.48,0,1,1,0-1h2.86a.48.48,0,1,1,0,1Zm-5.73,0H182.9a.48.48,0,1,1,0-1h2.86a.48.48,0,1,1,0,1Zm-5.73,0h-2.86a.48.48,0,1,1,0-1H180a.48.48,0,1,1,0,1Zm-5.72,0h-2.87a.48.48,0,0,1,0-1h2.87a.48.48,0,0,1,0,1Zm-5.73,0h-2.86a.48.48,0,1,1,0-1h2.86a.48.48,0,1,1,0,1Zm-5.73,0H160a.48.48,0,1,1,0-1h2.86a.48.48,0,1,1,0,1Zm-5.73,0h-2.86a.48.48,0,1,1,0-1h2.86a.48.48,0,1,1,0,1Zm-5.72,0h-2.87a.48.48,0,0,1,0-1h2.87a.48.48,0,0,1,0,1Zm-5.73,0H142.8a.48.48,0,0,1,0-1h2.87a.48.48,0,1,1,0,1Zm-4-1.71a.47.47,0,0,1-.47-.48v-2.86a.48.48,0,1,1,.95,0v2.86A.47.47,0,0,1,141.65,197.13Zm84.2,0a.47.47,0,0,1-.47-.47v-2.87a.48.48,0,1,1,1,0v2.87A.47.47,0,0,1,225.85,197.1Zm-84.2-5.7a.47.47,0,0,1-.47-.47v-2.87a.48.48,0,1,1,.95,0v2.87A.47.47,0,0,1,141.65,191.4Zm84.2,0a.47.47,0,0,1-.47-.47V188a.48.48,0,0,1,1,0v2.87A.47.47,0,0,1,225.85,191.37Zm-84.2-5.69a.48.48,0,0,1-.47-.48v-2.87a.48.48,0,0,1,.95,0v2.87A.48.48,0,0,1,141.65,185.68Zm84.2,0a.48.48,0,0,1-.47-.48v-2.86a.48.48,0,1,1,1,0v2.86A.48.48,0,0,1,225.85,185.65Zm-84.2-5.7a.48.48,0,0,1-.47-.48v-2.86a.48.48,0,1,1,.95,0v2.86A.48.48,0,0,1,141.65,180Zm84.2,0a.47.47,0,0,1-.47-.48v-2.86a.48.48,0,1,1,1,0v2.86A.47.47,0,0,1,225.85,179.92Zm-84.2-5.7a.47.47,0,0,1-.47-.48v-2.86a.48.48,0,1,1,.95,0v2.86A.47.47,0,0,1,141.65,174.22Zm84.2,0a.47.47,0,0,1-.47-.48v-2.86a.48.48,0,1,1,1,0v2.86A.47.47,0,0,1,225.85,174.19Zm-84.2-5.7a.47.47,0,0,1-.47-.47v-2.87a.48.48,0,1,1,.95,0V168A.47.47,0,0,1,141.65,168.49Zm84.2,0a.47.47,0,0,1-.47-.47v-2.87a.48.48,0,0,1,1,0V168A.47.47,0,0,1,225.85,168.46Zm-84.2-5.7a.47.47,0,0,1-.47-.47v-2.87a.48.48,0,0,1,.95,0v2.87A.47.47,0,0,1,141.65,162.76Zm84.2,0a.48.48,0,0,1-.47-.48V159.4a.48.48,0,1,1,1,0v2.86A.48.48,0,0,1,225.85,162.74Zm-84.2-5.7a.48.48,0,0,1-.47-.48V153.7a.48.48,0,1,1,.95,0v2.86A.48.48,0,0,1,141.65,157Zm84.2,0a.47.47,0,0,1-.47-.48v-2.86a.48.48,0,1,1,1,0v2.86A.47.47,0,0,1,225.85,157Zm-84.2-5.7a.47.47,0,0,1-.47-.48V148a.48.48,0,1,1,.95,0v2.86A.47.47,0,0,1,141.65,151.31Zm84.2,0a.47.47,0,0,1-.47-.48v-2.86a.48.48,0,1,1,1,0v2.86A.47.47,0,0,1,225.85,151.28Zm-84.2-5.7a.47.47,0,0,1-.47-.47v-2.87a.48.48,0,1,1,.95,0v2.87A.47.47,0,0,1,141.65,145.58Zm84.2,0a.47.47,0,0,1-.47-.47v-2.87a.48.48,0,0,1,1,0v2.87A.47.47,0,0,1,225.85,145.55Zm-84.2-5.7a.47.47,0,0,1-.47-.47v-2.87a.48.48,0,0,1,.95,0v2.87A.47.47,0,0,1,141.65,139.85Zm84.2,0a.48.48,0,0,1-.47-.48v-2.86a.48.48,0,1,1,1,0v2.86A.48.48,0,0,1,225.85,139.83Zm-84.2-5.7a.48.48,0,0,1-.47-.48v-2.86a.48.48,0,1,1,.95,0v2.86A.48.48,0,0,1,141.65,134.13Zm84.2,0a.47.47,0,0,1-.47-.48v-2.86a.48.48,0,1,1,1,0v2.86A.47.47,0,0,1,225.85,134.1Zm-84.2-5.7a.47.47,0,0,1-.47-.48v-2.86a.48.48,0,1,1,.95,0v2.86A.47.47,0,0,1,141.65,128.4Zm84.2,0a.47.47,0,0,1-.47-.48V125a.48.48,0,1,1,1,0v2.86A.47.47,0,0,1,225.85,128.37Zm-84.2-5.7a.47.47,0,0,1-.47-.48v-2.86a.48.48,0,1,1,.95,0v2.86A.47.47,0,0,1,141.65,122.67Zm84.2,0a.47.47,0,0,1-.47-.47V119.3a.48.48,0,0,1,1,0v2.87A.47.47,0,0,1,225.85,122.64Zm-84.2-5.7a.47.47,0,0,1-.47-.47v-2.3a.47.47,0,0,1,.47-.48h.57a.48.48,0,0,1,0,1h-.09v1.83A.47.47,0,0,1,141.65,116.94Zm84.2,0a.48.48,0,0,1-.47-.48v-1.8h-.11a.48.48,0,1,1,0-1h.58a.47.47,0,0,1,.48.48v2.27A.48.48,0,0,1,225.85,116.92Zm-3.45-2.28h-2.86a.48.48,0,1,1,0-1h2.86a.48.48,0,1,1,0,1Zm-5.73,0h-2.86a.48.48,0,1,1,0-1h2.86a.48.48,0,1,1,0,1Zm-5.72,0h-2.87a.48.48,0,0,1,0-1H211a.48.48,0,0,1,0,1Zm-5.73,0h-2.87a.48.48,0,0,1,0-1h2.87a.48.48,0,1,1,0,1Zm-5.73,0h-2.86a.48.48,0,1,1,0-1h2.86a.48.48,0,1,1,0,1Zm-5.73,0H190.9a.48.48,0,1,1,0-1h2.86a.48.48,0,1,1,0,1Zm-5.72,0h-2.87a.48.48,0,1,1,0-1H188a.48.48,0,0,1,0,1Zm-5.73,0h-2.87a.48.48,0,0,1,0-1h2.87a.48.48,0,1,1,0,1Zm-5.73,0h-2.86a.48.48,0,1,1,0-1h2.86a.48.48,0,1,1,0,1Zm-5.73,0H168a.48.48,0,1,1,0-1h2.86a.48.48,0,1,1,0,1Zm-5.72,0h-2.87a.48.48,0,1,1,0-1h2.87a.48.48,0,0,1,0,1Zm-5.73,0h-2.87a.48.48,0,0,1,0-1h2.87a.48.48,0,1,1,0,1Zm-5.73,0h-2.86a.48.48,0,1,1,0-1h2.86a.48.48,0,1,1,0,1Zm-5.73,0h-2.86a.48.48,0,1,1,0-1h2.86a.48.48,0,1,1,0,1Z"/><rect class="cls-19" x="222.4" y="152.87" width="6.91" height="6.91"/><path class="cls-3" d="M229.31,160.26H222.4a.47.47,0,0,1-.48-.47v-6.92a.48.48,0,0,1,.48-.48h6.91a.48.48,0,0,1,.48.48v6.92A.47.47,0,0,1,229.31,160.26Zm-6.44-.95h6v-6h-6Z"/><rect class="cls-19" x="138.2" y="152.87" width="6.91" height="6.91"/><path class="cls-3" d="M145.11,160.26H138.2a.47.47,0,0,1-.48-.47v-6.92a.48.48,0,0,1,.48-.48h6.91a.48.48,0,0,1,.48.48v6.92A.47.47,0,0,1,145.11,160.26Zm-6.44-.95h6v-6h-6Z"/><rect class="cls-19" x="222.4" y="110.71" width="6.91" height="6.91"/><path class="cls-3" d="M229.31,118.1H222.4a.47.47,0,0,1-.48-.48v-6.91a.47.47,0,0,1,.48-.48h6.91a.47.47,0,0,1,.48.48v6.91A.47.47,0,0,1,229.31,118.1Zm-6.44-1h6v-6h-6Z"/><rect class="cls-19" x="138.2" y="110.71" width="6.91" height="6.91"/><path class="cls-3" d="M145.11,118.1H138.2a.47.47,0,0,1-.48-.48v-6.91a.47.47,0,0,1,.48-.48h6.91a.47.47,0,0,1,.48.48v6.91A.47.47,0,0,1,145.11,118.1Zm-6.44-1h6v-6h-6Z"/><rect class="cls-19" x="222.4" y="194.91" width="6.91" height="6.91"/><path class="cls-3" d="M229.31,202.3H222.4a.47.47,0,0,1-.48-.48v-6.91a.47.47,0,0,1,.48-.48h6.91a.47.47,0,0,1,.48.48v6.91A.47.47,0,0,1,229.31,202.3Zm-6.44-1h6v-6h-6Z"/><rect class="cls-19" x="138.2" y="194.91" width="6.91" height="6.91"/><path class="cls-3" d="M145.11,202.3H138.2a.47.47,0,0,1-.48-.48v-6.91a.47.47,0,0,1,.48-.48h6.91a.47.47,0,0,1,.48.48v6.91A.47.47,0,0,1,145.11,202.3Zm-6.44-1h6v-6h-6Z"/><rect class="cls-19" x="180.3" y="194.97" width="6.91" height="6.91" transform="translate(382.18 14.68) rotate(90)"/><path class="cls-3" d="M187.21,202.36H180.3a.47.47,0,0,1-.48-.47V195a.47.47,0,0,1,.48-.47h6.91a.47.47,0,0,1,.48.47v6.92A.47.47,0,0,1,187.21,202.36Zm-6.44-1h6v-6h-6Z"/><rect class="cls-19" x="180.3" y="110.77" width="6.91" height="6.91" transform="translate(297.98 -69.52) rotate(90)"/><path class="cls-3" d="M187.21,118.16H180.3a.47.47,0,0,1-.48-.47v-6.92a.48.48,0,0,1,.48-.48h6.91a.48.48,0,0,1,.48.48v6.92A.47.47,0,0,1,187.21,118.16Zm-6.44-1h6v-6h-6Z"/><polygon class="cls-3" points="157.96 120.52 141 113.81 148.53 129.95 151.67 126.81 157.67 132.8 160.81 129.66 154.82 123.66 157.96 120.52"/><path class="cls-3" d="M209.05,55.85c3.93,3.56,7.4,7.28,9.34,10.72a3.73,3.73,0,0,1-5,5c-3.43-1.93-7.16-5.4-10.71-9.34-5.42-4.91-11.13-12.19-17.21-20.89l1-1,.76-.75,1-1C196.85,44.73,204.13,50.43,209.05,55.85Z"/><polygon class="cls-2" points="188.16 38.65 181.81 33.5 180.34 34.97 185.44 41.36 188.16 38.65"/><path class="cls-5" d="M181.81,33.5s.39-6.11-3.79-6.26-7.08-.35-7.33-3.34c0,0-2.72,11.23,9.65,11.07Z"/><path class="cls-11" d="M178.2,27.25a6.9,6.9,0,0,0-4,2,4.78,4.78,0,0,0-1.37,3.49c-3.53-3.24-2.18-8.81-2.18-8.81.25,3,3.15,3.18,7.33,3.34Z"/><rect class="cls-3" x="48.26" y="152.66" width="30.77" height="2.75" transform="translate(-73.82 59.8) rotate(-33.12)"/><rect class="cls-20" x="43.86" y="158.99" width="9.63" height="9.63" transform="translate(-61.93 294.07) rotate(-123.12)"/><rect class="cls-2" x="5.57" y="169.95" width="46.28" height="13.75" rx="6.16" transform="translate(-91.94 44.41) rotate(-33.12)"/><rect class="cls-20" x="15.53" y="180.03" width="32.44" height="2.75" rx="1.23" transform="translate(-93.95 46.82) rotate(-33.12)"/><rect class="cls-20" x="12.53" y="175.43" width="32.44" height="2.75" rx="1.23" transform="matrix(0.84, -0.55, 0.55, 0.84, -91.94, 44.44)"/><rect class="cls-20" x="9.71" y="171.11" width="32.44" height="2.75" rx="1.23" transform="translate(-90.02 42.19) rotate(-33.12)"/><path class="cls-3" d="M73.67,147.11l.36.54a2.77,2.77,0,0,0,3.83.81l7.93-5.18-3.38-5.18-7.93,5.17A2.79,2.79,0,0,0,73.67,147.11Z"/><rect class="cls-2" x="81.08" y="138.5" width="3.29" height="6.19" transform="translate(-63.92 68.2) rotate(-33.12)"/></g></g></g></svg>