<svg xmlns="http://www.w3.org/2000/svg" xmlns:xlink="http://www.w3.org/1999/xlink" viewBox="0 0 245.94 243.04"><defs><style>.cls-1{isolation:isolate;}.cls-2{mix-blend-mode:multiply;fill:url(#radial-gradient);}.cls-3,.cls-37,.cls-8{fill:#fff;}.cls-4{fill:#0537a5;}.cls-5{fill:url(#linear-gradient);}.cls-6{fill:url(#linear-gradient-2);}.cls-7{fill:url(#linear-gradient-3);}.cls-8{opacity:0.25;}.cls-9{fill:url(#linear-gradient-4);}.cls-10{fill:url(#linear-gradient-5);}.cls-11{fill:url(#linear-gradient-6);}.cls-12{fill:url(#linear-gradient-7);}.cls-13{fill:url(#linear-gradient-8);}.cls-14{fill:#97ffff;}.cls-15{fill:url(#linear-gradient-9);}.cls-16{fill:url(#linear-gradient-10);}.cls-17{fill:url(#linear-gradient-11);}.cls-18{fill:url(#radial-gradient-2);}.cls-19{fill:url(#radial-gradient-3);}.cls-20{fill:url(#radial-gradient-4);}.cls-21{fill:url(#radial-gradient-5);}.cls-22{fill:url(#radial-gradient-6);}.cls-23{fill:url(#radial-gradient-7);}.cls-24{fill:url(#linear-gradient-12);}.cls-25{fill:#fbfcfd;}.cls-26{fill:#87cdff;}.cls-27{fill:#71c2f4;}.cls-28{fill:url(#linear-gradient-13);}.cls-29{fill:url(#linear-gradient-14);}.cls-30{fill:url(#linear-gradient-15);}.cls-31{fill:url(#linear-gradient-16);}.cls-32{fill:url(#linear-gradient-17);}.cls-33,.cls-36{fill:none;}.cls-33{stroke:#fff;stroke-linejoin:round;stroke-width:2.5px;}.cls-34{fill:url(#linear-gradient-18);}.cls-35{fill:#ef353f;}.cls-36,.cls-37{stroke:#ef353f;stroke-miterlimit:10;stroke-width:1.5px;}.cls-38{fill:url(#linear-gradient-19);}.cls-39{fill:url(#linear-gradient-20);}.cls-40{fill:#0991fd;}.cls-41{fill:url(#linear-gradient-21);}.cls-42{fill:#ff0084;}.cls-43{fill:#4176fa;}.cls-44{fill:url(#linear-gradient-22);}.cls-45{fill:url(#linear-gradient-23);}.cls-46{fill:#1ad4ff;}.cls-47{fill:url(#linear-gradient-24);}.cls-48{fill:url(#linear-gradient-25);}.cls-49{fill:url(#linear-gradient-26);}.cls-50{fill:#107dff;}.cls-51{fill:#fcfdfe;}.cls-52{fill:url(#linear-gradient-27);}.cls-53{fill:#fff650;}</style><radialGradient id="radial-gradient" cx="127.38" cy="497.35" r="69.53" gradientTransform="translate(0 132.26) scale(1 0.2)" gradientUnits="userSpaceOnUse"><stop offset="0.14" stop-color="#000074" stop-opacity="0.2"/><stop offset="0.72" stop-color="#009cc4" stop-opacity="0.06"/><stop offset="0.91" stop-color="#00dce5" stop-opacity="0"/></radialGradient><linearGradient id="linear-gradient" x1="434.61" y1="-360.1" x2="447.51" y2="-507.54" gradientTransform="matrix(-0.94, 0.34, 0.34, 0.94, 680.37, 375.76)" gradientUnits="userSpaceOnUse"><stop offset="0" stop-color="#38c0ff" stop-opacity="0.2"/><stop offset="1" stop-color="#61aeff" stop-opacity="0.4"/></linearGradient><linearGradient id="linear-gradient-2" x1="411.14" y1="-359.19" x2="411.14" y2="-499.45" xlink:href="#linear-gradient"/><linearGradient id="linear-gradient-3" x1="493.08" y1="-395.07" x2="390.35" y2="-465.7" gradientTransform="matrix(-0.94, 0.34, 0.34, 0.94, 680.37, 375.76)" gradientUnits="userSpaceOnUse"><stop offset="0" stop-color="#52dcff"/><stop offset="1" stop-color="#ffbcff"/></linearGradient><linearGradient id="linear-gradient-4" x1="469.08" y1="249.21" x2="484.84" y2="233.45" gradientTransform="matrix(0.94, -0.34, 0.34, 0.94, -412.52, 41.76)" gradientUnits="userSpaceOnUse"><stop offset="0.01" stop-color="#ccb8ff"/><stop offset="0.52" stop-color="#b2c6ff"/><stop offset="1" stop-color="#9dd1ff"/></linearGradient><linearGradient id="linear-gradient-5" x1="-52.68" y1="24.09" x2="-36.86" y2="153.67" gradientTransform="matrix(-0.98, -0.18, -0.18, 0.98, 91.84, 4.8)" gradientUnits="userSpaceOnUse"><stop offset="0" stop-color="#fff" stop-opacity="0"/><stop offset="1" stop-color="#fff" stop-opacity="0.4"/></linearGradient><linearGradient id="linear-gradient-6" x1="-26.1" y1="47.12" x2="-12.93" y2="47.12" gradientTransform="translate(123.75 9.96) rotate(5.65)" gradientUnits="userSpaceOnUse"><stop offset="0" stop-color="#501eff"/><stop offset="1" stop-color="#189dff"/></linearGradient><linearGradient id="linear-gradient-7" x1="212.71" y1="114.2" x2="202.29" y2="132.25" gradientUnits="userSpaceOnUse"><stop offset="0.2" stop-color="#fff" stop-opacity="0"/><stop offset="0.41" stop-color="#fff" stop-opacity="0.25"/><stop offset="0.89" stop-color="#fff" stop-opacity="0.85"/><stop offset="1" stop-color="#fff"/></linearGradient><linearGradient id="linear-gradient-8" x1="34.51" y1="145.25" x2="24.08" y2="163.31" xlink:href="#linear-gradient-7"/><linearGradient id="linear-gradient-9" x1="174.81" y1="35.77" x2="164.38" y2="53.82" xlink:href="#linear-gradient-7"/><linearGradient id="linear-gradient-10" x1="109.91" y1="201.26" x2="99.49" y2="219.31" xlink:href="#linear-gradient-7"/><linearGradient id="linear-gradient-11" x1="115.17" y1="190.94" x2="104.75" y2="208.99" xlink:href="#linear-gradient-7"/><radialGradient id="radial-gradient-2" cx="339.25" cy="343.81" r="5.89" gradientTransform="matrix(-1, -0.04, -0.04, 1, 564.15, -127.4)" gradientUnits="userSpaceOnUse"><stop offset="0.12" stop-color="#ffff70"/><stop offset="0.22" stop-color="#ffef66"/><stop offset="0.58" stop-color="#ffbc44"/><stop offset="0.85" stop-color="#ff9c2f"/><stop offset="0.99" stop-color="#ff9027"/></radialGradient><radialGradient id="radial-gradient-3" cx="1807.02" cy="841.1" r="5.89" gradientTransform="matrix(0.45, -0.89, -0.89, -0.45, -18.19, 2068.06)" gradientUnits="userSpaceOnUse"><stop offset="0.12" stop-color="#00fffe"/><stop offset="0.26" stop-color="#00e5fe"/><stop offset="0.55" stop-color="#00b2ff"/><stop offset="0.77" stop-color="#0092ff"/><stop offset="0.89" stop-color="#0086ff"/></radialGradient><radialGradient id="radial-gradient-4" cx="1667.11" cy="853.82" r="2.86" gradientTransform="matrix(-0.16, -0.99, -0.99, 0.16, 1171.8, 1722.67)" xlink:href="#radial-gradient-3"/><radialGradient id="radial-gradient-5" cx="1042.45" cy="-4.79" r="2.52" gradientTransform="matrix(-0.91, -0.41, -0.41, 0.91, 1107.56, 533.43)" xlink:href="#radial-gradient-2"/><radialGradient id="radial-gradient-6" cx="1094.76" cy="90.57" r="2.52" gradientTransform="matrix(-0.91, -0.41, -0.41, 0.91, 1107.56, 533.43)" xlink:href="#radial-gradient-2"/><radialGradient id="radial-gradient-7" cx="1707.58" cy="821.01" r="5.89" gradientTransform="matrix(0.44, -0.9, -0.9, -0.44, 62.49, 2065.46)" xlink:href="#radial-gradient-2"/><linearGradient id="linear-gradient-12" x1="76.13" y1="131.86" x2="101.54" y2="131.86" gradientTransform="translate(-38.69 -11.08) rotate(-2.94)" gradientUnits="userSpaceOnUse"><stop offset="0" stop-color="#9ceaff"/><stop offset="0.21" stop-color="#9ae8ff"/><stop offset="0.31" stop-color="#93e3ff"/><stop offset="0.38" stop-color="#86daff"/><stop offset="0.44" stop-color="#74ccff"/><stop offset="0.49" stop-color="#5dbbff"/><stop offset="0.5" stop-color="#57b7ff"/><stop offset="0.6" stop-color="#62bcff"/><stop offset="0.78" stop-color="#81cbff"/><stop offset="1" stop-color="#aee0ff"/></linearGradient><linearGradient id="linear-gradient-13" x1="-114.47" y1="112.04" x2="-99.85" y2="112.04" gradientTransform="translate(164.86 37.59) rotate(7.34)" xlink:href="#linear-gradient-12"/><linearGradient id="linear-gradient-14" x1="-97.35" y1="113.44" x2="-81.34" y2="113.44" gradientTransform="translate(164.86 37.59) rotate(7.34)" xlink:href="#linear-gradient-12"/><linearGradient id="linear-gradient-15" x1="415.11" y1="253.38" x2="436.98" y2="253.38" gradientTransform="translate(-293.43 71.63) rotate(-16.57)" xlink:href="#linear-gradient-12"/><linearGradient id="linear-gradient-16" x1="53.77" y1="23.13" x2="78.11" y2="47.47" gradientTransform="matrix(0.99, 0.12, -0.12, 0.99, 140.23, 3.94)" gradientUnits="userSpaceOnUse"><stop offset="0" stop-color="#7f00a9"/><stop offset="0.28" stop-color="#7d00a8"/><stop offset="0.39" stop-color="#7600a6"/><stop offset="0.46" stop-color="#6b00a1"/><stop offset="0.52" stop-color="#5a009a"/><stop offset="0.54" stop-color="#520097"/><stop offset="0.76" stop-color="#550098"/><stop offset="0.94" stop-color="#5f009c"/><stop offset="1" stop-color="#64009e"/></linearGradient><linearGradient id="linear-gradient-17" x1="49.89" y1="51.35" x2="72.84" y2="28.4" gradientTransform="translate(135.08 10.93)" gradientUnits="userSpaceOnUse"><stop offset="0" stop-color="#fcbb45"/><stop offset="0.41" stop-color="#f75274"/><stop offset="0.73" stop-color="#d53692"/><stop offset="0.96" stop-color="#a600c7"/></linearGradient><linearGradient id="linear-gradient-18" x1="-669.97" y1="97.14" x2="-642.81" y2="124.3" gradientTransform="matrix(-0.97, 0.25, 0.25, 0.97, -607.41, 77.83)" gradientUnits="userSpaceOnUse"><stop offset="0" stop-color="#d81428"/><stop offset="0.15" stop-color="#d51428"/><stop offset="0.26" stop-color="#cc1428"/><stop offset="0.36" stop-color="#bc1428"/><stop offset="0.45" stop-color="#a61428"/><stop offset="0.49" stop-color="#981428"/><stop offset="1" stop-color="#d81428"/></linearGradient><linearGradient id="linear-gradient-19" x1="-143.63" y1="190.16" x2="-117.74" y2="216.05" gradientTransform="translate(299.37 16.57) rotate(6.33)" gradientUnits="userSpaceOnUse"><stop offset="0" stop-color="#a11428"/><stop offset="0.25" stop-color="#9f1428"/><stop offset="0.34" stop-color="#981428"/><stop offset="0.41" stop-color="#8d1428"/><stop offset="0.46" stop-color="#7c1428"/><stop offset="0.5" stop-color="#6a1428"/><stop offset="0.98" stop-color="#8d1428"/></linearGradient><linearGradient id="linear-gradient-20" x1="-906.04" y1="378.66" x2="-870.13" y2="414.57" gradientTransform="matrix(-0.92, 0.38, 0.38, 0.92, -933.1, 153.57)" gradientUnits="userSpaceOnUse"><stop offset="0" stop-color="#0064ff"/><stop offset="0.26" stop-color="#0063fd"/><stop offset="0.35" stop-color="#0061f6"/><stop offset="0.42" stop-color="#005deb"/><stop offset="0.47" stop-color="#0057da"/><stop offset="0.5" stop-color="#0052cc"/><stop offset="0.67" stop-color="#0055d1"/><stop offset="0.87" stop-color="#005ede"/><stop offset="1" stop-color="#0068ec"/></linearGradient><linearGradient id="linear-gradient-21" x1="-167.28" y1="13.82" x2="-136.28" y2="44.81" gradientTransform="translate(301.44 35.74) rotate(16.87)" xlink:href="#linear-gradient-12"/><linearGradient id="linear-gradient-22" x1="-182.52" y1="120.92" x2="-168.32" y2="120.92" gradientTransform="translate(381.44 65.66) rotate(19.37)" xlink:href="#linear-gradient-12"/><linearGradient id="linear-gradient-23" x1="-247.13" y1="157.43" x2="-215.88" y2="188.68" gradientTransform="matrix(0.91, 0.43, -0.43, 0.91, 492.5, 95.1)" gradientUnits="userSpaceOnUse"><stop offset="0" stop-color="#00aeff"/><stop offset="0.3" stop-color="#00acfd"/><stop offset="0.41" stop-color="#00a5f8"/><stop offset="0.49" stop-color="#009aee"/><stop offset="0.5" stop-color="#0098ed"/><stop offset="0.71" stop-color="#009df1"/><stop offset="0.95" stop-color="#00aafc"/><stop offset="1" stop-color="#00aeff"/></linearGradient><linearGradient id="linear-gradient-24" x1="507.46" y1="394.32" x2="522.86" y2="409.73" gradientTransform="translate(-635.05 30.43) rotate(-29.8)" gradientUnits="userSpaceOnUse"><stop offset="0" stop-color="#a11428"/><stop offset="0.51" stop-color="#9f1428"/><stop offset="0.69" stop-color="#981428"/><stop offset="0.82" stop-color="#8d1428"/><stop offset="0.92" stop-color="#7c1428"/><stop offset="1" stop-color="#6a1428"/></linearGradient><linearGradient id="linear-gradient-25" x1="491.31" y1="187.59" x2="501.77" y2="198.04" gradientTransform="matrix(-0.84, -0.54, -0.54, 0.84, 706.67, 185.44)" xlink:href="#linear-gradient-24"/><linearGradient id="linear-gradient-26" x1="-467.59" y1="203.26" x2="-433.77" y2="237.07" gradientTransform="matrix(0.84, 0.55, -0.55, 0.84, 720.25, 162.24)" gradientUnits="userSpaceOnUse"><stop offset="0" stop-color="#0061e3"/><stop offset="0.26" stop-color="#005fe2"/><stop offset="0.36" stop-color="#0058e0"/><stop offset="0.42" stop-color="#004ddb"/><stop offset="0.48" stop-color="#003cd5"/><stop offset="0.5" stop-color="#0032d1"/><stop offset="0.66" stop-color="#003dd5"/><stop offset="0.95" stop-color="#005ce1"/><stop offset="1" stop-color="#0061e3"/></linearGradient><linearGradient id="linear-gradient-27" x1="-577.38" y1="142.22" x2="-555.55" y2="142.22" gradientTransform="matrix(-0.98, 0.2, 0.2, 0.98, -567.12, 38.26)" gradientUnits="userSpaceOnUse"><stop offset="0.4" stop-color="#eb8e00"/><stop offset="0.56" stop-color="#ed9200"/><stop offset="0.74" stop-color="#f2a000"/><stop offset="0.92" stop-color="#fbb600"/><stop offset="1" stop-color="#ffc100"/></linearGradient></defs><g class="cls-1"><g id="Layer_2" data-name="Layer 2"><g id="home_service" data-name="home service"><g id="Layer_18" data-name="Layer 18"><ellipse class="cls-2" cx="127.38" cy="229.31" rx="97.76" ry="13.73"/><path class="cls-3" d="M164.58,181.41a42.69,42.69,0,0,0,4.14-2.41,12.26,12.26,0,0,0,1.73-2.17c0,.06-33-82.94-47.81-123.36-1.16-3.17-4.11-5.32-6.57-4.78-14,3.09-37.27,6.41-44.91,7.73-5.1.89-7.9,5.32-6.15,10.11Q89.58,133.73,114.15,201c1.29,3.53,4,4.57,6.26,4.08a16.46,16.46,0,0,0,4-1.64C138.7,195.92,150.15,188.78,164.58,181.41Z"/><path class="cls-4" d="M170.34,178.61c2.24-1.15,3.12-4.67,2-7.84-14.76-40.4-29.18-79.83-43.94-120.21-1.15-3.18-4.11-5.33-6.58-4.8C105.49,49.29,87.67,53,71.33,56.4c-2.47.51-3.43,3.8-2.14,7.34C85.6,108.65,101.85,154,118.28,199c1.3,3.54,4.17,5.48,6.41,4.31C139.46,195.61,155.52,186.16,170.34,178.61Z"/><path class="cls-5" d="M121.4,47s-9.32,2-23.34,4.85c-7,1.47-15.16,3.18-23.92,5l-1.64.35-.11,0-.11,0-.2.06a3.56,3.56,0,0,0-.41.17c-.14.07-.25.16-.38.24L71,58A5,5,0,0,0,70,62.16a8.94,8.94,0,0,0,.31,1.29c.14.44.29.82.44,1.23l.88,2.43L73.45,72c2.38,6.55,4.81,13.21,7.24,19.86C85.56,105.17,90.44,118.48,95,131L107.55,165l12.3,33.21s-4.82-13.34-12-33.33c-3.63-10-7.85-21.64-12.38-34.12L81.19,91.73,73.92,71.89,72.13,67l-.89-2.43a12,12,0,0,1-.7-2.33,4.41,4.41,0,0,1,.82-3.69,2.44,2.44,0,0,1,.29-.27,3,3,0,0,1,.33-.21,2.84,2.84,0,0,1,.35-.16l.21-.06.08,0,.11,0,1.64-.35c8.73-1.89,16.86-3.68,23.83-5.22C112.13,49.11,121.4,47,121.4,47Z"/><path class="cls-6" d="M170,177.72l.27-.16A3,3,0,0,0,171,177a4.32,4.32,0,0,0,.82-1.46,6.56,6.56,0,0,0,.31-2.53,7.1,7.1,0,0,0-.3-1.57c-.16-.54-.37-1.06-.57-1.63-.4-1.13-.84-2.36-1.31-3.66-.93-2.61-2-5.55-3.14-8.77l-7.93-21.91c-2.91-8-5.68-15.6-8.79-24.14s-6.26-17.07-9.2-25.07-5.7-15.46-8.07-21.86c-1.19-3.19-2.27-6.13-3.24-8.72-.49-1.3-.94-2.52-1.36-3.64-.21-.56-.4-1.1-.62-1.62a6.87,6.87,0,0,0-.78-1.39,6.61,6.61,0,0,0-1.88-1.76,4.6,4.6,0,0,0-1.57-.6,3.43,3.43,0,0,0-1,0l-.31,0,.31,0a3.64,3.64,0,0,1,1,0,4.65,4.65,0,0,1,1.56.63A6.49,6.49,0,0,1,126.75,49a6.81,6.81,0,0,1,.75,1.36c.21.51.38,1.06.59,1.62.4,1.13.84,2.35,1.31,3.65.93,2.61,2,5.55,3.14,8.76l7.92,21.91,9.14,25.12c3.14,8.54,5.93,16.12,8.87,24.13l8.07,21.87,3.25,8.72,1.35,3.64c.21.56.43,1.09.59,1.61A7.29,7.29,0,0,1,172,173a6.35,6.35,0,0,1-.27,2.5,4.42,4.42,0,0,1-.79,1.47,3.84,3.84,0,0,1-.7.63Z"/><path class="cls-7" d="M73.08,58.75c3.81-.81,9.39-2.08,13.19-2.9.29-.06.64.21.78.61l.7,1.9c.7,1.91,2.37,3.2,3.74,2.89q10-2.28,20-4.59c1.37-.31,1.94-2,1.27-3.87L112.07,51c-.14-.38,0-.73.27-.8,3.79-.83,6.46-1.35,10.26-2.19,1.52-.33,3.34,1,4.06,3,14.8,40.52,29.27,80.07,44.08,120.6.72,2,.17,4.15-1.22,4.85-14.84,7.48-30.17,16.44-45,24-1.38.71-3.16-.49-4-2.66C104.23,153,88.11,108,71.76,63.29,71,61.12,71.56,59.08,73.08,58.75Z"/><path class="cls-8" d="M133.34,96.06c3.52,9.57-.69,19.91-9.39,23.12s-18.91-2.78-22.8-13.35.32-20.91,9.4-23.1S129.82,86.49,133.34,96.06Z"/><path class="cls-3" d="M129.36,97.27c2.68,7.29-.49,15.08-7.07,17.4s-14.27-2.18-17.16-10,.28-15.64,7.07-17.38S126.68,90,129.36,97.27Z"/><path class="cls-9" d="M120.3,100.7a6,6,0,0,0,.55-5.5c-1.17-3.17-4.44-5.1-7.31-4.32s-4.22,4.06-3,7.32a7,7,0,0,0,4.12,4.22c-2.72,2.29-3.7,6.55-2.16,10.73l.18.5a11.84,11.84,0,0,0,9.63,1,11.71,11.71,0,0,0,6.86-6.51l-.17-.48A10.56,10.56,0,0,0,120.3,100.7Z"/><path class="cls-3" d="M117.25,143.31a3.38,3.38,0,0,1-2.76-.16,4.41,4.41,0,0,1-2.13-2.46l-.08-.23a4.16,4.16,0,0,1,2-5.4l27.05-10.56a3.67,3.67,0,0,1,2.94.14,3.93,3.93,0,0,1,1.95,2.19l.07.2a4.05,4.05,0,0,1-2.13,5.13h0l-26.85,11.12ZM141.62,125l0,0-27.05,10.57a3.57,3.57,0,0,0-1.74,4.65l.08.23a3.78,3.78,0,0,0,1.82,2.11,2.86,2.86,0,0,0,2.44.11q13.43-5.57,26.86-11.1a3.48,3.48,0,0,0,1.84-4.39l-.08-.21a3.36,3.36,0,0,0-1.65-1.86A3.11,3.11,0,0,0,141.62,125Z"/><path class="cls-3" d="M121.43,154.84a3.33,3.33,0,0,1-2.69-.12,4.27,4.27,0,0,1-2.11-2.42l-.08-.24a4.29,4.29,0,0,1,2-5.49l26.76-11.38a3.58,3.58,0,0,1,2.92.07,3.81,3.81,0,0,1,1.93,2.16l.08.21a4.19,4.19,0,0,1-2.09,5.22h0q-13.29,5.94-26.56,11.93Zm24.19-19.14-.1,0q-13.38,5.67-26.76,11.38a3.72,3.72,0,0,0-1.71,4.75l.09.23a3.69,3.69,0,0,0,1.8,2.08,2.83,2.83,0,0,0,2.41,0q13.28-6,26.56-11.91a3.6,3.6,0,0,0,1.81-4.49l-.08-.21a3.25,3.25,0,0,0-1.63-1.82A3,3,0,0,0,145.62,135.7Z"/><path class="cls-3" d="M117.68,136.77c.19.53.39,1,.58,1.58a1,1,0,0,1,0,.75.79.79,0,0,1-.49.47.71.71,0,0,1-.65,0,1,1,0,0,1-.45-.58l-.58-1.59.23-.1c.2.54.4,1.07.59,1.61a.72.72,0,0,0,.32.42.55.55,0,0,0,.47,0,.54.54,0,0,0,.33-.33.76.76,0,0,0,0-.53c-.2-.53-.39-1.07-.59-1.6Z"/><path class="cls-3" d="M119.88,138.12a.53.53,0,0,1,0,.46.75.75,0,0,1-.39.32.93.93,0,0,1-.52.07l-.09-.26a.82.82,0,0,0,.27,0,.76.76,0,0,0,.26-.06.56.56,0,0,0,.25-.18.24.24,0,0,0,0-.25.26.26,0,0,0-.14-.15,1.27,1.27,0,0,0-.37-.06,2.28,2.28,0,0,1-.37,0,.59.59,0,0,1-.19-.11.56.56,0,0,1-.12-.2.47.47,0,0,1,0-.42.7.7,0,0,1,.37-.29,1.14,1.14,0,0,1,.52-.08c0,.09,0,.18,0,.26a1,1,0,0,0-.46.06.41.41,0,0,0-.23.16.2.2,0,0,0,0,.2.19.19,0,0,0,.08.11.26.26,0,0,0,.14.06,1.56,1.56,0,0,0,.31,0,1.19,1.19,0,0,1,.46.09A.51.51,0,0,1,119.88,138.12Z"/><path class="cls-3" d="M121.1,138.24a.68.68,0,0,1-.62,0,1.18,1.18,0,0,1-.45-.61,1.29,1.29,0,0,1-.08-.78.64.64,0,0,1,.39-.45.54.54,0,0,1,.54,0,1,1,0,0,1,.39.53l.06.17-1,.43a.83.83,0,0,0,.32.43.44.44,0,0,0,.42,0,1.21,1.21,0,0,0,.44-.32l.09.25a1.57,1.57,0,0,1-.19.18A2,2,0,0,1,121.1,138.24Zm-.67-1.64a.35.35,0,0,0-.24.26.77.77,0,0,0,0,.45l.8-.32a.63.63,0,0,0-.24-.36A.32.32,0,0,0,120.43,136.6Z"/><path class="cls-3" d="M122.06,135.68a.77.77,0,0,1,.19-.05l.06.27a.48.48,0,0,0-.18,0,.45.45,0,0,0-.25.3.79.79,0,0,0,0,.5l.36,1-.24.1-.67-1.83.19-.07.16.32h0a.8.8,0,0,1,.1-.36A.5.5,0,0,1,122.06,135.68Z"/><path class="cls-3" d="M124.25,136.92c-.14-.39-.28-.78-.43-1.17a.51.51,0,0,0-.21-.3.32.32,0,0,0-.3,0,.46.46,0,0,0-.3.29,1,1,0,0,0,.08.56c.12.31.23.63.35.95l-.23.09-.67-1.81.19-.08.13.23h0a.53.53,0,0,1,.12-.29.73.73,0,0,1,.26-.19.55.55,0,0,1,.47,0,.72.72,0,0,1,.33.44c.14.4.29.79.43,1.19Z"/><path class="cls-3" d="M125.9,136.25l-.14-.23h0a.87.87,0,0,1-.15.32.75.75,0,0,1-.26.18.49.49,0,0,1-.41,0,.56.56,0,0,1-.27-.34c-.13-.37,0-.66.53-.87l.25-.12,0-.11a.51.51,0,0,0-.19-.28.28.28,0,0,0-.28,0,1,1,0,0,0-.39.31l-.14-.18a1,1,0,0,1,.2-.22.94.94,0,0,1,.26-.14.54.54,0,0,1,.46,0,.69.69,0,0,1,.3.4l.45,1.23Zm-.6,0a.47.47,0,0,0,.29-.28.62.62,0,0,0,0-.44l-.06-.16-.23.1a.84.84,0,0,0-.36.27.37.37,0,0,0,0,.33.34.34,0,0,0,.16.19A.29.29,0,0,0,125.3,136.27Z"/><path class="cls-3" d="M128.49,135.2c-.14-.39-.29-.77-.43-1.16a.56.56,0,0,0-.19-.29.3.3,0,0,0-.29,0,.39.39,0,0,0-.26.27.74.74,0,0,0,.06.49l.37,1-.23.1c-.15-.39-.29-.78-.43-1.17a.57.57,0,0,0-.2-.29.28.28,0,0,0-.28,0,.4.4,0,0,0-.27.28,1,1,0,0,0,.09.54c.11.32.23.63.35,1l-.24.09-.66-1.8.19-.08.13.24h0a.57.57,0,0,1,.11-.28.55.55,0,0,1,.24-.18.48.48,0,0,1,.58.12h0a.56.56,0,0,1,.12-.3.59.59,0,0,1,.26-.2.5.5,0,0,1,.45,0,.81.81,0,0,1,.31.45l.43,1.17Z"/><path class="cls-3" d="M129.85,134.69a.68.68,0,0,1-.62,0,1,1,0,0,1-.44-.59,1.21,1.21,0,0,1-.07-.76.64.64,0,0,1,.39-.45.57.57,0,0,1,.54,0,1,1,0,0,1,.38.51l.06.17L129,134a.8.8,0,0,0,.31.42.46.46,0,0,0,.43,0,1.21,1.21,0,0,0,.44-.32l.09.24a1.18,1.18,0,0,1-.46.32Zm-.66-1.6a.39.39,0,0,0-.24.26.75.75,0,0,0,0,.44l.79-.32a.67.67,0,0,0-.24-.36A.35.35,0,0,0,129.19,133.09Z"/><path class="cls-3" d="M122.35,148.82a.84.84,0,0,1,0,.66.92.92,0,0,1-.52.46l-.24.11.36,1-.24.1-.9-2.46.52-.23Q122.1,148.1,122.35,148.82Zm-.85,1,.21-.09a.78.78,0,0,0,.41-.32.54.54,0,0,0,0-.45.44.44,0,0,0-.26-.31.63.63,0,0,0-.45.06l-.27.11C121.26,149.14,121.38,149.47,121.5,149.8Z"/><path class="cls-3" d="M124.31,150l-.15-.24h0a.73.73,0,0,1-.14.33.62.62,0,0,1-.25.19.49.49,0,0,1-.41,0,.53.53,0,0,1-.27-.34c-.14-.37,0-.68.51-.91l.26-.12,0-.11a.57.57,0,0,0-.2-.29.31.31,0,0,0-.28,0,1,1,0,0,0-.38.32l-.15-.18a1.45,1.45,0,0,1,.21-.22,1,1,0,0,1,.25-.16.52.52,0,0,1,.45,0,.68.68,0,0,1,.3.41l.46,1.25Zm-.59,0a.5.5,0,0,0,.28-.29.6.6,0,0,0,0-.45l-.06-.17-.22.11a.85.85,0,0,0-.36.28.4.4,0,0,0,0,.34.31.31,0,0,0,.16.19A.29.29,0,0,0,123.72,150Z"/><path class="cls-3" d="M125.74,148.77a.56.56,0,0,1,0,.46.72.72,0,0,1-.39.33.84.84,0,0,1-.51.09l-.09-.25H125a.66.66,0,0,0,.25-.07.46.46,0,0,0,.25-.19.25.25,0,0,0,0-.25.23.23,0,0,0-.14-.15,1,1,0,0,0-.36-.05,1.48,1.48,0,0,1-.36,0,.55.55,0,0,1-.2-.11.44.44,0,0,1-.12-.19.51.51,0,0,1,0-.42.68.68,0,0,1,.37-.31,1.12,1.12,0,0,1,.52-.09v.26a1,1,0,0,0-.46.07.44.44,0,0,0-.22.17.23.23,0,0,0,0,.2.24.24,0,0,0,.08.11.26.26,0,0,0,.14.06l.31,0a.86.86,0,0,1,.45.08A.51.51,0,0,1,125.74,148.77Z"/><path class="cls-3" d="M127.08,148.18a.56.56,0,0,1,0,.46.72.72,0,0,1-.39.33.84.84,0,0,1-.51.09l-.1-.26a.87.87,0,0,0,.28,0,1,1,0,0,0,.25-.07.57.57,0,0,0,.25-.19.28.28,0,0,0,0-.25.26.26,0,0,0-.14-.15,1,1,0,0,0-.37-.05,1.6,1.6,0,0,1-.36,0,.59.59,0,0,1-.19-.11.44.44,0,0,1-.12-.19.47.47,0,0,1,0-.42.75.75,0,0,1,.36-.31,1.19,1.19,0,0,1,.53-.09v.26a1.09,1.09,0,0,0-.46.07.44.44,0,0,0-.22.17.2.2,0,0,0,0,.2.25.25,0,0,0,.08.12.32.32,0,0,0,.13,0,2,2,0,0,0,.32,0,1,1,0,0,1,.45.08A.45.45,0,0,1,127.08,148.18Z"/><path class="cls-3" d="M128.87,148l-.67-.95c0-.05-.13-.19-.26-.4h0c0,.21.06.37.07.49,0,.39.07.79.1,1.18l-.26.12-1.08-1.64.24-.1.6.94q.21.33.27.45h0c0-.06,0-.15,0-.26a1.57,1.57,0,0,1,0-.27c0-.38-.07-.77-.11-1.16l.25-.11.65.93a3.06,3.06,0,0,1,.28.43h0a1.52,1.52,0,0,1,0-.19c0-.09-.08-.58-.21-1.46l.24-.1c.08.66.17,1.32.25,2Z"/><path class="cls-3" d="M130.8,146.07a1.25,1.25,0,0,1,.07.77.74.74,0,0,1-.43.47.61.61,0,0,1-.4,0,.69.69,0,0,1-.36-.22,1.27,1.27,0,0,1-.27-.46,1.22,1.22,0,0,1-.07-.76.72.72,0,0,1,.43-.47.62.62,0,0,1,.59,0A1.06,1.06,0,0,1,130.8,146.07Zm-1.15.5a1,1,0,0,0,.31.48.42.42,0,0,0,.41,0,.45.45,0,0,0,.27-.33,1.05,1.05,0,0,0-.08-.58.9.9,0,0,0-.31-.47.4.4,0,0,0-.4,0,.44.44,0,0,0-.28.33A1,1,0,0,0,129.65,146.57Z"/><path class="cls-3" d="M131.55,144.66l.19-.06.06.27-.18,0a.45.45,0,0,0-.25.31.8.8,0,0,0,0,.5c.11.32.23.64.35,1l-.23.1-.66-1.8.19-.08.15.32h0a1,1,0,0,1,.1-.36A.47.47,0,0,1,131.55,144.66Z"/><path class="cls-3" d="M133.62,145.59h0a.6.6,0,0,1-.37.48.54.54,0,0,1-.55,0,1.18,1.18,0,0,1-.42-.61,1.32,1.32,0,0,1-.09-.76.61.61,0,0,1,.37-.44.55.55,0,0,1,.57.05h0l0-.13L133,144c-.09-.24-.17-.49-.26-.73l.23-.1.93,2.54-.19.08Zm-.44.25a.48.48,0,0,0,.29-.3.91.91,0,0,0-.08-.53l0-.06a1.07,1.07,0,0,0-.3-.5.44.44,0,0,0-.65.31,1.25,1.25,0,0,0,.09.57.91.91,0,0,0,.3.47A.33.33,0,0,0,133.18,145.84Z"/><path class="cls-3" d="M136.46,159.64l-.23-.55,4.05-1.94.23.54Z"/><path class="cls-3" d="M139.89,159.79l-.51-.21c.22-.67.45-1.34.67-2l-1.71-.85.22-.53,1.94,1a.32.32,0,0,1,.15.38Z"/><path class="cls-10" d="M73.18,58.73c3.78-.81,9.32-2.07,13.09-2.88.29-.06.64.21.78.61l.7,1.9c.7,1.91,2.37,3.2,3.74,2.89q10-2.28,20-4.59c1.37-.31,1.94-2,1.27-3.87L112.07,51c-.14-.38,0-.73.27-.8,3.79-.83,6.46-1.35,10.26-2.19,1.52-.33,3.34,1,4.06,3,12.4,33.94,24.57,67.22,36.9,100.95Q119.37,108,73.18,58.73Z"/><path class="cls-11" d="M95,56c-.09-.26,0-.5.17-.54l10.71-2.36c.19,0,.41.13.51.38s0,.49-.18.54l-10.7,2.37C95.33,56.4,95.11,56.22,95,56Zm-2,.45a.51.51,0,0,0,.51.39c.19,0,.26-.28.17-.54s-.33-.44-.51-.4S92.9,56.15,93,56.41Z"/><path class="cls-12" d="M217.25,117.69l-18.45,12.1a.75.75,0,0,1-1-.21.75.75,0,0,1,.22-1l0,0Z"/><path class="cls-13" d="M39,148.74,20.6,160.84a.75.75,0,0,1-.83-1.25l.05,0Z"/><path class="cls-3" d="M148.7,79.15a1.13,1.13,0,1,0,1.2-1.05A1.12,1.12,0,0,0,148.7,79.15Z"/><path class="cls-14" d="M232.73,50.88A1,1,0,1,0,233.8,50,1,1,0,0,0,232.73,50.88Z"/><path class="cls-14" d="M68.94,209.4a1,1,0,1,0,1.07-.93A1,1,0,0,0,68.94,209.4Z"/><path class="cls-14" d="M81.92,136.5a1,1,0,1,0,1.07-.93A1,1,0,0,0,81.92,136.5Z"/><path class="cls-14" d="M193.76,217.84a1,1,0,1,0,2,.14,1,1,0,1,0-2-.14Z"/><path class="cls-14" d="M16.29,19a1,1,0,1,0,1.07-.94A1,1,0,0,0,16.29,19Z"/><path class="cls-14" d="M11.72,82A1,1,0,0,0,12.65,83a1,1,0,1,0,.14-2A1,1,0,0,0,11.72,82Z"/><path class="cls-14" d="M92.11,40.18a1,1,0,1,0,1.07-.93A1,1,0,0,0,92.11,40.18Z"/><circle class="cls-3" cx="174.78" cy="154.65" r="1.13"/><path class="cls-3" d="M110.87,11.07A1.13,1.13,0,1,0,112,9.94,1.12,1.12,0,0,0,110.87,11.07Z"/><path class="cls-3" d="M26.9,213.87A1.13,1.13,0,1,0,28,212.74,1.12,1.12,0,0,0,26.9,213.87Z"/><path class="cls-3" d="M199,11.07a1.13,1.13,0,1,0,1.13-1.13A1.13,1.13,0,0,0,199,11.07Z"/><path class="cls-15" d="M179.34,39.25,160.9,51.36a.75.75,0,0,1-1-.22.76.76,0,0,1,.21-1l.05,0Z"/><path class="cls-16" d="M114.45,204.74,96,216.85a.75.75,0,0,1-.82-1.26l0,0Z"/><path class="cls-17" d="M119.71,194.42l-18.45,12.11a.75.75,0,0,1-1-.22.76.76,0,0,1,.22-1l0,0Z"/><path class="cls-18" d="M207.3,202.82a4.81,4.81,0,1,0,5-4.62A4.82,4.82,0,0,0,207.3,202.82Z"/><circle class="cls-19" cx="48.89" cy="76.52" r="4.82" transform="translate(-35.77 43.69) rotate(-36.23)"/><path class="cls-20" d="M58.8,213.9a2.34,2.34,0,1,0,2.69,1.93A2.34,2.34,0,0,0,58.8,213.9Z"/><path class="cls-21" d="M158.31,98.33a2.06,2.06,0,1,0,2.73-1A2.05,2.05,0,0,0,158.31,98.33Z"/><path class="cls-22" d="M71.3,163.6a2.06,2.06,0,1,0,2.73-1A2.06,2.06,0,0,0,71.3,163.6Z"/><circle class="cls-23" cx="84.81" cy="171.39" r="4.82" transform="translate(-84.06 81.68) rotate(-35.69)"/><path class="cls-3" d="M97.3,198.58a3.94,3.94,0,0,1-.83,1.21,2.4,2.4,0,0,1-1.06.63,1.58,1.58,0,0,1-1.09-.11,1.26,1.26,0,0,1-.59-.52,1.17,1.17,0,0,1-.13-.76l-.06,0a1.85,1.85,0,0,1-.88.3,1.82,1.82,0,0,1-.9-.18,1.79,1.79,0,0,1-1-1.12,2.26,2.26,0,0,1,.19-1.64,2.54,2.54,0,0,1,1.4-1.39,2.47,2.47,0,0,1,2,.13,5.67,5.67,0,0,1,.81.46,5.29,5.29,0,0,1,.74.57l-1.19,2.28,0,.12c-.25.53-.2.88.15,1a.78.78,0,0,0,.86-.22,3.67,3.67,0,0,0,.84-1.19,3.41,3.41,0,0,0,.34-1.67,2.65,2.65,0,0,0-.53-1.46,3.39,3.39,0,0,0-1.32-1,4.13,4.13,0,0,0-2.06-.42,3.3,3.3,0,0,0-1.79.71,4.44,4.44,0,0,0-1.29,1.7,3.38,3.38,0,0,0-.26,2.6,3.33,3.33,0,0,0,1.87,1.81,7.23,7.23,0,0,0,2.51.62l-.38.82a6.63,6.63,0,0,1-2.48-.63,4.37,4.37,0,0,1-2.43-2.34,4.07,4.07,0,0,1,.25-3.26,5.33,5.33,0,0,1,1.64-2.07,4.19,4.19,0,0,1,2.28-.84,5.12,5.12,0,0,1,2.5.5A4.51,4.51,0,0,1,97,194.55a3.53,3.53,0,0,1,.73,1.89A4.26,4.26,0,0,1,97.3,198.58Zm-5.44-1.74c-.36.77-.23,1.31.38,1.59s1.22,0,1.73-1l.62-1.17a3.15,3.15,0,0,0-.64-.4,1.35,1.35,0,0,0-1.19,0A1.92,1.92,0,0,0,91.86,196.84Z"/><path class="cls-3" d="M35.26,97.28,34,98.87l1.67.84-.53,1-1.87-1-1.8,2.34-1.1-.56,1.8-2.33-1.53-.78-1.8,2.34-1.08-.54,1.78-2.35L28,97.14l.52-1L30.3,97l1.24-1.57-1.63-.83.52-1,1.81.92,1.82-2.36,1.11.56L33.36,95l1.56.79,1.81-2.36L37.8,94,36,96.35l1.56.78-.53,1Zm-3.87.25,1.55.78,1.23-1.57L32.63,96Z"/><path class="cls-3" d="M102.47,28.23a1.09,1.09,0,1,1-1.76,1.27,1.09,1.09,0,0,1,1.76-1.27Z"/><path class="cls-3" d="M104.93,29.4l-1.08-.17a2.3,2.3,0,0,0-1.9-2.62l.18-1.08a3.39,3.39,0,0,1,2.2,1.36A3.35,3.35,0,0,1,104.93,29.4Z"/><path class="cls-3" d="M101.06,32.2a3.37,3.37,0,0,1-2.8-3.87l1.07.18a2.3,2.3,0,0,0,1.9,2.62Z"/><path class="cls-3" d="M107.2,29.77l-1.08-.18a4.6,4.6,0,0,0-3.8-5.25l.17-1.08a5.69,5.69,0,0,1,4.71,6.51Z"/><path class="cls-3" d="M100.69,34.47A5.66,5.66,0,0,1,96,28l1.07.17a4.6,4.6,0,0,0,3.81,5.26Z"/><rect class="cls-3" x="103.19" y="28.17" width="1.09" height="7.31" transform="translate(1.04 66.88) rotate(-35.9)"/><path class="cls-3" d="M163.31,70.46l-1.07.2-.74-3.93L158,64.31a.54.54,0,0,1,.2-1l3.14-.59a.54.54,0,0,1,.64.43Zm-3.65-6.31,1.55,1.06-.24-1.3Z"/><path class="cls-3" d="M166.27,69.33a.54.54,0,0,1-.15.15.54.54,0,0,1-.61,0L162,67.06l-3.93.74-.2-1.08,7.28-1.37a.55.55,0,0,1,.64.44l.59,3.13A.54.54,0,0,1,166.27,69.33Zm-2.78-2.56L165,67.83l-.24-1.31Z"/><path class="cls-24" d="M67.89,118.8l1.7-1.46s-1.48-.77-1.51-1.34a11.9,11.9,0,0,0-.48-2.76l-2.5.49A9.67,9.67,0,0,0,64,111.46l2-1.63a36.4,36.4,0,0,1-2.45-5.2l-1.7,1.46-1.42,2.13a9.15,9.15,0,0,0-2.37-.84l.24-2.55a12.33,12.33,0,0,0-2.8-.18c-.55,0-1.07-1-1.07-1l-1.7,1.47.5,2.5A9.32,9.32,0,0,0,51,108.71l-1.63-2a12.17,12.17,0,0,0-3.74,4.14l2.13,1.42a9.71,9.71,0,0,0-.85,2.37L46,113l-1.7,1.46a11.82,11.82,0,0,0-.18,2.8,11.47,11.47,0,0,0,.47,2.77l2.5-.5a9.21,9.21,0,0,0,1.09,2.28l-.28.16-1.69,1.47a12,12,0,0,0,4.14,3.73l1.69-1.46-.27-.66a9.15,9.15,0,0,0,2.37.84l-.24,2.54a11.78,11.78,0,0,0,2.8.19,12,12,0,0,0,2.77-.47l1.69-1.47-2.19-1a9.48,9.48,0,0,0,2.27-1.08l1.63,2a12.07,12.07,0,0,0,3.74-4.14l-2.13-1.42a9.31,9.31,0,0,0,.85-2.37ZM56.4,122.39a5.78,5.78,0,1,1,5.47-6.07A5.78,5.78,0,0,1,56.4,122.39Z"/><path class="cls-25" d="M69.59,117.34a12.37,12.37,0,0,0,.18-2.8,12,12,0,0,0-.47-2.77l-2.5.5A9.21,9.21,0,0,0,65.71,110l2-1.63a12,12,0,0,0-4.14-3.73l-1.42,2.12a9.29,9.29,0,0,0-2.37-.84l.24-2.54a11.82,11.82,0,0,0-2.8-.19,12,12,0,0,0-2.77.47l.5,2.51a9.55,9.55,0,0,0-2.28,1.08l-1.63-2a12,12,0,0,0-3.73,4.14l2.12,1.42a9.29,9.29,0,0,0-.84,2.37L46,113a11.88,11.88,0,0,0,.28,5.56l2.51-.49a9.29,9.29,0,0,0,1.08,2.27l-2,1.63a12.17,12.17,0,0,0,4.14,3.74l1.42-2.13a9.29,9.29,0,0,0,2.37.84l-.24,2.55a12.46,12.46,0,0,0,2.81.18,11.89,11.89,0,0,0,2.76-.47l-.49-2.5A9.32,9.32,0,0,0,63,123.06l1.63,2a12,12,0,0,0,3.73-4.14l-2.12-1.42A9.29,9.29,0,0,0,67,117.1ZM58.1,120.92a5.78,5.78,0,1,1,5.47-6.06A5.79,5.79,0,0,1,58.1,120.92Z"/><polygon class="cls-26" points="44.61 120 46.3 118.53 48.81 118.04 47.11 119.5 44.61 120"/><polygon class="cls-26" points="47.71 112.3 49.4 110.83 47.28 109.41 45.58 110.88 47.71 112.3"/><polygon class="cls-27" points="54.16 125.86 55.85 124.39 55.62 126.94 53.92 128.4 54.16 125.86"/><polygon class="cls-27" points="61.26 124.53 62.96 123.06 64.59 125.03 62.89 126.5 61.26 124.53"/><path class="cls-28" d="M50.27,137.72l1.11-.66s-.76-.59-.72-.91a7.33,7.33,0,0,0,0-1.62l-1.47,0a5.09,5.09,0,0,0-.38-1.4l1.28-.72a20.73,20.73,0,0,1-.85-3.19l-1.11.65-1,1.06a5.22,5.22,0,0,0-1.26-.72l.4-1.42a7.22,7.22,0,0,0-1.57-.39c-.31,0-.5-.67-.5-.67l-1.11.65,0,1.47a6,6,0,0,0-1.39.38L41,129a7,7,0,0,0-2.54,2l1,1a5.57,5.57,0,0,0-.72,1.26l-.3-1.05-1.11.65a6.81,6.81,0,0,0-.39,1.57A6.21,6.21,0,0,0,37,136l1.47,0a5.19,5.19,0,0,0,.38,1.4l-.17.06-1.12.66a7.07,7.07,0,0,0,2,2.54l1.12-.66-.09-.4a5.35,5.35,0,0,0,1.25.72l-.39,1.41a6.62,6.62,0,0,0,1.56.4,6.76,6.76,0,0,0,1.62,0l1.11-.65-1.14-.81a5.9,5.9,0,0,0,1.4-.38l.72,1.28a7,7,0,0,0,2.54-2l-1.06-1a5.41,5.41,0,0,0,.72-1.26Zm-6.87.84a3.32,3.32,0,1,1,3.72-2.87A3.32,3.32,0,0,1,43.4,138.56Z"/><path class="cls-25" d="M51.38,137.06a6.69,6.69,0,0,0,.39-1.57,7.23,7.23,0,0,0,0-1.61l-1.47,0a5.12,5.12,0,0,0-.38-1.39l1.28-.72a6.87,6.87,0,0,0-2-2.54l-1,1.05a5.57,5.57,0,0,0-1.26-.72l.4-1.41a7,7,0,0,0-3.18-.41l0,1.47a5.12,5.12,0,0,0-1.39.38l-.72-1.28a6.77,6.77,0,0,0-2.54,2l1,1a5.73,5.73,0,0,0-.72,1.25l-1.41-.39a6.6,6.6,0,0,0-.39,1.56,6.29,6.29,0,0,0,0,1.62l1.47,0a5.09,5.09,0,0,0,.38,1.4l-1.28.72a6.77,6.77,0,0,0,2,2.54l1-1.06a5.35,5.35,0,0,0,1.25.72l-.39,1.42a6.6,6.6,0,0,0,1.56.39,7.33,7.33,0,0,0,1.62,0l0-1.47a5.09,5.09,0,0,0,1.4-.38l.72,1.28a6.87,6.87,0,0,0,2.54-2l-1.06-1a5.22,5.22,0,0,0,.72-1.26Zm-6.87.85A3.32,3.32,0,1,1,48.23,135,3.32,3.32,0,0,1,44.51,137.91Z"/><polygon class="cls-26" points="36.97 136 38.08 135.35 39.55 135.32 38.44 135.98 36.97 136"/><polygon class="cls-26" points="39.51 131.96 40.62 131.31 39.57 130.28 38.46 130.94 39.51 131.96"/><polygon class="cls-27" points="41.77 140.3 42.88 139.64 42.49 141.06 41.38 141.71 41.77 140.3"/><polygon class="cls-27" points="45.93 140.28 47.04 139.62 47.76 140.9 46.65 141.56 45.93 140.28"/><path class="cls-29" d="M68.33,141.63l1.22-.72s-.83-.64-.79-1a7.5,7.5,0,0,0,0-1.77l-1.61,0a6.18,6.18,0,0,0-.41-1.53l1.4-.79a22.72,22.72,0,0,1-.93-3.5l-1.22.72-1.12,1.16a5.63,5.63,0,0,0-1.37-.79l.43-1.55a7.93,7.93,0,0,0-1.71-.43c-.34,0-.55-.73-.55-.73l-1.22.71,0,1.61a5.59,5.59,0,0,0-1.53.42l-.79-1.41a7.61,7.61,0,0,0-2.78,2.15l1.15,1.12a6.42,6.42,0,0,0-.79,1.37l-.33-1.15-1.21.72a7.49,7.49,0,0,0-.44,1.72,8.06,8.06,0,0,0,0,1.77l1.6,0a6.2,6.2,0,0,0,.42,1.53l-.19.07-1.21.72a7.56,7.56,0,0,0,2.14,2.78l1.22-.72-.1-.44a5.88,5.88,0,0,0,1.38.79L58.59,146a8.17,8.17,0,0,0,1.72.43,7.5,7.5,0,0,0,1.77,0l1.21-.72-1.24-.89a5.69,5.69,0,0,0,1.53-.42l.79,1.41a7.61,7.61,0,0,0,2.78-2.15L66,142.57a5.82,5.82,0,0,0,.79-1.37Zm-7.52.93a3.64,3.64,0,1,1,4.07-3.14A3.64,3.64,0,0,1,60.81,142.56Z"/><path class="cls-25" d="M69.55,140.91A7.93,7.93,0,0,0,70,139.2a7.5,7.5,0,0,0,0-1.77l-1.61,0a5.59,5.59,0,0,0-.42-1.53l1.41-.79a7.65,7.65,0,0,0-2.15-2.79l-1.12,1.16a6.42,6.42,0,0,0-1.37-.79l.43-1.55a8,8,0,0,0-1.72-.43,7.41,7.41,0,0,0-1.76,0l0,1.6a6.2,6.2,0,0,0-1.53.42l-.79-1.4a7.56,7.56,0,0,0-2.78,2.14l1.16,1.12A5.88,5.88,0,0,0,57,136l-1.55-.44a8,8,0,0,0-.43,1.72A7.5,7.5,0,0,0,55,139l1.61,0a5.69,5.69,0,0,0,.42,1.53l-1.41.79a7.7,7.7,0,0,0,2.15,2.78L58.87,143a5.82,5.82,0,0,0,1.37.79l-.43,1.55a7.58,7.58,0,0,0,3.48.45l0-1.61a6.18,6.18,0,0,0,1.53-.41l.79,1.4A7.59,7.59,0,0,0,68.37,143l-1.16-1.12a5.63,5.63,0,0,0,.79-1.37Zm-7.53.93a3.64,3.64,0,1,1,4.08-3.14A3.64,3.64,0,0,1,62,141.84Z"/><polygon class="cls-26" points="53.77 139.75 54.98 139.04 56.59 139.01 55.38 139.73 53.77 139.75"/><polygon class="cls-26" points="56.55 135.33 57.77 134.61 56.61 133.49 55.4 134.21 56.55 135.33"/><polygon class="cls-27" points="59.03 144.46 60.24 143.74 59.81 145.29 58.59 146.01 59.03 144.46"/><polygon class="cls-27" points="63.58 144.43 64.8 143.72 65.59 145.12 64.37 145.84 63.58 144.43"/><path class="cls-30" d="M197,193l1.12-1.57s-1.39-.34-1.53-.81a10.06,10.06,0,0,0-1-2.22l-2,.92a7.93,7.93,0,0,0-1.37-1.68l1.32-1.76a31,31,0,0,1-3.1-3.86l-1.12,1.57-.76,2.07a8.15,8.15,0,0,0-2.15-.23l-.32-2.17a9.9,9.9,0,0,0-2.38.41c-.45.13-1.1-.61-1.1-.61l-1.12,1.57.92,2a7.93,7.93,0,0,0-1.68,1.37l-1.76-1.32a10.43,10.43,0,0,0-2.29,4.22l2.07.76a8.18,8.18,0,0,0-.23,2.16l-1-1.26-1.12,1.57a10.42,10.42,0,0,0,.41,2.38,10.27,10.27,0,0,0,1,2.22l2-.92a8.25,8.25,0,0,0,1.37,1.68l-.2.19-1.12,1.57a10.43,10.43,0,0,0,4.22,2.29l1.13-1.57-.37-.5a8.18,8.18,0,0,0,2.16.23l.31,2.17a10.42,10.42,0,0,0,2.38-.41,10.06,10.06,0,0,0,2.22-1L193,201l-2-.42a8,8,0,0,0,1.68-1.37l1.76,1.32a10.43,10.43,0,0,0,2.29-4.22l-2.07-.76a8.18,8.18,0,0,0,.23-2.16Zm-8.88,5.32a5,5,0,1,1,3.35-6.18A5,5,0,0,1,188.15,198.36Z"/><path class="cls-25" d="M198.15,191.47a9.9,9.9,0,0,0-.41-2.38,9.61,9.61,0,0,0-1-2.22l-2,.92a7.69,7.69,0,0,0-1.37-1.68l1.32-1.76a10.43,10.43,0,0,0-4.22-2.29l-.76,2.07a8.15,8.15,0,0,0-2.15-.23l-.32-2.17a9.9,9.9,0,0,0-2.38.41,10.49,10.49,0,0,0-2.22,1l.92,2a7.93,7.93,0,0,0-1.68,1.37l-1.76-1.32a10.55,10.55,0,0,0-2.29,4.22l2.07.76a7.74,7.74,0,0,0-.22,2.15l-2.18.32a10.2,10.2,0,0,0,1.37,4.6l2-.92a8.6,8.6,0,0,0,1.37,1.68L181,199.71a10.4,10.4,0,0,0,4.23,2.29l.75-2.07a8.18,8.18,0,0,0,2.16.23l.31,2.17a10.42,10.42,0,0,0,2.38-.41,10.06,10.06,0,0,0,2.22-1l-.92-2a8,8,0,0,0,1.68-1.37l1.76,1.32a10.43,10.43,0,0,0,2.29-4.22l-2.07-.76a8.18,8.18,0,0,0,.23-2.16Zm-8.88,5.32a5,5,0,1,1,3.35-6.18A5,5,0,0,1,189.27,196.79Z"/><polygon class="cls-26" points="177.8 198.76 178.92 197.19 180.91 196.27 179.79 197.84 177.8 198.76"/><polygon class="cls-26" points="178.83 191.69 179.95 190.12 177.88 189.36 176.76 190.93 178.83 191.69"/><polygon class="cls-27" points="186.98 201.73 188.1 200.16 188.41 202.33 187.29 203.9 186.98 201.73"/><polygon class="cls-27" points="192.65 199.17 193.77 197.6 195.53 198.92 194.41 200.49 192.65 199.17"/><path class="cls-31" d="M213.12,35.09,193,32.69a2.84,2.84,0,0,0-2,.51c-.65.45-5.09,4-5.09,4l1.48,18.11a2.9,2.9,0,0,0,2.53,3.21l17,5.89,5.21-4.09a2.88,2.88,0,0,0,1.08-1.93l2.4-20.1A2.89,2.89,0,0,0,213.12,35.09Z"/><rect class="cls-32" x="183.44" y="37.8" width="26.03" height="26.03" rx="5.25" transform="translate(7.4 -22.91) rotate(6.8)"/><rect class="cls-33" x="186.71" y="41.06" width="19.49" height="19.49" rx="7.58" transform="translate(7.4 -22.91) rotate(6.8)"/><circle class="cls-33" cx="196.45" cy="50.81" r="5.09" transform="translate(138.45 245.26) rotate(-87.89)"/><path class="cls-3" d="M204.33,45.3a.9.9,0,1,1-.79-1A.89.89,0,0,1,204.33,45.3Z"/><path class="cls-34" d="M41.54,12.39,63.43,6.84a3.18,3.18,0,0,1,2.3.27c.78.41,6.21,3.7,6.21,3.7l1,20.25A3.22,3.22,0,0,1,70.58,35l-18,9-6.35-3.78a3.21,3.21,0,0,1-1.48-2l-5.55-21.9A3.22,3.22,0,0,1,41.54,12.39Z"/><rect class="cls-35" x="47.74" y="12.86" width="29.04" height="29.04" rx="5.85" transform="translate(129.34 38.6) rotate(165.76)"/><rect class="cls-3" x="52.9" y="20.36" width="18.73" height="14.03" transform="translate(129.34 38.6) rotate(165.76)"/><polyline class="cls-36" points="73.06 31.88 62 26.36 54.91 36.48"/><path class="cls-37" d="M51.46,22.88l10.65,5.31a.53.53,0,0,0,.67-.17l6.83-9.75"/><path class="cls-38" d="M159.31,191.46l-21.4-2.37a3.07,3.07,0,0,0-2.13.55c-.69.49-5.38,4.31-5.38,4.31l1.74,19.25a3.08,3.08,0,0,0,2.72,3.4L153,222.72l5.51-4.4a3.06,3.06,0,0,0,1.13-2.06l2.38-21.4A3.09,3.09,0,0,0,159.31,191.46Z"/><rect class="cls-35" x="127.87" y="194.49" width="27.68" height="27.68" rx="5.58" transform="translate(23.84 -14.36) rotate(6.33)"/><path class="cls-3" d="M137.8,202l-1.14,12.46a.88.88,0,0,0,1.29.85l10-5.37a.88.88,0,0,0,.13-1.46l-8.8-7.09A.88.88,0,0,0,137.8,202Z"/><path class="cls-39" d="M18,168.21,45.6,156.79a4.23,4.23,0,0,1,3-.08c1.1.39,8.83,3.66,8.83,3.66l5.11,26.32a4.26,4.26,0,0,1-2.3,5.57L38.46,207.42l-9-3.74a4.23,4.23,0,0,1-2.31-2.3L15.7,173.79A4.27,4.27,0,0,1,18,168.21Z"/><rect class="cls-40" x="28.76" y="164.69" width="38.39" height="38.39" rx="7.74" transform="translate(162.62 335.43) rotate(157.51)"/><path class="cls-25" d="M59.18,180.06A10.49,10.49,0,0,0,61,183.94a6.42,6.42,0,0,1,.07,7.13,6.91,6.91,0,0,1-6.3,3.56,2.72,2.72,0,0,0-1.32.3,12.21,12.21,0,0,1-17.76-7.84,3,3,0,0,0-.82-1.42,7.09,7.09,0,0,1,5.52-12.09,2.93,2.93,0,0,0,1.62-.31A12.3,12.3,0,0,1,59.18,180.06Zm-8.49,12c.31-.15.78-.36,1.22-.6a7.16,7.16,0,0,0,3.47-3.52,4.45,4.45,0,0,0-3.79-6.18,12.1,12.1,0,0,0-2.33.05,41.21,41.21,0,0,1-4.57.51,1.44,1.44,0,0,1-1-2.68c1.75-1.37,3.48-1.77,5.09-.32a5.14,5.14,0,0,0,.72.5,1.44,1.44,0,0,0,1.46,0,1.75,1.75,0,0,0,.5-2.84,3.91,3.91,0,0,0-2.81-1.4,9.7,9.7,0,0,0-8,3.13A3.85,3.85,0,0,0,39.8,183a4,4,0,0,0,3.75,2.59,17.78,17.78,0,0,0,3.85-.26,10.22,10.22,0,0,1,3-.26A1.76,1.76,0,0,1,51.65,188a4.08,4.08,0,0,1-6.12.7,5.11,5.11,0,0,0-.55-.48,1.73,1.73,0,0,0-2.38.08,1.66,1.66,0,0,0-.07,2.32,5,5,0,0,0,4,2.11A11,11,0,0,0,50.69,192Z"/><path class="cls-41" d="M164.83,7.64,140.16.16a3.65,3.65,0,0,0-2.63.19c-.91.43-7.28,3.89-7.28,3.89l-2.16,23a3.69,3.69,0,0,0,2.45,4.6l20,11.17,7.44-4a3.64,3.64,0,0,0,1.78-2.18l7.48-24.67A3.68,3.68,0,0,0,164.83,7.64Z"/><rect class="cls-3" x="123.85" y="7.07" width="33.14" height="33.14" rx="6.68" transform="translate(12.9 -39.73) rotate(16.87)"/><path class="cls-42" d="M151.55,27a4.84,4.84,0,1,1-3.23-6A4.84,4.84,0,0,1,151.55,27Z"/><path class="cls-43" d="M138.56,23.08a4.84,4.84,0,1,1-3.23-6A4.83,4.83,0,0,1,138.56,23.08Z"/><path class="cls-44" d="M180.94,128.44c1.31-3.76,4-11.45,4-11.45l-.45-1.27-9.41-.13s-2.2,6.25-3.3,9.39l-.1-.08a2.88,2.88,0,0,0-1.81-.69,5.46,5.46,0,0,0-2.94,1.21s.39,1.13.47,1.34a2.57,2.57,0,0,0,2.33,1.39,2.51,2.51,0,0,0,2.56-1.66l2.47-7,7.89,1.09L180.41,127l0,0a2.8,2.8,0,0,0-1.91-.8,5.11,5.11,0,0,0-2.88,1.32s.36,1.07.47,1.3a2.78,2.78,0,0,0,4.61.2A2.13,2.13,0,0,0,180.94,128.44Z"/><polygon class="cls-26" points="174.78 119.44 174.34 118.17 182.63 119.08 181.87 120.42 174.78 119.44"/><path class="cls-3" d="M180.49,127.17c1.31-3.76,4-11.45,4-11.45l-9.86-1.4-3.3,9.39-.1-.08a2.86,2.86,0,0,0-1.81-.69,2,2,0,1,0-.14,3.94,2.52,2.52,0,0,0,2.56-1.65s2.48-7.06,2.48-7.06l7.88,1.09L180,125.69l0,0a2.75,2.75,0,0,0-1.91-.79,2,2,0,1,0-.14,3.94,2.56,2.56,0,0,0,2.34-1.12A2.4,2.4,0,0,0,180.49,127.17Z"/><path class="cls-45" d="M228.24,143.65l-23.52-11.06a3.65,3.65,0,0,0-2.65-.19c-1,.29-7.83,2.82-7.83,2.82l-5.52,22.67a3.72,3.72,0,0,0,1.78,4.94l18.36,14.07,8-2.88a3.64,3.64,0,0,0,2.1-1.91L230,148.59A3.71,3.71,0,0,0,228.24,143.65Z"/><rect class="cls-46" x="184.85" y="139.35" width="33.42" height="33.42" rx="6.74" transform="translate(85.54 -70.92) rotate(25.18)"/><path class="cls-3" d="M213.86,152.92l-17.73-8.34a2,2,0,0,0-2.63.95l-5.27,11.2a2,2,0,0,0,1,2.63l2.09,1-1.86,2.71a.21.21,0,0,0,.2.33l6.95-.55,10.35,4.87a2,2,0,0,0,2.64-.95l5.26-11.2A2,2,0,0,0,213.86,152.92Zm-18.14,2.74a1.56,1.56,0,1,1,2.08-.75A1.56,1.56,0,0,1,195.72,155.66Zm4.94,2.32a1.56,1.56,0,1,1,2.08-.75A1.56,1.56,0,0,1,200.66,158Zm4.94,2.32a1.56,1.56,0,1,1,2.08-.75A1.55,1.55,0,0,1,205.6,160.3Z"/><path class="cls-47" d="M22.41,115.36s-4.87-1.61-7.38-.69a6.33,6.33,0,0,0-4.18,6.48,6.36,6.36,0,0,0-7.71.32c-.63.52-3,3-3,3a27.12,27.12,0,0,0,1.08,4.14,6.4,6.4,0,0,0,4.3,3.91l12.39,3.37a1.64,1.64,0,0,0,2-1.16l3.37-12.38C23.84,120.46,22.41,115.36,22.41,115.36Z"/><path class="cls-35" d="M21.28,113.25A6.36,6.36,0,0,0,10,117.75,6.36,6.36,0,1,0,4.7,129.12l12.39,3.37a1.64,1.64,0,0,0,2-1.16l3.37-12.39A6.4,6.4,0,0,0,21.28,113.25Z"/><path class="cls-48" d="M177.15,76.4s3.35-.94,5-.24a4.31,4.31,0,0,1,2.64,4.52,4.31,4.31,0,0,1,5.21.46c.42.37,1.92,2.12,1.92,2.12a18.44,18.44,0,0,1-.86,2.77,4.31,4.31,0,0,1-3,2.52l-8.51,1.9a1.1,1.1,0,0,1-1.33-.85l-1.9-8.5C176,79.82,177.15,76.4,177.15,76.4Z"/><path class="cls-35" d="M178,75a4.31,4.31,0,0,1,7.51,3.4,4.32,4.32,0,1,1,3.24,7.87l-8.5,1.9a1.12,1.12,0,0,1-1.34-.85l-1.9-8.5A4.31,4.31,0,0,1,178,75Z"/><path class="cls-49" d="M244.12,93.16,220.56,77.81a4,4,0,0,0-2.81-.6c-1.09.17-8.81,1.86-8.81,1.86l-9.3,23.47a4,4,0,0,0,1.18,5.56l17.57,17.82,9-1.9a4,4,0,0,0,2.54-1.73l15.35-23.57A4,4,0,0,0,244.12,93.16Z"/><rect class="cls-50" x="195.6" y="84.41" width="36.16" height="36.16" rx="7.29" transform="translate(90.61 -100.04) rotate(33.09)"/><path class="cls-51" d="M203,93.9c1.29-2,2.59-3.92,3.85-5.9.28-.44.46-.47.88-.19,2.37,1.58,4.76,3.12,7.15,4.67a5.87,5.87,0,0,1,1.92,1.92,4.43,4.43,0,0,1-.62,5.3c-.12.13-.23.27-.34.41a3.09,3.09,0,0,1-3.06.6,8.45,8.45,0,0,1,.67.84,3.48,3.48,0,0,1,0,3.3,6.58,6.58,0,0,1-1.45,2.2,4.89,4.89,0,0,1-5.91.8,20.07,20.07,0,0,1-2-1.23c-2-1.33-4.08-2.67-6.14-4-.35-.22-.38-.38-.15-.73C199.55,99.24,201.27,96.57,203,93.9Zm3.85,1.62c-.13.16,0,.22.11.28l2.13,1.37a13.67,13.67,0,0,0,1.69,1.11,1.31,1.31,0,0,0,1.14.25,2.77,2.77,0,0,0,1.73-2.66,1.13,1.13,0,0,0-.49-.73l-4-2.6c-.2-.13-.32-.14-.47.09C208.09,93.6,207.47,94.56,206.85,95.52Zm-1.91,7.87h0c.65.42,1.29.86,2,1.26a1.73,1.73,0,0,0,1.9.12,5.9,5.9,0,0,0,.8-.71,2.15,2.15,0,0,0-.08-3.3c-1.31-.9-2.66-1.74-4-2.62-.23-.16-.35-.11-.5.12-.71,1.11-1.43,2.23-2.17,3.33-.17.25-.13.38.12.53C203.64,102.53,204.29,103,204.94,103.39Z"/><path class="cls-51" d="M219.06,102.21a7.52,7.52,0,0,1,5.71,2.31,5.24,5.24,0,0,1,1.66,3.77,8.81,8.81,0,0,1-1.6,4.49c-.29.45-.51.46-.94.17-2.24-1.49-4.51-2.94-6.75-4.43-.35-.23-.48-.18-.66.18a2.71,2.71,0,0,0,.64,3.41,4.3,4.3,0,0,0,2,1.08,1.74,1.74,0,0,0,1.71-.45c.21-.21.33-.17.53,0,.65.43,1.29.87,2,1.27.33.2.27.35.08.61a4.05,4.05,0,0,1-4.11,1.62,9.62,9.62,0,0,1-4.76-2.51,5.31,5.31,0,0,1-1.85-3.94,7,7,0,0,1,1.62-4.71,8.69,8.69,0,0,1,3.51-2.6,3.07,3.07,0,0,1,.67-.14v0a.13.13,0,0,0,.19,0h0v0c.07,0,.14,0,.18,0h0v0Zm1.39,5.63c.71.47,1.42.92,2.13,1.4.24.16.34.11.47-.13a2.51,2.51,0,0,0-.52-3.1,3.06,3.06,0,0,0-4.2-.05c-.26.22-.29.33,0,.53C219.06,106.92,219.75,107.39,220.45,107.84Z"/><path class="cls-51" d="M224,102.27c-.9-.58-1.8-1.18-2.71-1.76-.25-.15-.3-.29-.12-.54a12.6,12.6,0,0,0,.75-1.15c.17-.3.33-.27.58-.1,1.8,1.18,3.6,2.36,5.42,3.53.27.17.32.3.12.57s-.52.76-.75,1.15-.3.26-.54.1C225.85,103.46,224.93,102.87,224,102.27Z"/><path class="cls-52" d="M22.64,53.22a9.65,9.65,0,0,1,3.49,6.28,35.86,35.86,0,0,1,.22,6c-.13,3.28,0,11.18,0,11.18l-1.58,2.69c-.09.14-.23.31-.43.23A110.53,110.53,0,0,1,12.9,73.07,38.75,38.75,0,0,1,8,69.32a10.09,10.09,0,0,1-3-4.43,11,11,0,0,1,.58-8,53.45,53.45,0,0,1,3.17-5.33S19.29,50.35,22.64,53.22Zm-2.4,6a5.3,5.3,0,1,0-2.33,7.12A5.3,5.3,0,0,0,20.24,59.18Z"/><path class="cls-53" d="M24.28,50.26a9.71,9.71,0,0,1,3.5,6.28,35.85,35.85,0,0,1,.21,6,105.94,105.94,0,0,1-1.6,13.87c-.08.41-.08.41-.44.23a110.53,110.53,0,0,1-11.41-6.48,38.75,38.75,0,0,1-4.9-3.75,10,10,0,0,1-3-4.43,11,11,0,0,1,17.6-11.67Zm-2.4,6a5.36,5.36,0,0,0-7.16-2.35,5.32,5.32,0,1,0,7.16,2.35Z"/></g></g></g></g></svg>