<svg xmlns="http://www.w3.org/2000/svg" viewBox="0 0 267.26 218.43"><defs><style>.cls-1{fill:#e5f1ff;}.cls-2{fill:#a9ccea;}.cls-3{fill:#0f3157;}.cls-4{fill:#ff4d6b;}.cls-12,.cls-15,.cls-16,.cls-17,.cls-23,.cls-25,.cls-28,.cls-5{fill:none;}.cls-25,.cls-5{stroke:#ff4d6b;}.cls-15,.cls-28,.cls-5{stroke-linecap:round;stroke-linejoin:round;}.cls-12,.cls-13,.cls-23,.cls-25,.cls-28,.cls-5{stroke-width:1.13px;}.cls-5{stroke-dasharray:0 5.64;}.cls-13,.cls-14,.cls-6{fill:#289df2;}.cls-7{fill:#0f3775;}.cls-8{fill:#284d89;}.cls-9{fill:#2889db;}.cls-10{fill:#fff;}.cls-11{fill:#282e5c;}.cls-12,.cls-13,.cls-14{stroke:#fff;}.cls-12,.cls-13,.cls-14,.cls-16,.cls-17,.cls-23,.cls-25{stroke-miterlimit:10;}.cls-14{stroke-width:0.56px;}.cls-15{stroke:#284d89;stroke-width:2.26px;}.cls-16{stroke:#ff5c66;stroke-width:1.02px;}.cls-17{stroke:#f7f7f7;stroke-width:0.25px;}.cls-18,.cls-19,.cls-22{fill:#f7f7f7;}.cls-19,.cls-22{font-size:5.42px;}.cls-19{font-family:BebasNeueRegular;letter-spacing:0.06em;}.cls-20{letter-spacing:0.05em;}.cls-21{fill:#28385e;}.cls-22{font-family:BebasNeueBook;letter-spacing:0.06em;}.cls-23,.cls-28{stroke:#289df2;}.cls-24{fill:#f9fbfc;}.cls-26{fill:#1ae5ff;}.cls-27{fill:#287dd1;}</style></defs><g id="Layer_2" data-name="Layer 2"><g id="home_service" data-name="home service"><g id="Layer_18" data-name="Layer 18"><circle class="cls-1" cx="209.95" cy="57.32" r="57.32"/><circle class="cls-1" cx="62.26" cy="178.15" r="33.5" transform="translate(-107.73 96.21) rotate(-45)"/><path class="cls-2" d="M61.82,19.11A30.63,30.63,0,1,0,92.44,49.73,30.62,30.62,0,0,0,61.82,19.11Zm0,50.21A19.59,19.59,0,1,1,81.4,49.73,19.58,19.58,0,0,1,61.82,69.32Z"/><path class="cls-3" d="M177.52,214.92a3.51,3.51,0,0,1-3.51,3.51H85.14a3.52,3.52,0,0,1,0-7h31.55l4.35-8h17.07l4.35,8H174A3.52,3.52,0,0,1,177.52,214.92Z"/><rect class="cls-4" x="121.56" y="196.09" width="14.56" height="4.27"/><rect class="cls-4" x="121.56" y="189.06" width="14.56" height="4.27"/><path class="cls-5" d="M244.77,174.62a22.73,22.73,0,1,1,12.57-11.82"/><path class="cls-6" d="M180.48,46.46h-3.63a30.16,30.16,0,0,0-3.73-9l2.57-2.57a2.83,2.83,0,0,0,0-4L170,25.17a2.83,2.83,0,0,0-4,0l-2.57,2.57a30.16,30.16,0,0,0-9-3.73V20.38a2.84,2.84,0,0,0-2.84-2.84h-8.07a2.84,2.84,0,0,0-2.84,2.84V24a30.16,30.16,0,0,0-9,3.73l-2.57-2.57a2.83,2.83,0,0,0-4,0l-5.71,5.71a2.83,2.83,0,0,0,0,4l2.57,2.57a29.88,29.88,0,0,0-3.72,9h-3.64a2.84,2.84,0,0,0-2.84,2.84v8.07a2.84,2.84,0,0,0,2.84,2.84h3.64a29.88,29.88,0,0,0,3.72,9l-2.57,2.57a2.83,2.83,0,0,0,0,4l5.71,5.71a2.83,2.83,0,0,0,4,0l2.57-2.57a29.88,29.88,0,0,0,9,3.72v3.64a2.84,2.84,0,0,0,2.84,2.84h8.07a2.84,2.84,0,0,0,2.84-2.84V82.65a29.88,29.88,0,0,0,9-3.72L166,81.5a2.83,2.83,0,0,0,4,0l5.71-5.71a2.83,2.83,0,0,0,0-4l-2.57-2.57a30.16,30.16,0,0,0,3.73-9h3.63a2.84,2.84,0,0,0,2.84-2.84V49.3A2.84,2.84,0,0,0,180.48,46.46ZM147.53,67.74a14.41,14.41,0,1,1,14.4-14.41A14.41,14.41,0,0,1,147.53,67.74Z"/><rect class="cls-7" x="61.99" y="11.86" width="135.18" height="215.38" rx="11.47" transform="translate(249.13 -10.02) rotate(90)"/><rect class="cls-8" x="37.59" y="68.69" width="22.22" height="4.9"/><rect class="cls-8" x="64.33" y="68.69" width="22.22" height="4.9"/><rect class="cls-8" x="132.11" y="68.69" width="22.22" height="4.9"/><rect class="cls-8" x="199.89" y="68.69" width="22.22" height="4.9"/><rect class="cls-4" x="89.56" y="68.69" width="39.73" height="4.9"/><rect class="cls-9" x="156.96" y="68.69" width="39.73" height="4.9"/><rect class="cls-9" x="37.72" y="64.8" width="3.89" height="2.38"/><rect class="cls-10" x="37.72" y="77.6" width="40.61" height="2.38"/><rect class="cls-10" x="37.72" y="81.8" width="12.05" height="2.38"/><rect class="cls-8" x="37.97" y="91.66" width="47.82" height="78.32" rx="7.61"/><rect class="cls-10" x="43.99" y="103.14" width="16" height="2.45"/><rect class="cls-10" x="43.99" y="108.6" width="16" height="2.45"/><rect class="cls-10" x="43.99" y="114.06" width="16" height="2.45"/><rect class="cls-10" x="43.99" y="136.84" width="9.79" height="2.45"/><rect class="cls-10" x="43.99" y="142.3" width="9.79" height="2.45"/><rect class="cls-10" x="60.81" y="142.3" width="9.79" height="2.45"/><rect class="cls-10" x="43.99" y="130.63" width="6.15" height="2.45"/><rect class="cls-10" x="70.35" y="130.63" width="3.26" height="2.45"/><rect class="cls-4" x="52.28" y="130.63" width="16.82" height="2.45"/><rect class="cls-9" x="43.99" y="121.41" width="2.35" height="2.45"/><rect class="cls-4" x="43.99" y="125.74" width="2.35" height="2.45"/><polygon class="cls-10" points="57.05 145.25 56.17 145.25 58.27 142.12 59.15 142.12 57.05 145.25"/><rect class="cls-11" x="43.99" y="149.46" width="36.34" height="2.07"/><rect class="cls-11" x="43.99" y="154.17" width="36.34" height="2.07"/><rect class="cls-6" x="150.68" y="87.89" width="108.95" height="36.15" rx="6.77"/><path class="cls-12" d="M183.07,111.24s5.52-13.56,21.34-10.29,23.84,21.08,44.18,6.52"/><rect class="cls-13" x="232.02" y="111.99" width="2.26" height="2.26"/><line class="cls-14" x1="185.83" y1="100.32" x2="214.45" y2="100.32"/><line class="cls-14" x1="218.84" y1="113.75" x2="247.46" y2="113.75"/><rect class="cls-13" x="197.88" y="99.19" width="2.26" height="2.26"/><rect class="cls-8" x="144.91" y="94.42" width="28.12" height="38.91" rx="4.89"/><rect class="cls-10" x="149.3" y="99.94" width="16" height="2.21"/><rect class="cls-10" x="149.3" y="104.86" width="16" height="2.21"/><rect class="cls-10" x="149.3" y="109.79" width="6.02" height="2.21"/><rect class="cls-6" x="149.3" y="114.88" width="10.42" height="2.21"/><rect class="cls-6" x="149.3" y="119.8" width="7.03" height="2.21"/><rect class="cls-10" x="149.3" y="124.72" width="7.03" height="2.21"/><line class="cls-15" x1="242.06" y1="83" x2="253.36" y2="83"/><path class="cls-16" d="M216.68,146.74l-3.9,3-5.59,1s-5.26-.34-5.77-.34-4.07-2.88-4.07-2.88l-6.61-2.38-4.57,1.7-5.43-1.19-8.13-.51-7.8,3-6.44,1-5.77,1.87-6.44.5-6.95-5.42L132.77,145l-6.61,3.73-5.26,1.7-6-.17-7.52,4.58h-4.49l-7.57,2.65"/><line class="cls-17" x1="95.48" y1="157.64" x2="216.85" y2="157.64"/><rect class="cls-18" x="94.29" y="156.12" width="1.24" height="3.05"/><rect class="cls-18" x="216.11" y="156.12" width="1.24" height="3.05"/><line class="cls-17" x1="216.74" y1="157.64" x2="216.74" y2="147.42"/><path class="cls-18" d="M217.41,146.91a1,1,0,1,1-1-1A1,1,0,0,1,217.41,146.91Z"/><text class="cls-19" transform="translate(95.64 164.8)">beta <tspan class="cls-20" x="12.99" y="0">t</tspan><tspan x="15.08" y="0">est</tspan></text><rect class="cls-21" x="123.5" y="162.05" width="75.49" height="1.36"/><rect class="cls-4" x="123.5" y="162.05" width="46.33" height="1.36"/><rect class="cls-21" x="123.5" y="164.65" width="37.12" height="1.36"/><polygon class="cls-4" points="99.97 168.69 104.55 168.69 105.14 167.42 95.9 167.42 95.9 169.54 99.12 169.54 99.97 168.69"/><rect class="cls-18" x="108.95" y="167.41" width="0.51" height="0.51"/><rect class="cls-18" x="112.1" y="167.41" width="0.51" height="0.51"/><rect class="cls-18" x="115.26" y="167.41" width="0.51" height="0.51"/><text class="cls-22" transform="translate(210.8 143.52)">500</text><polygon class="cls-21" points="204.42 166.12 203.29 166.12 201.48 162.05 202.61 162.05 204.42 166.12"/><polygon class="cls-21" points="207.36 166.12 206.23 166.12 204.42 162.05 205.55 162.05 207.36 166.12"/><polygon class="cls-21" points="210.29 166.12 209.16 166.12 207.36 162.05 208.49 162.05 210.29 166.12"/><polygon class="cls-21" points="213.23 166.12 212.1 166.12 210.29 162.05 211.42 162.05 213.23 166.12"/><polygon class="cls-21" points="216.11 166.12 214.98 166.12 213.18 162.05 214.31 162.05 216.11 166.12"/><rect class="cls-2" x="192.83" y="26.05" width="18.38" height="3.29"/><rect class="cls-2" x="192.83" y="31.94" width="27.71" height="3.29"/><rect class="cls-2" x="192.83" y="37.83" width="34.17" height="3.29"/><rect class="cls-2" x="192.83" y="43.72" width="13.06" height="3.29"/><rect class="cls-9" x="0.04" y="65.71" width="18.38" height="3.29"/><rect class="cls-2" x="0.04" y="71.6" width="27.71" height="3.29"/><rect class="cls-2" x="0.04" y="77.49" width="34.17" height="3.29"/><rect class="cls-2" x="0.04" y="83.38" width="13.06" height="3.29"/><rect class="cls-23" x="45.88" y="181.28" width="78.32" height="10.17"/><rect class="cls-23" x="83.66" y="101.2" width="3.77" height="23.1"/><circle class="cls-4" cx="236.61" cy="153.35" r="12.98" transform="translate(-21.4 39.63) rotate(-9.16)"/><path class="cls-24" d="M235.67,152.14,230.52,154l5.15,1.88v1.93l-7.36-2.8v-2l7.36-2.8Z"/><path class="cls-24" d="M237.36,150.22l7.37,2.8v2l-7.37,2.8V155.9l5.15-1.88-5.15-1.88Z"/><path class="cls-25" d="M258.25,164a1.7,1.7,0,1,1-1.69-1.7A1.69,1.69,0,0,1,258.25,164Z"/><rect class="cls-23" x="41.73" y="41.2" width="61.38" height="6.4"/><rect class="cls-6" x="44.37" y="43.27" width="38.03" height="1.88"/><rect class="cls-8" x="93.95" y="91.16" width="44.94" height="2.26"/><rect class="cls-9" x="93.95" y="91.16" width="20.37" height="2.26"/><rect class="cls-8" x="93.95" y="96.99" width="44.94" height="2.26"/><rect class="cls-4" x="93.95" y="96.99" width="31.29" height="2.26"/><rect class="cls-8" x="93.95" y="102.83" width="44.94" height="2.26"/><rect class="cls-26" x="93.95" y="102.83" width="9.16" height="2.26"/><rect class="cls-8" x="94.14" y="87.2" width="0.88" height="0.88"/><rect class="cls-8" x="97.15" y="87.2" width="0.88" height="0.88"/><rect class="cls-8" x="100.16" y="87.2" width="0.88" height="0.88"/><rect class="cls-10" x="177.75" y="117.97" width="1.46" height="1.46"/><rect class="cls-10" x="182.77" y="117.97" width="1.46" height="1.46"/><rect class="cls-10" x="187.8" y="117.97" width="1.46" height="1.46"/><rect class="cls-10" x="198.89" y="59.78" width="2.75" height="2.75"/><rect class="cls-10" x="208.3" y="59.78" width="2.75" height="2.75"/><rect class="cls-10" x="217.72" y="59.78" width="2.75" height="2.75"/><rect class="cls-10" x="159.98" y="173.25" width="2.75" height="2.75"/><rect class="cls-10" x="169.39" y="173.25" width="2.75" height="2.75"/><rect class="cls-10" x="178.81" y="173.25" width="2.75" height="2.75"/><rect class="cls-10" x="44.79" y="97.22" width="1.46" height="1.46"/><rect class="cls-10" x="49.81" y="97.22" width="1.46" height="1.46"/><rect class="cls-10" x="54.83" y="97.22" width="1.46" height="1.46"/><rect class="cls-10" x="225.74" y="95.42" width="24.35" height="2.38"/><rect class="cls-27" x="225.74" y="99.63" width="7.23" height="2.38"/><polygon class="cls-26" points="29.31 100.32 24.04 100.32 24.04 95.05 19.14 95.05 19.14 100.32 13.87 100.32 13.87 105.21 19.14 105.21 19.14 110.49 24.04 110.49 24.04 105.21 29.31 105.21 29.31 100.32"/><polygon class="cls-9" points="15.2 115 11.99 115 11.99 111.79 9 111.79 9 115 5.79 115 5.79 117.99 9 117.99 9 121.2 11.99 121.2 11.99 117.99 15.2 117.99 15.2 115"/><path class="cls-8" d="M103.18,112.2a8.25,8.25,0,1,0,8.25,8.24A8.24,8.24,0,0,0,103.18,112.2Zm0,12.54a4.3,4.3,0,1,1,4.3-4.3A4.3,4.3,0,0,1,103.18,124.74Z"/><path class="cls-6" d="M97.57,119.63a2,2,0,0,0,1.79-1.14,4.3,4.3,0,0,1,7.65,0,2,2,0,0,0,1.79,1.14h0a2,2,0,0,0,1.79-2.81,8.24,8.24,0,0,0-14.81,0,2,2,0,0,0,1.79,2.81Z"/><path class="cls-8" d="M117,120.44a8.25,8.25,0,1,0,8.24-8.24A8.25,8.25,0,0,0,117,120.44Zm12.54,0a4.3,4.3,0,1,1-4.3-4.29A4.3,4.3,0,0,1,129.57,120.44Z"/><path class="cls-4" d="M124.46,126.05a2,2,0,0,0-1.14-1.78,4.3,4.3,0,0,1,0-7.65,2,2,0,0,0,1.14-1.79h0a2,2,0,0,0-2.81-1.8,8.25,8.25,0,0,0,0,14.82,2,2,0,0,0,2.81-1.8Z"/><rect class="cls-23" x="64.58" y="87.89" width="15.06" height="36.15"/><rect class="cls-26" x="66.71" y="94.86" width="4.39" height="1.3"/><rect class="cls-26" x="66.71" y="97.76" width="4.39" height="1.3"/><rect class="cls-26" x="66.71" y="100.65" width="4.39" height="1.3"/><rect class="cls-26" x="66.71" y="115.71" width="4.39" height="1.3"/><rect class="cls-26" x="66.71" y="104.9" width="6.4" height="1.3"/><rect class="cls-10" x="66.71" y="107.8" width="6.4" height="1.3"/><rect class="cls-10" x="66.71" y="110.69" width="6.4" height="1.3"/><rect class="cls-6" x="10.61" y="133.08" width="19.08" height="19.08"/><rect class="cls-23" x="0.56" y="137.6" width="19.08" height="19.08"/><rect class="cls-23" x="237.54" y="188.31" width="8.03" height="8.03"/><polyline class="cls-12" points="141.15 175.63 147.92 175.63 151.69 179.4 190.85 179.4 196.88 173.37 217.96 173.37"/><circle class="cls-12" cx="139.17" cy="175.72" r="1.98"/><circle class="cls-12" cx="220" cy="173.28" r="1.98"/><path class="cls-6" d="M246.58,69.32a2.51,2.51,0,1,1-2.51-2.51A2.51,2.51,0,0,1,246.58,69.32Z"/><path class="cls-4" d="M14.62,167.22a2.51,2.51,0,1,1-2.51-2.51A2.51,2.51,0,0,1,14.62,167.22Z"/><path class="cls-4" d="M26.17,176.51a4.4,4.4,0,1,1-4.39-4.39A4.4,4.4,0,0,1,26.17,176.51Z"/><rect class="cls-23" x="158.22" y="191.32" width="17.57" height="4.02"/><rect class="cls-23" x="158.22" y="198.85" width="38.53" height="4.02"/><line class="cls-28" x1="50.56" y1="195.17" x2="46.3" y2="199.43"/><line class="cls-28" x1="54.66" y1="195.17" x2="50.4" y2="199.43"/><line class="cls-28" x1="58.75" y1="195.17" x2="54.5" y2="199.43"/><line class="cls-28" x1="62.85" y1="195.17" x2="58.59" y2="199.43"/><line class="cls-28" x1="66.94" y1="195.17" x2="62.69" y2="199.43"/></g></g></g></svg>